<svg xmlns="http://www.w3.org/2000/svg" xmlns:xlink="http://www.w3.org/1999/xlink" width="589" zoomAndPan="magnify" viewBox="0 0 441.75 440.999989" height="588" preserveAspectRatio="xMidYMid meet" version="1.0"><defs><g/><clipPath id="93c83db354"><path d="M 67.070312 0.125 L 238 0.125 L 238 292.460938 L 67.070312 292.460938 Z M 67.070312 0.125 " clip-rule="nonzero"/></clipPath><clipPath id="9570f04b76"><path d="M 242 39 L 374.398438 39 L 374.398438 254 L 242 254 Z M 242 39 " clip-rule="nonzero"/></clipPath></defs><path fill="#ffffff" d="M 106.058594 131.789062 L 86.566406 131.789062 C 83.882812 131.789062 81.691406 133.984375 81.691406 136.664062 L 81.691406 146.410156 C 81.691406 149.089844 83.882812 151.285156 86.566406 151.285156 L 106.058594 151.285156 C 108.738281 151.285156 110.929688 149.089844 110.929688 146.410156 L 110.929688 136.664062 C 110.929688 133.984375 108.738281 131.789062 106.058594 131.789062 Z M 86.566406 146.410156 L 86.566406 136.664062 L 106.058594 136.664062 L 106.058594 146.410156 Z M 86.566406 146.410156 " fill-opacity="1" fill-rule="nonzero"/><path fill="#ffffff" d="M 140.171875 131.789062 L 120.679688 131.789062 C 117.996094 131.789062 115.804688 133.984375 115.804688 136.664062 L 115.804688 146.410156 C 115.804688 149.089844 117.996094 151.285156 120.679688 151.285156 L 140.171875 151.285156 C 142.851562 151.285156 145.042969 149.089844 145.042969 146.410156 L 145.042969 136.664062 C 145.042969 133.984375 142.851562 131.789062 140.171875 131.789062 Z M 120.679688 146.410156 L 120.679688 136.664062 L 140.171875 136.664062 L 140.171875 146.410156 Z M 120.679688 146.410156 " fill-opacity="1" fill-rule="nonzero"/><path fill="#ffffff" d="M 174.285156 131.789062 L 154.792969 131.789062 C 152.109375 131.789062 149.917969 133.984375 149.917969 136.664062 L 149.917969 146.410156 C 149.917969 149.089844 152.109375 151.285156 154.792969 151.285156 L 174.285156 151.285156 C 176.964844 151.285156 179.160156 149.089844 179.160156 146.410156 L 179.160156 136.664062 C 179.160156 133.984375 176.964844 131.789062 174.285156 131.789062 Z M 154.792969 146.410156 L 154.792969 136.664062 L 174.285156 136.664062 L 174.285156 146.410156 Z M 154.792969 146.410156 " fill-opacity="1" fill-rule="nonzero"/><path fill="#ffffff" d="M 208.398438 131.789062 L 188.90625 131.789062 C 186.226562 131.789062 184.03125 133.984375 184.03125 136.664062 L 184.03125 146.410156 C 184.03125 149.089844 186.226562 151.285156 188.90625 151.285156 L 208.398438 151.285156 C 211.078125 151.285156 213.273438 149.089844 213.273438 146.410156 L 213.273438 136.664062 C 213.273438 133.984375 211.078125 131.789062 208.398438 131.789062 Z M 188.90625 146.410156 L 188.90625 136.664062 L 208.398438 136.664062 L 208.398438 146.410156 Z M 188.90625 146.410156 " fill-opacity="1" fill-rule="nonzero"/><path fill="#ffffff" d="M 103.621094 165.902344 L 89 165.902344 C 84.980469 165.902344 81.691406 169.191406 81.691406 173.214844 L 81.691406 182.960938 C 81.691406 186.980469 84.980469 190.269531 89 190.269531 L 103.621094 190.269531 C 107.640625 190.269531 110.929688 186.980469 110.929688 182.960938 L 110.929688 173.214844 C 110.929688 169.191406 107.640625 165.902344 103.621094 165.902344 Z M 106.058594 182.960938 C 106.058594 184.300781 104.960938 185.398438 103.621094 185.398438 L 89 185.398438 C 87.660156 185.398438 86.566406 184.300781 86.566406 182.960938 L 86.566406 173.214844 C 86.566406 171.875 87.660156 170.777344 89 170.777344 L 103.621094 170.777344 C 104.960938 170.777344 106.058594 171.875 106.058594 173.214844 Z M 106.058594 182.960938 " fill-opacity="1" fill-rule="nonzero"/><path fill="#ffffff" d="M 103.621094 195.144531 L 89 195.144531 C 84.980469 195.144531 81.691406 198.433594 81.691406 202.453125 L 81.691406 212.199219 C 81.691406 216.222656 84.980469 219.511719 89 219.511719 L 103.621094 219.511719 C 107.640625 219.511719 110.929688 216.222656 110.929688 212.199219 L 110.929688 202.453125 C 110.929688 198.433594 107.640625 195.144531 103.621094 195.144531 Z M 106.058594 212.199219 C 106.058594 213.539062 104.960938 214.636719 103.621094 214.636719 L 89 214.636719 C 87.660156 214.636719 86.566406 213.539062 86.566406 212.199219 L 86.566406 202.453125 C 86.566406 201.113281 87.660156 200.015625 89 200.015625 L 103.621094 200.015625 C 104.960938 200.015625 106.058594 201.113281 106.058594 202.453125 Z M 106.058594 212.199219 " fill-opacity="1" fill-rule="nonzero"/><path fill="#ffffff" d="M 103.621094 224.382812 L 89 224.382812 C 84.980469 224.382812 81.691406 227.671875 81.691406 231.695312 L 81.691406 241.441406 C 81.691406 245.460938 84.980469 248.75 89 248.75 L 103.621094 248.75 C 107.640625 248.75 110.929688 245.460938 110.929688 241.441406 L 110.929688 231.695312 C 110.929688 227.671875 107.640625 224.382812 103.621094 224.382812 Z M 106.058594 241.441406 C 106.058594 242.78125 104.960938 243.878906 103.621094 243.878906 L 89 243.878906 C 87.660156 243.878906 86.566406 242.78125 86.566406 241.441406 L 86.566406 231.695312 C 86.566406 230.355469 87.660156 229.257812 89 229.257812 L 103.621094 229.257812 C 104.960938 229.257812 106.058594 230.355469 106.058594 231.695312 Z M 106.058594 241.441406 " fill-opacity="1" fill-rule="nonzero"/><path fill="#ffffff" d="M 103.621094 253.625 L 89 253.625 C 84.980469 253.625 81.691406 256.914062 81.691406 260.933594 L 81.691406 270.679688 C 81.691406 274.703125 84.980469 277.992188 89 277.992188 L 103.621094 277.992188 C 107.640625 277.992188 110.929688 274.703125 110.929688 270.679688 L 110.929688 260.933594 C 110.929688 256.914062 107.640625 253.625 103.621094 253.625 Z M 106.058594 270.679688 C 106.058594 272.019531 104.960938 273.117188 103.621094 273.117188 L 89 273.117188 C 87.660156 273.117188 86.566406 272.019531 86.566406 270.679688 L 86.566406 260.933594 C 86.566406 259.59375 87.660156 258.496094 89 258.496094 L 103.621094 258.496094 C 104.960938 258.496094 106.058594 259.59375 106.058594 260.933594 Z M 106.058594 270.679688 " fill-opacity="1" fill-rule="nonzero"/><path fill="#ffffff" d="M 137.734375 165.902344 L 123.113281 165.902344 C 119.09375 165.902344 115.804688 169.191406 115.804688 173.214844 L 115.804688 182.960938 C 115.804688 186.980469 119.09375 190.269531 123.113281 190.269531 L 137.734375 190.269531 C 141.753906 190.269531 145.042969 186.980469 145.042969 182.960938 L 145.042969 173.214844 C 145.042969 169.191406 141.753906 165.902344 137.734375 165.902344 Z M 140.171875 182.960938 C 140.171875 184.300781 139.074219 185.398438 137.734375 185.398438 L 123.113281 185.398438 C 121.773438 185.398438 120.679688 184.300781 120.679688 182.960938 L 120.679688 173.214844 C 120.679688 171.875 121.773438 170.777344 123.113281 170.777344 L 137.734375 170.777344 C 139.074219 170.777344 140.171875 171.875 140.171875 173.214844 Z M 140.171875 182.960938 " fill-opacity="1" fill-rule="nonzero"/><path fill="#ffffff" d="M 137.734375 195.144531 L 123.113281 195.144531 C 119.09375 195.144531 115.804688 198.433594 115.804688 202.453125 L 115.804688 212.199219 C 115.804688 216.222656 119.09375 219.511719 123.113281 219.511719 L 137.734375 219.511719 C 141.753906 219.511719 145.042969 216.222656 145.042969 212.199219 L 145.042969 202.453125 C 145.042969 198.433594 141.753906 195.144531 137.734375 195.144531 Z M 140.171875 212.199219 C 140.171875 213.539062 139.074219 214.636719 137.734375 214.636719 L 123.113281 214.636719 C 121.773438 214.636719 120.679688 213.539062 120.679688 212.199219 L 120.679688 202.453125 C 120.679688 201.113281 121.773438 200.015625 123.113281 200.015625 L 137.734375 200.015625 C 139.074219 200.015625 140.171875 201.113281 140.171875 202.453125 Z M 140.171875 212.199219 " fill-opacity="1" fill-rule="nonzero"/><path fill="#ffffff" d="M 137.734375 224.382812 L 123.113281 224.382812 C 119.09375 224.382812 115.804688 227.671875 115.804688 231.695312 L 115.804688 241.441406 C 115.804688 245.460938 119.09375 248.75 123.113281 248.75 L 137.734375 248.75 C 141.753906 248.75 145.042969 245.460938 145.042969 241.441406 L 145.042969 231.695312 C 145.042969 227.671875 141.753906 224.382812 137.734375 224.382812 Z M 140.171875 241.441406 C 140.171875 242.78125 139.074219 243.878906 137.734375 243.878906 L 123.113281 243.878906 C 121.773438 243.878906 120.679688 242.78125 120.679688 241.441406 L 120.679688 231.695312 C 120.679688 230.355469 121.773438 229.257812 123.113281 229.257812 L 137.734375 229.257812 C 139.074219 229.257812 140.171875 230.355469 140.171875 231.695312 Z M 140.171875 241.441406 " fill-opacity="1" fill-rule="nonzero"/><path fill="#ffffff" d="M 137.734375 253.625 L 123.113281 253.625 C 119.09375 253.625 115.804688 256.914062 115.804688 260.933594 L 115.804688 270.679688 C 115.804688 274.703125 119.09375 277.992188 123.113281 277.992188 L 137.734375 277.992188 C 141.753906 277.992188 145.042969 274.703125 145.042969 270.679688 L 145.042969 260.933594 C 145.042969 256.914062 141.753906 253.625 137.734375 253.625 Z M 140.171875 270.679688 C 140.171875 272.019531 139.074219 273.117188 137.734375 273.117188 L 123.113281 273.117188 C 121.773438 273.117188 120.679688 272.019531 120.679688 270.679688 L 120.679688 260.933594 C 120.679688 259.59375 121.773438 258.496094 123.113281 258.496094 L 137.734375 258.496094 C 139.074219 258.496094 140.171875 259.59375 140.171875 260.933594 Z M 140.171875 270.679688 " fill-opacity="1" fill-rule="nonzero"/><path fill="#ffffff" d="M 171.847656 165.902344 L 157.226562 165.902344 C 153.207031 165.902344 149.917969 169.191406 149.917969 173.214844 L 149.917969 182.960938 C 149.917969 186.980469 153.207031 190.269531 157.226562 190.269531 L 171.847656 190.269531 C 175.867188 190.269531 179.160156 186.980469 179.160156 182.960938 L 179.160156 173.214844 C 179.160156 169.191406 175.867188 165.902344 171.847656 165.902344 Z M 174.285156 182.960938 C 174.285156 184.300781 173.1875 185.398438 171.847656 185.398438 L 157.226562 185.398438 C 155.886719 185.398438 154.792969 184.300781 154.792969 182.960938 L 154.792969 173.214844 C 154.792969 171.875 155.886719 170.777344 157.226562 170.777344 L 171.847656 170.777344 C 173.1875 170.777344 174.285156 171.875 174.285156 173.214844 Z M 174.285156 182.960938 " fill-opacity="1" fill-rule="nonzero"/><path fill="#ffffff" d="M 205.960938 165.902344 L 191.339844 165.902344 C 187.320312 165.902344 184.03125 169.191406 184.03125 173.214844 L 184.03125 182.960938 C 184.03125 186.980469 187.320312 190.269531 191.339844 190.269531 L 205.960938 190.269531 C 209.980469 190.269531 213.273438 186.980469 213.273438 182.960938 L 213.273438 173.214844 C 213.273438 169.191406 209.980469 165.902344 205.960938 165.902344 Z M 208.398438 182.960938 C 208.398438 184.300781 207.300781 185.398438 205.960938 185.398438 L 191.339844 185.398438 C 190 185.398438 188.90625 184.300781 188.90625 182.960938 L 188.90625 173.214844 C 188.90625 171.875 190 170.777344 191.339844 170.777344 L 205.960938 170.777344 C 207.300781 170.777344 208.398438 171.875 208.398438 173.214844 Z M 208.398438 182.960938 " fill-opacity="1" fill-rule="nonzero"/><path fill="#ffffff" d="M 205.960938 195.144531 L 191.339844 195.144531 C 187.320312 195.144531 184.03125 198.433594 184.03125 202.453125 L 184.03125 212.199219 C 184.03125 216.222656 187.320312 219.511719 191.339844 219.511719 L 205.960938 219.511719 C 209.980469 219.511719 213.273438 216.222656 213.273438 212.199219 L 213.273438 202.453125 C 213.273438 198.433594 209.980469 195.144531 205.960938 195.144531 Z M 208.398438 212.199219 C 208.398438 213.539062 207.300781 214.636719 205.960938 214.636719 L 191.339844 214.636719 C 190 214.636719 188.90625 213.539062 188.90625 212.199219 L 188.90625 202.453125 C 188.90625 201.113281 190 200.015625 191.339844 200.015625 L 205.960938 200.015625 C 207.300781 200.015625 208.398438 201.113281 208.398438 202.453125 Z M 208.398438 212.199219 " fill-opacity="1" fill-rule="nonzero"/><path fill="#ffffff" d="M 205.960938 224.382812 L 191.339844 224.382812 C 187.320312 224.382812 184.03125 227.671875 184.03125 231.695312 L 184.03125 241.441406 C 184.03125 245.460938 187.320312 248.75 191.339844 248.75 L 205.960938 248.75 C 209.980469 248.75 213.273438 245.460938 213.273438 241.441406 L 213.273438 231.695312 C 213.273438 227.671875 209.980469 224.382812 205.960938 224.382812 Z M 208.398438 241.441406 C 208.398438 242.78125 207.300781 243.878906 205.960938 243.878906 L 191.339844 243.878906 C 190 243.878906 188.90625 242.78125 188.90625 241.441406 L 188.90625 231.695312 C 188.90625 230.355469 190 229.257812 191.339844 229.257812 L 205.960938 229.257812 C 207.300781 229.257812 208.398438 230.355469 208.398438 231.695312 Z M 208.398438 241.441406 " fill-opacity="1" fill-rule="nonzero"/><path fill="#ffffff" d="M 205.960938 253.625 L 191.339844 253.625 C 187.320312 253.625 184.03125 256.914062 184.03125 260.933594 L 184.03125 270.679688 C 184.03125 274.703125 187.320312 277.992188 191.339844 277.992188 L 205.960938 277.992188 C 209.980469 277.992188 213.273438 274.703125 213.273438 270.679688 L 213.273438 260.933594 C 213.273438 256.914062 209.980469 253.625 205.960938 253.625 Z M 208.398438 270.679688 C 208.398438 272.019531 207.300781 273.117188 205.960938 273.117188 L 191.339844 273.117188 C 190 273.117188 188.90625 272.019531 188.90625 270.679688 L 188.90625 260.933594 C 188.90625 259.59375 190 258.496094 191.339844 258.496094 L 205.960938 258.496094 C 207.300781 258.496094 208.398438 259.59375 208.398438 260.933594 Z M 208.398438 270.679688 " fill-opacity="1" fill-rule="nonzero"/><path fill="#ffffff" d="M 171.847656 195.144531 L 157.226562 195.144531 C 153.207031 195.144531 149.917969 198.433594 149.917969 202.453125 L 149.917969 212.199219 C 149.917969 216.222656 153.207031 219.511719 157.226562 219.511719 L 171.847656 219.511719 C 175.867188 219.511719 179.160156 216.222656 179.160156 212.199219 L 179.160156 202.453125 C 179.160156 198.433594 175.867188 195.144531 171.847656 195.144531 Z M 174.285156 212.199219 C 174.285156 213.539062 173.1875 214.636719 171.847656 214.636719 L 157.226562 214.636719 C 155.886719 214.636719 154.792969 213.539062 154.792969 212.199219 L 154.792969 202.453125 C 154.792969 201.113281 155.886719 200.015625 157.226562 200.015625 L 171.847656 200.015625 C 173.1875 200.015625 174.285156 201.113281 174.285156 202.453125 Z M 174.285156 212.199219 " fill-opacity="1" fill-rule="nonzero"/><path fill="#ffffff" d="M 171.847656 224.382812 L 157.226562 224.382812 C 153.207031 224.382812 149.917969 227.671875 149.917969 231.695312 L 149.917969 241.441406 C 149.917969 245.460938 153.207031 248.75 157.226562 248.75 L 171.847656 248.75 C 175.867188 248.75 179.160156 245.460938 179.160156 241.441406 L 179.160156 231.695312 C 179.160156 227.671875 175.867188 224.382812 171.847656 224.382812 Z M 174.285156 241.441406 C 174.285156 242.78125 173.1875 243.878906 171.847656 243.878906 L 157.226562 243.878906 C 155.886719 243.878906 154.792969 242.78125 154.792969 241.441406 L 154.792969 231.695312 C 154.792969 230.355469 155.886719 229.257812 157.226562 229.257812 L 171.847656 229.257812 C 173.1875 229.257812 174.285156 230.355469 174.285156 231.695312 Z M 174.285156 241.441406 " fill-opacity="1" fill-rule="nonzero"/><path fill="#ffffff" d="M 171.847656 253.625 L 157.226562 253.625 C 153.207031 253.625 149.917969 256.914062 149.917969 260.933594 L 149.917969 270.679688 C 149.917969 274.703125 153.207031 277.992188 157.226562 277.992188 L 171.847656 277.992188 C 175.867188 277.992188 179.160156 274.703125 179.160156 270.679688 L 179.160156 260.933594 C 179.160156 256.914062 175.867188 253.625 171.847656 253.625 Z M 174.285156 270.679688 C 174.285156 272.019531 173.1875 273.117188 171.847656 273.117188 L 157.226562 273.117188 C 155.886719 273.117188 154.792969 272.019531 154.792969 270.679688 L 154.792969 260.933594 C 154.792969 259.59375 155.886719 258.496094 157.226562 258.496094 L 171.847656 258.496094 C 173.1875 258.496094 174.285156 259.59375 174.285156 260.933594 Z M 174.285156 270.679688 " fill-opacity="1" fill-rule="nonzero"/><g clip-path="url(#93c83db354)"><path fill="#ffffff" d="M 235.203125 58.691406 L 227.890625 58.691406 L 227.890625 24.882812 C 227.890625 13.550781 220.214844 3.683594 209.191406 0.941406 C 207.242188 0.453125 205.230469 0.210938 203.21875 0.210938 L 91.742188 0.210938 C 89.730469 0.210938 87.722656 0.453125 85.773438 0.941406 C 74.746094 3.683594 67.070312 13.550781 67.070312 24.882812 L 67.070312 264.648438 C 67.070312 275.3125 72.980469 284.875 82.542969 289.625 C 86.382812 291.574219 90.707031 292.550781 95.03125 292.550781 L 199.929688 292.550781 C 204.257812 292.550781 208.582031 291.515625 212.417969 289.625 C 221.128906 285.238281 226.796875 276.894531 227.710938 267.332031 L 236.238281 263.066406 C 237.089844 262.640625 237.578125 261.785156 237.578125 260.875 L 237.578125 61.125 C 237.636719 59.785156 236.542969 58.691406 235.203125 58.691406 Z M 198.652344 5.082031 L 198.652344 14.21875 C 198.652344 19.945312 194.023438 24.578125 188.296875 24.578125 L 106.667969 24.578125 C 100.941406 24.578125 96.3125 19.945312 96.3125 14.21875 L 96.3125 5.082031 Z M 210.285156 285.300781 C 207.121094 286.886719 203.523438 287.738281 199.992188 287.738281 L 95.03125 287.738281 C 91.4375 287.738281 87.90625 286.886719 84.738281 285.300781 C 76.816406 281.339844 71.945312 273.484375 71.945312 264.648438 L 71.945312 24.882812 C 71.945312 15.804688 78.097656 7.886719 86.929688 5.691406 C 88.390625 5.328125 89.914062 5.144531 91.4375 5.082031 L 91.4375 14.21875 C 91.4375 22.628906 98.261719 29.449219 106.667969 29.449219 L 188.296875 29.449219 C 196.703125 29.449219 203.523438 22.628906 203.523438 14.21875 L 203.523438 5.082031 C 205.046875 5.082031 206.570312 5.328125 208.03125 5.691406 C 216.867188 7.886719 223.019531 15.804688 223.019531 24.882812 L 223.019531 264.648438 C 223.019531 273.484375 218.144531 281.339844 210.285156 285.300781 Z M 232.765625 259.410156 L 227.890625 261.847656 L 227.890625 63.5625 L 232.765625 63.5625 Z M 232.765625 259.410156 " fill-opacity="1" fill-rule="nonzero"/></g><path fill="#ffffff" d="M 210.835938 39.195312 L 84.128906 39.195312 C 82.789062 39.195312 81.691406 40.292969 81.691406 41.632812 L 81.691406 124.480469 C 81.691406 125.820312 82.789062 126.917969 84.128906 126.917969 L 210.835938 126.917969 C 212.175781 126.917969 213.273438 125.820312 213.273438 124.480469 L 213.273438 41.632812 C 213.273438 40.292969 212.175781 39.195312 210.835938 39.195312 Z M 208.398438 122.042969 L 86.566406 122.042969 L 86.566406 44.070312 L 208.398438 44.070312 Z M 208.398438 122.042969 " fill-opacity="1" fill-rule="nonzero"/><g clip-path="url(#9570f04b76)"><path fill="#ffffff" d="M 360.691406 39.195312 L 255.914062 39.195312 C 248.542969 39.195312 242.511719 45.226562 242.511719 52.597656 L 242.511719 240.222656 C 242.511719 247.59375 248.542969 253.625 255.914062 253.625 L 360.691406 253.625 C 368.0625 253.625 374.09375 247.59375 374.09375 240.222656 L 374.09375 52.597656 C 374.09375 45.226562 368.0625 39.195312 360.691406 39.195312 Z M 369.21875 240.222656 C 369.21875 244.914062 365.382812 248.75 360.691406 248.75 L 255.914062 248.75 C 251.222656 248.75 247.386719 244.914062 247.386719 240.222656 L 247.386719 52.597656 C 247.386719 47.90625 251.222656 44.070312 255.914062 44.070312 L 360.691406 44.070312 C 365.382812 44.070312 369.21875 47.90625 369.21875 52.597656 Z M 369.21875 240.222656 " fill-opacity="1" fill-rule="nonzero"/></g><path fill="#ffffff" d="M 352.164062 229.257812 L 337.542969 229.257812 C 336.203125 229.257812 335.105469 230.355469 335.105469 231.695312 C 335.105469 233.035156 336.203125 234.128906 337.542969 234.128906 L 352.164062 234.128906 C 353.503906 234.128906 354.597656 233.035156 354.597656 231.695312 C 354.597656 230.355469 353.503906 229.257812 352.164062 229.257812 Z M 352.164062 229.257812 " fill-opacity="1" fill-rule="nonzero"/><path fill="#ffffff" d="M 352.164062 219.511719 L 337.542969 219.511719 C 336.203125 219.511719 335.105469 220.605469 335.105469 221.949219 C 335.105469 223.289062 336.203125 224.382812 337.542969 224.382812 L 352.164062 224.382812 C 353.503906 224.382812 354.597656 223.289062 354.597656 221.949219 C 354.597656 220.605469 353.503906 219.511719 352.164062 219.511719 Z M 352.164062 219.511719 " fill-opacity="1" fill-rule="nonzero"/><path fill="#ffffff" d="M 352.164062 209.765625 L 337.542969 209.765625 C 336.203125 209.765625 335.105469 210.859375 335.105469 212.199219 C 335.105469 213.539062 336.203125 214.636719 337.542969 214.636719 L 352.164062 214.636719 C 353.503906 214.636719 354.597656 213.539062 354.597656 212.199219 C 354.597656 210.859375 353.503906 209.765625 352.164062 209.765625 Z M 352.164062 209.765625 " fill-opacity="1" fill-rule="nonzero"/><path fill="#ffffff" d="M 352.164062 200.015625 L 337.542969 200.015625 C 336.203125 200.015625 335.105469 201.113281 335.105469 202.453125 C 335.105469 203.792969 336.203125 204.890625 337.542969 204.890625 L 352.164062 204.890625 C 353.503906 204.890625 354.597656 203.792969 354.597656 202.453125 C 354.597656 201.113281 353.503906 200.015625 352.164062 200.015625 Z M 352.164062 200.015625 " fill-opacity="1" fill-rule="nonzero"/><path fill="#ffffff" d="M 352.164062 180.523438 L 337.542969 180.523438 C 336.203125 180.523438 335.105469 181.621094 335.105469 182.960938 C 335.105469 184.300781 336.203125 185.398438 337.542969 185.398438 L 352.164062 185.398438 C 353.503906 185.398438 354.597656 184.300781 354.597656 182.960938 C 354.597656 181.621094 353.503906 180.523438 352.164062 180.523438 Z M 352.164062 180.523438 " fill-opacity="1" fill-rule="nonzero"/><path fill="#ffffff" d="M 352.164062 170.777344 L 337.542969 170.777344 C 336.203125 170.777344 335.105469 171.875 335.105469 173.214844 C 335.105469 174.554688 336.203125 175.652344 337.542969 175.652344 L 352.164062 175.652344 C 353.503906 175.652344 354.597656 174.554688 354.597656 173.214844 C 354.597656 171.875 353.503906 170.777344 352.164062 170.777344 Z M 352.164062 170.777344 " fill-opacity="1" fill-rule="nonzero"/><path fill="#ffffff" d="M 352.164062 161.03125 L 337.542969 161.03125 C 336.203125 161.03125 335.105469 162.125 335.105469 163.46875 C 335.105469 164.808594 336.203125 165.902344 337.542969 165.902344 L 352.164062 165.902344 C 353.503906 165.902344 354.597656 164.808594 354.597656 163.46875 C 354.597656 162.125 353.503906 161.03125 352.164062 161.03125 Z M 352.164062 161.03125 " fill-opacity="1" fill-rule="nonzero"/><path fill="#ffffff" d="M 352.164062 151.285156 L 337.542969 151.285156 C 336.203125 151.285156 335.105469 152.378906 335.105469 153.71875 C 335.105469 155.058594 336.203125 156.15625 337.542969 156.15625 L 352.164062 156.15625 C 353.503906 156.15625 354.597656 155.058594 354.597656 153.71875 C 354.597656 152.378906 353.503906 151.285156 352.164062 151.285156 Z M 352.164062 151.285156 " fill-opacity="1" fill-rule="nonzero"/><path fill="#ffffff" d="M 352.164062 141.535156 L 337.542969 141.535156 C 336.203125 141.535156 335.105469 142.632812 335.105469 143.972656 C 335.105469 145.3125 336.203125 146.410156 337.542969 146.410156 L 352.164062 146.410156 C 353.503906 146.410156 354.597656 145.3125 354.597656 143.972656 C 354.597656 142.632812 353.503906 141.535156 352.164062 141.535156 Z M 352.164062 141.535156 " fill-opacity="1" fill-rule="nonzero"/><path fill="#ffffff" d="M 352.164062 122.042969 L 337.542969 122.042969 C 336.203125 122.042969 335.105469 123.140625 335.105469 124.480469 C 335.105469 125.820312 336.203125 126.917969 337.542969 126.917969 L 352.164062 126.917969 C 353.503906 126.917969 354.597656 125.820312 354.597656 124.480469 C 354.597656 123.140625 353.503906 122.042969 352.164062 122.042969 Z M 352.164062 122.042969 " fill-opacity="1" fill-rule="nonzero"/><path fill="#ffffff" d="M 352.164062 112.296875 L 337.542969 112.296875 C 336.203125 112.296875 335.105469 113.394531 335.105469 114.734375 C 335.105469 116.074219 336.203125 117.171875 337.542969 117.171875 L 352.164062 117.171875 C 353.503906 117.171875 354.597656 116.074219 354.597656 114.734375 C 354.597656 113.394531 353.503906 112.296875 352.164062 112.296875 Z M 352.164062 112.296875 " fill-opacity="1" fill-rule="nonzero"/><path fill="#ffffff" d="M 352.164062 102.550781 L 337.542969 102.550781 C 336.203125 102.550781 335.105469 103.648438 335.105469 104.988281 C 335.105469 106.328125 336.203125 107.421875 337.542969 107.421875 L 352.164062 107.421875 C 353.503906 107.421875 354.597656 106.328125 354.597656 104.988281 C 354.597656 103.648438 353.503906 102.550781 352.164062 102.550781 Z M 352.164062 102.550781 " fill-opacity="1" fill-rule="nonzero"/><path fill="#ffffff" d="M 352.164062 92.804688 L 337.542969 92.804688 C 336.203125 92.804688 335.105469 93.898438 335.105469 95.238281 C 335.105469 96.582031 336.203125 97.675781 337.542969 97.675781 L 352.164062 97.675781 C 353.503906 97.675781 354.597656 96.582031 354.597656 95.238281 C 354.597656 93.898438 353.503906 92.804688 352.164062 92.804688 Z M 352.164062 92.804688 " fill-opacity="1" fill-rule="nonzero"/><path fill="#ffffff" d="M 274.1875 53.816406 C 264.808594 53.816406 257.132812 61.492188 257.132812 70.875 C 257.132812 80.253906 264.808594 87.929688 274.1875 87.929688 C 283.570312 87.929688 291.246094 80.253906 291.246094 70.875 C 291.246094 61.492188 283.570312 53.816406 274.1875 53.816406 Z M 274.1875 83.054688 C 267.488281 83.054688 262.003906 77.574219 262.003906 70.875 C 262.003906 64.171875 267.488281 58.691406 274.1875 58.691406 C 280.890625 58.691406 286.371094 64.171875 286.371094 70.875 C 286.371094 77.574219 280.890625 83.054688 274.1875 83.054688 Z M 274.1875 83.054688 " fill-opacity="1" fill-rule="nonzero"/><path fill="#ffffff" d="M 269.316406 180.523438 L 259.570312 180.523438 C 258.226562 180.523438 257.132812 181.621094 257.132812 182.960938 L 257.132812 231.695312 C 257.132812 233.035156 258.226562 234.128906 259.570312 234.128906 L 269.316406 234.128906 C 270.65625 234.128906 271.753906 233.035156 271.753906 231.695312 L 271.753906 182.960938 C 271.753906 181.621094 270.65625 180.523438 269.316406 180.523438 Z M 266.878906 229.257812 L 262.003906 229.257812 L 262.003906 185.398438 L 266.878906 185.398438 Z M 266.878906 229.257812 " fill-opacity="1" fill-rule="nonzero"/><path fill="#ffffff" d="M 279.0625 180.523438 C 277.722656 180.523438 276.625 181.621094 276.625 182.960938 L 276.625 231.695312 C 276.625 233.035156 277.722656 234.128906 279.0625 234.128906 C 280.402344 234.128906 281.5 233.035156 281.5 231.695312 L 281.5 182.960938 C 281.5 181.621094 280.402344 180.523438 279.0625 180.523438 Z M 279.0625 180.523438 " fill-opacity="1" fill-rule="nonzero"/><path fill="#ffffff" d="M 312.808594 65.816406 C 313.417969 65.816406 314.027344 65.574219 314.515625 65.085938 C 318.65625 60.945312 324.140625 58.691406 330.050781 58.691406 C 335.957031 58.691406 341.378906 60.945312 345.582031 65.085938 C 346.558594 66.0625 348.082031 66.0625 349.054688 65.085938 C 350.03125 64.113281 350.03125 62.589844 349.054688 61.613281 C 344 56.558594 337.238281 53.753906 330.109375 53.753906 C 322.984375 53.753906 316.222656 56.558594 311.164062 61.613281 C 310.191406 62.589844 310.191406 64.113281 311.164062 65.085938 C 311.589844 65.574219 312.199219 65.816406 312.808594 65.816406 Z M 312.808594 65.816406 " fill-opacity="1" fill-rule="nonzero"/><path fill="#ffffff" d="M 317.988281 68.558594 C 317.011719 69.53125 317.011719 71.054688 317.988281 72.03125 C 318.960938 73.003906 320.484375 73.003906 321.460938 72.03125 C 323.773438 69.714844 326.820312 68.4375 330.050781 68.4375 C 333.277344 68.4375 336.386719 69.714844 338.640625 72.03125 C 339.125 72.519531 339.734375 72.761719 340.34375 72.761719 C 340.953125 72.761719 341.625 72.519531 342.050781 72.03125 C 343.023438 71.054688 343.023438 69.53125 342.050781 68.558594 C 338.820312 65.328125 334.558594 63.5625 329.988281 63.5625 C 325.542969 63.5625 321.214844 65.328125 317.988281 68.558594 Z M 317.988281 68.558594 " fill-opacity="1" fill-rule="nonzero"/><path fill="#ffffff" d="M 335.226562 75.441406 C 333.828125 74.039062 332 73.308594 330.050781 73.308594 C 328.101562 73.308594 326.273438 74.039062 324.871094 75.441406 C 323.898438 76.417969 323.898438 77.941406 324.871094 78.914062 C 325.847656 79.890625 327.371094 79.890625 328.34375 78.914062 C 329.257812 78 330.902344 78 331.816406 78.914062 C 332.304688 79.402344 332.914062 79.644531 333.523438 79.644531 C 334.132812 79.644531 334.800781 79.402344 335.226562 78.914062 C 336.203125 77.941406 336.203125 76.417969 335.226562 75.441406 Z M 335.226562 75.441406 " fill-opacity="1" fill-rule="nonzero"/><path fill="#ffffff" d="M 93.875 117.171875 L 201.089844 117.171875 C 202.429688 117.171875 203.523438 116.074219 203.523438 114.734375 L 203.523438 51.378906 C 203.523438 50.039062 202.429688 48.941406 201.089844 48.941406 L 93.875 48.941406 C 92.535156 48.941406 91.4375 50.039062 91.4375 51.378906 L 91.4375 114.734375 C 91.4375 116.074219 92.535156 117.171875 93.875 117.171875 Z M 96.3125 53.816406 L 198.652344 53.816406 L 198.652344 112.296875 L 96.3125 112.296875 Z M 96.3125 53.816406 " fill-opacity="1" fill-rule="nonzero"/><path fill="#ffffff" d="M 322.921875 200.015625 L 293.683594 200.015625 C 292.34375 200.015625 291.246094 201.113281 291.246094 202.453125 L 291.246094 231.695312 C 291.246094 233.035156 292.34375 234.128906 293.683594 234.128906 L 322.921875 234.128906 C 324.261719 234.128906 325.359375 233.035156 325.359375 231.695312 L 325.359375 202.453125 C 325.359375 201.113281 324.261719 200.015625 322.921875 200.015625 Z M 320.484375 209.765625 L 315.613281 209.765625 L 315.613281 204.890625 L 320.484375 204.890625 Z M 310.738281 224.382812 L 310.738281 229.257812 L 305.867188 229.257812 L 305.867188 224.382812 Z M 296.117188 219.511719 L 296.117188 214.636719 L 320.484375 214.636719 L 320.484375 219.511719 Z M 305.867188 209.765625 L 305.867188 204.890625 L 310.738281 204.890625 L 310.738281 209.765625 Z M 300.992188 204.890625 L 300.992188 209.765625 L 296.117188 209.765625 L 296.117188 204.890625 Z M 296.117188 224.382812 L 300.992188 224.382812 L 300.992188 229.257812 L 296.117188 229.257812 Z M 315.613281 229.257812 L 315.613281 224.382812 L 320.484375 224.382812 L 320.484375 229.257812 Z M 315.613281 229.257812 " fill-opacity="1" fill-rule="nonzero"/><g fill="#ffffff" fill-opacity="1"><g transform="translate(56.594937, 357.400305)"><g><path d="M 15.140625 -17.25 C 16.316406 -17.25 17.34375 -17.394531 18.21875 -17.6875 C 19.101562 -17.976562 19.835938 -18.398438 20.421875 -18.953125 C 21.003906 -19.503906 21.4375 -20.175781 21.71875 -20.96875 C 22.007812 -21.757812 22.15625 -22.644531 22.15625 -23.625 C 22.15625 -24.550781 22.007812 -25.390625 21.71875 -26.140625 C 21.4375 -26.890625 21.007812 -27.53125 20.4375 -28.0625 C 19.863281 -28.59375 19.132812 -28.992188 18.25 -29.265625 C 17.375 -29.546875 16.335938 -29.6875 15.140625 -29.6875 L 10.3125 -29.6875 L 10.3125 -17.25 Z M 15.140625 -34.6875 C 17.453125 -34.6875 19.457031 -34.410156 21.15625 -33.859375 C 22.851562 -33.316406 24.25 -32.554688 25.34375 -31.578125 C 26.445312 -30.609375 27.265625 -29.441406 27.796875 -28.078125 C 28.335938 -26.722656 28.609375 -25.238281 28.609375 -23.625 C 28.609375 -21.945312 28.328125 -20.40625 27.765625 -19 C 27.210938 -17.601562 26.375 -16.398438 25.25 -15.390625 C 24.132812 -14.390625 22.734375 -13.609375 21.046875 -13.046875 C 19.359375 -12.484375 17.390625 -12.203125 15.140625 -12.203125 L 10.3125 -12.203125 L 10.3125 0 L 3.859375 0 L 3.859375 -34.6875 Z M 15.140625 -34.6875 "/></g></g></g><g fill="#ffffff" fill-opacity="1"><g transform="translate(86.290186, 357.400305)"><g><path d="M 36.9375 -17.34375 C 36.9375 -14.800781 36.515625 -12.445312 35.671875 -10.28125 C 34.835938 -8.113281 33.648438 -6.238281 32.109375 -4.65625 C 30.578125 -3.070312 28.734375 -1.832031 26.578125 -0.9375 C 24.421875 -0.0507812 22.019531 0.390625 19.375 0.390625 C 16.757812 0.390625 14.367188 -0.0507812 12.203125 -0.9375 C 10.046875 -1.832031 8.195312 -3.070312 6.65625 -4.65625 C 5.113281 -6.238281 3.914062 -8.113281 3.0625 -10.28125 C 2.21875 -12.445312 1.796875 -14.800781 1.796875 -17.34375 C 1.796875 -19.882812 2.21875 -22.238281 3.0625 -24.40625 C 3.914062 -26.570312 5.113281 -28.445312 6.65625 -30.03125 C 8.195312 -31.613281 10.046875 -32.847656 12.203125 -33.734375 C 14.367188 -34.617188 16.757812 -35.0625 19.375 -35.0625 C 21.132812 -35.0625 22.789062 -34.859375 24.34375 -34.453125 C 25.894531 -34.046875 27.316406 -33.46875 28.609375 -32.71875 C 29.910156 -31.976562 31.078125 -31.078125 32.109375 -30.015625 C 33.140625 -28.953125 34.015625 -27.765625 34.734375 -26.453125 C 35.453125 -25.140625 36 -23.71875 36.375 -22.1875 C 36.75 -20.65625 36.9375 -19.039062 36.9375 -17.34375 Z M 30.34375 -17.34375 C 30.34375 -19.238281 30.085938 -20.941406 29.578125 -22.453125 C 29.066406 -23.972656 28.335938 -25.257812 27.390625 -26.3125 C 26.441406 -27.363281 25.289062 -28.171875 23.9375 -28.734375 C 22.59375 -29.296875 21.070312 -29.578125 19.375 -29.578125 C 17.6875 -29.578125 16.164062 -29.296875 14.8125 -28.734375 C 13.457031 -28.171875 12.300781 -27.363281 11.34375 -26.3125 C 10.394531 -25.257812 9.664062 -23.972656 9.15625 -22.453125 C 8.644531 -20.941406 8.390625 -19.238281 8.390625 -17.34375 C 8.390625 -15.4375 8.644531 -13.726562 9.15625 -12.21875 C 9.664062 -10.707031 10.394531 -9.425781 11.34375 -8.375 C 12.300781 -7.332031 13.457031 -6.53125 14.8125 -5.96875 C 16.164062 -5.40625 17.6875 -5.125 19.375 -5.125 C 21.070312 -5.125 22.59375 -5.40625 23.9375 -5.96875 C 25.289062 -6.53125 26.441406 -7.332031 27.390625 -8.375 C 28.335938 -9.425781 29.066406 -10.707031 29.578125 -12.21875 C 30.085938 -13.726562 30.34375 -15.4375 30.34375 -17.34375 Z M 30.34375 -17.34375 "/></g></g></g><g fill="#ffffff" fill-opacity="1"><g transform="translate(125.052332, 357.400305)"><g><path d="M 22.328125 -28.375 C 22.140625 -28.039062 21.9375 -27.796875 21.71875 -27.640625 C 21.5 -27.492188 21.234375 -27.421875 20.921875 -27.421875 C 20.578125 -27.421875 20.207031 -27.539062 19.8125 -27.78125 C 19.425781 -28.03125 18.960938 -28.304688 18.421875 -28.609375 C 17.878906 -28.910156 17.242188 -29.1875 16.515625 -29.4375 C 15.785156 -29.6875 14.925781 -29.8125 13.9375 -29.8125 C 13.039062 -29.8125 12.253906 -29.703125 11.578125 -29.484375 C 10.910156 -29.273438 10.347656 -28.976562 9.890625 -28.59375 C 9.429688 -28.207031 9.085938 -27.742188 8.859375 -27.203125 C 8.640625 -26.671875 8.53125 -26.085938 8.53125 -25.453125 C 8.53125 -24.628906 8.757812 -23.945312 9.21875 -23.40625 C 9.675781 -22.863281 10.28125 -22.398438 11.03125 -22.015625 C 11.78125 -21.628906 12.632812 -21.285156 13.59375 -20.984375 C 14.550781 -20.679688 15.535156 -20.359375 16.546875 -20.015625 C 17.554688 -19.671875 18.539062 -19.269531 19.5 -18.8125 C 20.457031 -18.351562 21.3125 -17.773438 22.0625 -17.078125 C 22.8125 -16.390625 23.414062 -15.539062 23.875 -14.53125 C 24.332031 -13.53125 24.5625 -12.304688 24.5625 -10.859375 C 24.5625 -9.296875 24.289062 -7.828125 23.75 -6.453125 C 23.21875 -5.085938 22.4375 -3.894531 21.40625 -2.875 C 20.375 -1.863281 19.113281 -1.066406 17.625 -0.484375 C 16.132812 0.0976562 14.429688 0.390625 12.515625 0.390625 C 11.410156 0.390625 10.320312 0.28125 9.25 0.0625 C 8.1875 -0.15625 7.160156 -0.460938 6.171875 -0.859375 C 5.191406 -1.265625 4.269531 -1.742188 3.40625 -2.296875 C 2.539062 -2.859375 1.773438 -3.484375 1.109375 -4.171875 L 3 -7.265625 C 3.15625 -7.492188 3.359375 -7.679688 3.609375 -7.828125 C 3.867188 -7.984375 4.144531 -8.0625 4.4375 -8.0625 C 4.832031 -8.0625 5.257812 -7.894531 5.71875 -7.5625 C 6.1875 -7.238281 6.738281 -6.875 7.375 -6.46875 C 8.019531 -6.070312 8.769531 -5.707031 9.625 -5.375 C 10.476562 -5.050781 11.507812 -4.890625 12.71875 -4.890625 C 14.550781 -4.890625 15.96875 -5.320312 16.96875 -6.1875 C 17.976562 -7.0625 18.484375 -8.316406 18.484375 -9.953125 C 18.484375 -10.867188 18.253906 -11.613281 17.796875 -12.1875 C 17.347656 -12.757812 16.75 -13.238281 16 -13.625 C 15.25 -14.019531 14.394531 -14.351562 13.4375 -14.625 C 12.476562 -14.894531 11.5 -15.191406 10.5 -15.515625 C 9.507812 -15.835938 8.535156 -16.222656 7.578125 -16.671875 C 6.617188 -17.117188 5.765625 -17.703125 5.015625 -18.421875 C 4.265625 -19.140625 3.660156 -20.035156 3.203125 -21.109375 C 2.742188 -22.191406 2.515625 -23.523438 2.515625 -25.109375 C 2.515625 -26.367188 2.765625 -27.597656 3.265625 -28.796875 C 3.773438 -30.003906 4.507812 -31.070312 5.46875 -32 C 6.425781 -32.925781 7.609375 -33.664062 9.015625 -34.21875 C 10.421875 -34.78125 12.035156 -35.0625 13.859375 -35.0625 C 15.910156 -35.0625 17.796875 -34.738281 19.515625 -34.09375 C 21.242188 -33.457031 22.71875 -32.566406 23.9375 -31.421875 Z M 22.328125 -28.375 "/></g></g></g><g fill="#ffffff" fill-opacity="1"><g transform="translate(151.365488, 357.400305)"><g/></g></g><g fill="#ffffff" fill-opacity="1"><g transform="translate(163.022914, 357.400305)"><g><path d="M 8.46875 -21.59375 C 8.957031 -22.082031 9.476562 -22.535156 10.03125 -22.953125 C 10.582031 -23.378906 11.164062 -23.738281 11.78125 -24.03125 C 12.40625 -24.332031 13.066406 -24.566406 13.765625 -24.734375 C 14.472656 -24.898438 15.238281 -24.984375 16.0625 -24.984375 C 17.40625 -24.984375 18.597656 -24.753906 19.640625 -24.296875 C 20.679688 -23.847656 21.546875 -23.210938 22.234375 -22.390625 C 22.929688 -21.566406 23.460938 -20.582031 23.828125 -19.4375 C 24.191406 -18.289062 24.375 -17.03125 24.375 -15.65625 L 24.375 0 L 18.4375 0 L 18.4375 -15.65625 C 18.4375 -17.164062 18.09375 -18.332031 17.40625 -19.15625 C 16.71875 -19.976562 15.671875 -20.390625 14.265625 -20.390625 C 13.242188 -20.390625 12.285156 -20.15625 11.390625 -19.6875 C 10.492188 -19.226562 9.644531 -18.597656 8.84375 -17.796875 L 8.84375 0 L 2.921875 0 L 2.921875 -24.609375 L 6.546875 -24.609375 C 7.316406 -24.609375 7.820312 -24.25 8.0625 -23.53125 Z M 8.46875 -21.59375 "/></g></g></g><g fill="#ffffff" fill-opacity="1"><g transform="translate(190.079653, 357.400305)"><g><path d="M 15.921875 -10.5 C 14.210938 -10.425781 12.773438 -10.28125 11.609375 -10.0625 C 10.441406 -9.84375 9.503906 -9.566406 8.796875 -9.234375 C 8.097656 -8.898438 7.59375 -8.507812 7.28125 -8.0625 C 6.976562 -7.613281 6.828125 -7.125 6.828125 -6.59375 C 6.828125 -5.550781 7.132812 -4.804688 7.75 -4.359375 C 8.375 -3.910156 9.179688 -3.6875 10.171875 -3.6875 C 11.390625 -3.6875 12.441406 -3.90625 13.328125 -4.34375 C 14.210938 -4.789062 15.078125 -5.460938 15.921875 -6.359375 Z M 2.34375 -21.171875 C 5.175781 -23.765625 8.582031 -25.0625 12.5625 -25.0625 C 14 -25.0625 15.285156 -24.828125 16.421875 -24.359375 C 17.554688 -23.890625 18.515625 -23.234375 19.296875 -22.390625 C 20.085938 -21.546875 20.6875 -20.539062 21.09375 -19.375 C 21.5 -18.207031 21.703125 -16.929688 21.703125 -15.546875 L 21.703125 0 L 19.015625 0 C 18.460938 0 18.03125 -0.0820312 17.71875 -0.25 C 17.414062 -0.414062 17.175781 -0.753906 17 -1.265625 L 16.484375 -3.046875 C 15.859375 -2.484375 15.25 -1.988281 14.65625 -1.5625 C 14.0625 -1.144531 13.441406 -0.789062 12.796875 -0.5 C 12.160156 -0.21875 11.476562 0 10.75 0.15625 C 10.03125 0.3125 9.226562 0.390625 8.34375 0.390625 C 7.300781 0.390625 6.34375 0.25 5.46875 -0.03125 C 4.59375 -0.3125 3.832031 -0.734375 3.1875 -1.296875 C 2.550781 -1.859375 2.054688 -2.550781 1.703125 -3.375 C 1.347656 -4.207031 1.171875 -5.175781 1.171875 -6.28125 C 1.171875 -6.90625 1.273438 -7.523438 1.484375 -8.140625 C 1.691406 -8.753906 2.03125 -9.34375 2.5 -9.90625 C 2.976562 -10.46875 3.59375 -10.992188 4.34375 -11.484375 C 5.09375 -11.984375 6.015625 -12.414062 7.109375 -12.78125 C 8.203125 -13.144531 9.476562 -13.441406 10.9375 -13.671875 C 12.394531 -13.910156 14.054688 -14.054688 15.921875 -14.109375 L 15.921875 -15.546875 C 15.921875 -17.191406 15.566406 -18.410156 14.859375 -19.203125 C 14.160156 -19.992188 13.148438 -20.390625 11.828125 -20.390625 C 10.867188 -20.390625 10.070312 -20.273438 9.4375 -20.046875 C 8.800781 -19.828125 8.242188 -19.578125 7.765625 -19.296875 C 7.285156 -19.015625 6.847656 -18.757812 6.453125 -18.53125 C 6.066406 -18.3125 5.632812 -18.203125 5.15625 -18.203125 C 4.738281 -18.203125 4.382812 -18.3125 4.09375 -18.53125 C 3.8125 -18.75 3.582031 -19 3.40625 -19.28125 Z M 2.34375 -21.171875 "/></g></g></g><g fill="#ffffff" fill-opacity="1"><g transform="translate(214.425927, 357.400305)"><g/></g></g><g fill="#ffffff" fill-opacity="1"><g transform="translate(226.083354, 357.400305)"><g><path d="M 22.328125 -28.375 C 22.140625 -28.039062 21.9375 -27.796875 21.71875 -27.640625 C 21.5 -27.492188 21.234375 -27.421875 20.921875 -27.421875 C 20.578125 -27.421875 20.207031 -27.539062 19.8125 -27.78125 C 19.425781 -28.03125 18.960938 -28.304688 18.421875 -28.609375 C 17.878906 -28.910156 17.242188 -29.1875 16.515625 -29.4375 C 15.785156 -29.6875 14.925781 -29.8125 13.9375 -29.8125 C 13.039062 -29.8125 12.253906 -29.703125 11.578125 -29.484375 C 10.910156 -29.273438 10.347656 -28.976562 9.890625 -28.59375 C 9.429688 -28.207031 9.085938 -27.742188 8.859375 -27.203125 C 8.640625 -26.671875 8.53125 -26.085938 8.53125 -25.453125 C 8.53125 -24.628906 8.757812 -23.945312 9.21875 -23.40625 C 9.675781 -22.863281 10.28125 -22.398438 11.03125 -22.015625 C 11.78125 -21.628906 12.632812 -21.285156 13.59375 -20.984375 C 14.550781 -20.679688 15.535156 -20.359375 16.546875 -20.015625 C 17.554688 -19.671875 18.539062 -19.269531 19.5 -18.8125 C 20.457031 -18.351562 21.3125 -17.773438 22.0625 -17.078125 C 22.8125 -16.390625 23.414062 -15.539062 23.875 -14.53125 C 24.332031 -13.53125 24.5625 -12.304688 24.5625 -10.859375 C 24.5625 -9.296875 24.289062 -7.828125 23.75 -6.453125 C 23.21875 -5.085938 22.4375 -3.894531 21.40625 -2.875 C 20.375 -1.863281 19.113281 -1.066406 17.625 -0.484375 C 16.132812 0.0976562 14.429688 0.390625 12.515625 0.390625 C 11.410156 0.390625 10.320312 0.28125 9.25 0.0625 C 8.1875 -0.15625 7.160156 -0.460938 6.171875 -0.859375 C 5.191406 -1.265625 4.269531 -1.742188 3.40625 -2.296875 C 2.539062 -2.859375 1.773438 -3.484375 1.109375 -4.171875 L 3 -7.265625 C 3.15625 -7.492188 3.359375 -7.679688 3.609375 -7.828125 C 3.867188 -7.984375 4.144531 -8.0625 4.4375 -8.0625 C 4.832031 -8.0625 5.257812 -7.894531 5.71875 -7.5625 C 6.1875 -7.238281 6.738281 -6.875 7.375 -6.46875 C 8.019531 -6.070312 8.769531 -5.707031 9.625 -5.375 C 10.476562 -5.050781 11.507812 -4.890625 12.71875 -4.890625 C 14.550781 -4.890625 15.96875 -5.320312 16.96875 -6.1875 C 17.976562 -7.0625 18.484375 -8.316406 18.484375 -9.953125 C 18.484375 -10.867188 18.253906 -11.613281 17.796875 -12.1875 C 17.347656 -12.757812 16.75 -13.238281 16 -13.625 C 15.25 -14.019531 14.394531 -14.351562 13.4375 -14.625 C 12.476562 -14.894531 11.5 -15.191406 10.5 -15.515625 C 9.507812 -15.835938 8.535156 -16.222656 7.578125 -16.671875 C 6.617188 -17.117188 5.765625 -17.703125 5.015625 -18.421875 C 4.265625 -19.140625 3.660156 -20.035156 3.203125 -21.109375 C 2.742188 -22.191406 2.515625 -23.523438 2.515625 -25.109375 C 2.515625 -26.367188 2.765625 -27.597656 3.265625 -28.796875 C 3.773438 -30.003906 4.507812 -31.070312 5.46875 -32 C 6.425781 -32.925781 7.609375 -33.664062 9.015625 -34.21875 C 10.421875 -34.78125 12.035156 -35.0625 13.859375 -35.0625 C 15.910156 -35.0625 17.796875 -34.738281 19.515625 -34.09375 C 21.242188 -33.457031 22.71875 -32.566406 23.9375 -31.421875 Z M 22.328125 -28.375 "/></g></g></g><g fill="#ffffff" fill-opacity="1"><g transform="translate(252.39651, 357.400305)"><g><path d="M 28.078125 -29.375 L 17.625 -29.375 L 17.625 0 L 11.171875 0 L 11.171875 -29.375 L 0.71875 -29.375 L 0.71875 -34.6875 L 28.078125 -34.6875 Z M 28.078125 -29.375 "/></g></g></g><g fill="#ffffff" fill-opacity="1"><g transform="translate(281.180283, 357.400305)"><g><path d="M 36.9375 -17.34375 C 36.9375 -14.800781 36.515625 -12.445312 35.671875 -10.28125 C 34.835938 -8.113281 33.648438 -6.238281 32.109375 -4.65625 C 30.578125 -3.070312 28.734375 -1.832031 26.578125 -0.9375 C 24.421875 -0.0507812 22.019531 0.390625 19.375 0.390625 C 16.757812 0.390625 14.367188 -0.0507812 12.203125 -0.9375 C 10.046875 -1.832031 8.195312 -3.070312 6.65625 -4.65625 C 5.113281 -6.238281 3.914062 -8.113281 3.0625 -10.28125 C 2.21875 -12.445312 1.796875 -14.800781 1.796875 -17.34375 C 1.796875 -19.882812 2.21875 -22.238281 3.0625 -24.40625 C 3.914062 -26.570312 5.113281 -28.445312 6.65625 -30.03125 C 8.195312 -31.613281 10.046875 -32.847656 12.203125 -33.734375 C 14.367188 -34.617188 16.757812 -35.0625 19.375 -35.0625 C 21.132812 -35.0625 22.789062 -34.859375 24.34375 -34.453125 C 25.894531 -34.046875 27.316406 -33.46875 28.609375 -32.71875 C 29.910156 -31.976562 31.078125 -31.078125 32.109375 -30.015625 C 33.140625 -28.953125 34.015625 -27.765625 34.734375 -26.453125 C 35.453125 -25.140625 36 -23.71875 36.375 -22.1875 C 36.75 -20.65625 36.9375 -19.039062 36.9375 -17.34375 Z M 30.34375 -17.34375 C 30.34375 -19.238281 30.085938 -20.941406 29.578125 -22.453125 C 29.066406 -23.972656 28.335938 -25.257812 27.390625 -26.3125 C 26.441406 -27.363281 25.289062 -28.171875 23.9375 -28.734375 C 22.59375 -29.296875 21.070312 -29.578125 19.375 -29.578125 C 17.6875 -29.578125 16.164062 -29.296875 14.8125 -28.734375 C 13.457031 -28.171875 12.300781 -27.363281 11.34375 -26.3125 C 10.394531 -25.257812 9.664062 -23.972656 9.15625 -22.453125 C 8.644531 -20.941406 8.390625 -19.238281 8.390625 -17.34375 C 8.390625 -15.4375 8.644531 -13.726562 9.15625 -12.21875 C 9.664062 -10.707031 10.394531 -9.425781 11.34375 -8.375 C 12.300781 -7.332031 13.457031 -6.53125 14.8125 -5.96875 C 16.164062 -5.40625 17.6875 -5.125 19.375 -5.125 C 21.070312 -5.125 22.59375 -5.40625 23.9375 -5.96875 C 25.289062 -6.53125 26.441406 -7.332031 27.390625 -8.375 C 28.335938 -9.425781 29.066406 -10.707031 29.578125 -12.21875 C 30.085938 -13.726562 30.34375 -15.4375 30.34375 -17.34375 Z M 30.34375 -17.34375 "/></g></g></g><g fill="#ffffff" fill-opacity="1"><g transform="translate(319.942441, 357.400305)"><g><path d="M 27.671875 -8.171875 C 28.023438 -8.171875 28.335938 -8.035156 28.609375 -7.765625 L 31.15625 -5.015625 C 29.75 -3.273438 28.015625 -1.9375 25.953125 -1 C 23.898438 -0.0703125 21.4375 0.390625 18.5625 0.390625 C 15.988281 0.390625 13.671875 -0.046875 11.609375 -0.921875 C 9.554688 -1.804688 7.800781 -3.03125 6.34375 -4.59375 C 4.894531 -6.164062 3.78125 -8.039062 3 -10.21875 C 2.226562 -12.394531 1.84375 -14.769531 1.84375 -17.34375 C 1.84375 -19.945312 2.257812 -22.332031 3.09375 -24.5 C 3.925781 -26.664062 5.097656 -28.53125 6.609375 -30.09375 C 8.117188 -31.664062 9.921875 -32.882812 12.015625 -33.75 C 14.109375 -34.625 16.425781 -35.0625 18.96875 -35.0625 C 21.5 -35.0625 23.742188 -34.644531 25.703125 -33.8125 C 27.660156 -32.988281 29.328125 -31.90625 30.703125 -30.5625 L 28.546875 -27.5625 C 28.410156 -27.363281 28.242188 -27.191406 28.046875 -27.046875 C 27.847656 -26.910156 27.570312 -26.84375 27.21875 -26.84375 C 26.976562 -26.84375 26.726562 -26.910156 26.46875 -27.046875 C 26.21875 -27.179688 25.941406 -27.347656 25.640625 -27.546875 C 25.335938 -27.742188 24.984375 -27.960938 24.578125 -28.203125 C 24.179688 -28.441406 23.71875 -28.660156 23.1875 -28.859375 C 22.664062 -29.066406 22.054688 -29.238281 21.359375 -29.375 C 20.660156 -29.507812 19.859375 -29.578125 18.953125 -29.578125 C 17.398438 -29.578125 15.976562 -29.300781 14.6875 -28.75 C 13.40625 -28.195312 12.300781 -27.394531 11.375 -26.34375 C 10.445312 -25.300781 9.722656 -24.023438 9.203125 -22.515625 C 8.691406 -21.003906 8.4375 -19.28125 8.4375 -17.34375 C 8.4375 -15.394531 8.710938 -13.660156 9.265625 -12.140625 C 9.816406 -10.617188 10.5625 -9.335938 11.5 -8.296875 C 12.445312 -7.253906 13.5625 -6.457031 14.84375 -5.90625 C 16.125 -5.351562 17.5 -5.078125 18.96875 -5.078125 C 19.851562 -5.078125 20.648438 -5.125 21.359375 -5.21875 C 22.066406 -5.320312 22.71875 -5.476562 23.3125 -5.6875 C 23.914062 -5.894531 24.484375 -6.160156 25.015625 -6.484375 C 25.554688 -6.816406 26.09375 -7.222656 26.625 -7.703125 C 26.78125 -7.847656 26.945312 -7.960938 27.125 -8.046875 C 27.300781 -8.128906 27.484375 -8.171875 27.671875 -8.171875 Z M 27.671875 -8.171875 "/></g></g></g><g fill="#ffffff" fill-opacity="1"><g transform="translate(351.676548, 357.400305)"><g><path d="M 10.3125 -20.140625 L 11.828125 -20.140625 C 12.429688 -20.140625 12.929688 -20.222656 13.328125 -20.390625 C 13.734375 -20.566406 14.078125 -20.835938 14.359375 -21.203125 L 23.9375 -33.3125 C 24.332031 -33.820312 24.75 -34.175781 25.1875 -34.375 C 25.632812 -34.582031 26.191406 -34.6875 26.859375 -34.6875 L 32.421875 -34.6875 L 20.75 -20.265625 C 20.0625 -19.390625 19.347656 -18.765625 18.609375 -18.390625 C 19.140625 -18.203125 19.613281 -17.9375 20.03125 -17.59375 C 20.457031 -17.25 20.863281 -16.796875 21.25 -16.234375 L 33.296875 0 L 27.609375 0 C 26.835938 0 26.265625 -0.101562 25.890625 -0.3125 C 25.515625 -0.53125 25.195312 -0.847656 24.9375 -1.265625 L 15.140625 -14.078125 C 14.828125 -14.503906 14.472656 -14.804688 14.078125 -14.984375 C 13.679688 -15.160156 13.109375 -15.25 12.359375 -15.25 L 10.3125 -15.25 L 10.3125 0 L 3.859375 0 L 3.859375 -34.6875 L 10.3125 -34.6875 Z M 10.3125 -20.140625 "/></g></g></g><g fill="#ffffff" fill-opacity="1"><g transform="translate(121.117013, 415.678504)"><g><path d="M 14.03125 -4.203125 C 15.03125 -4.203125 15.867188 -4.320312 16.546875 -4.5625 C 17.222656 -4.800781 17.765625 -5.117188 18.171875 -5.515625 C 18.578125 -5.910156 18.867188 -6.375 19.046875 -6.90625 C 19.234375 -7.445312 19.328125 -8.015625 19.328125 -8.609375 C 19.328125 -9.234375 19.222656 -9.796875 19.015625 -10.296875 C 18.816406 -10.796875 18.503906 -11.222656 18.078125 -11.578125 C 17.660156 -11.929688 17.113281 -12.203125 16.4375 -12.390625 C 15.757812 -12.578125 14.953125 -12.671875 14.015625 -12.671875 L 8.59375 -12.671875 L 8.59375 -4.203125 Z M 8.59375 -24.734375 L 8.59375 -16.390625 L 12.875 -16.390625 C 14.707031 -16.390625 16.09375 -16.722656 17.03125 -17.390625 C 17.976562 -18.054688 18.453125 -19.113281 18.453125 -20.5625 C 18.453125 -22.070312 18.023438 -23.144531 17.171875 -23.78125 C 16.316406 -24.414062 14.984375 -24.734375 13.171875 -24.734375 Z M 13.171875 -28.890625 C 15.054688 -28.890625 16.671875 -28.707031 18.015625 -28.34375 C 19.367188 -27.988281 20.472656 -27.476562 21.328125 -26.8125 C 22.191406 -26.144531 22.820312 -25.335938 23.21875 -24.390625 C 23.625 -23.453125 23.828125 -22.390625 23.828125 -21.203125 C 23.828125 -20.523438 23.722656 -19.875 23.515625 -19.25 C 23.316406 -18.632812 23.007812 -18.054688 22.59375 -17.515625 C 22.175781 -16.972656 21.644531 -16.484375 21 -16.046875 C 20.351562 -15.609375 19.582031 -15.234375 18.6875 -14.921875 C 22.65625 -14.035156 24.640625 -11.894531 24.640625 -8.5 C 24.640625 -7.269531 24.40625 -6.132812 23.9375 -5.09375 C 23.46875 -4.050781 22.785156 -3.15625 21.890625 -2.40625 C 21.003906 -1.65625 19.90625 -1.066406 18.59375 -0.640625 C 17.289062 -0.210938 15.800781 0 14.125 0 L 3.21875 0 L 3.21875 -28.890625 Z M 13.171875 -28.890625 "/></g></g></g><g fill="#ffffff" fill-opacity="1"><g transform="translate(147.439502, 415.678504)"><g><path d="M 7.546875 -20.5 L 7.546875 0 L 2.59375 0 L 2.59375 -20.5 Z M 8.234375 -26.484375 C 8.234375 -26.054688 8.144531 -25.65625 7.96875 -25.28125 C 7.800781 -24.90625 7.570312 -24.578125 7.28125 -24.296875 C 7 -24.015625 6.664062 -23.789062 6.28125 -23.625 C 5.894531 -23.457031 5.476562 -23.375 5.03125 -23.375 C 4.601562 -23.375 4.195312 -23.457031 3.8125 -23.625 C 3.4375 -23.789062 3.109375 -24.015625 2.828125 -24.296875 C 2.554688 -24.578125 2.335938 -24.90625 2.171875 -25.28125 C 2.003906 -25.65625 1.921875 -26.054688 1.921875 -26.484375 C 1.921875 -26.921875 2.003906 -27.332031 2.171875 -27.71875 C 2.335938 -28.101562 2.554688 -28.4375 2.828125 -28.71875 C 3.109375 -29 3.4375 -29.222656 3.8125 -29.390625 C 4.195312 -29.554688 4.601562 -29.640625 5.03125 -29.640625 C 5.476562 -29.640625 5.894531 -29.554688 6.28125 -29.390625 C 6.664062 -29.222656 7 -29 7.28125 -28.71875 C 7.570312 -28.4375 7.800781 -28.101562 7.96875 -27.71875 C 8.144531 -27.332031 8.234375 -26.921875 8.234375 -26.484375 Z M 8.234375 -26.484375 "/></g></g></g><g fill="#ffffff" fill-opacity="1"><g transform="translate(157.592745, 415.678504)"><g><path d="M 17.171875 -18.46875 C 17.171875 -18.125 17.109375 -17.785156 16.984375 -17.453125 C 16.867188 -17.117188 16.707031 -16.84375 16.5 -16.625 L 6.78125 -3.796875 L 16.859375 -3.796875 L 16.859375 0 L 1.046875 0 L 1.046875 -2.0625 C 1.046875 -2.28125 1.097656 -2.546875 1.203125 -2.859375 C 1.304688 -3.179688 1.460938 -3.476562 1.671875 -3.75 L 11.515625 -16.734375 L 1.625 -16.734375 L 1.625 -20.5 L 17.171875 -20.5 Z M 17.171875 -18.46875 "/></g></g></g><g fill="#ffffff" fill-opacity="1"><g transform="translate(175.960519, 415.678504)"><g><path d="M 7.046875 -17.984375 C 7.460938 -18.398438 7.898438 -18.785156 8.359375 -19.140625 C 8.816406 -19.492188 9.300781 -19.789062 9.8125 -20.03125 C 10.332031 -20.28125 10.882812 -20.472656 11.46875 -20.609375 C 12.050781 -20.753906 12.691406 -20.828125 13.390625 -20.828125 C 14.503906 -20.828125 15.492188 -20.632812 16.359375 -20.25 C 17.234375 -19.875 17.957031 -19.34375 18.53125 -18.65625 C 19.113281 -17.96875 19.550781 -17.144531 19.84375 -16.1875 C 20.144531 -15.238281 20.296875 -14.191406 20.296875 -13.046875 L 20.296875 0 L 15.375 0 L 15.375 -13.046875 C 15.375 -14.296875 15.085938 -15.265625 14.515625 -15.953125 C 13.941406 -16.640625 13.066406 -16.984375 11.890625 -16.984375 C 11.035156 -16.984375 10.234375 -16.789062 9.484375 -16.40625 C 8.742188 -16.019531 8.039062 -15.492188 7.375 -14.828125 L 7.375 0 L 2.4375 0 L 2.4375 -20.5 L 5.453125 -20.5 C 6.097656 -20.5 6.519531 -20.203125 6.71875 -19.609375 Z M 7.046875 -17.984375 "/></g></g></g><g fill="#ffffff" fill-opacity="1"><g transform="translate(198.505518, 415.678504)"><g><path d="M 13.265625 -8.75 C 11.835938 -8.6875 10.640625 -8.5625 9.671875 -8.375 C 8.703125 -8.195312 7.921875 -7.96875 7.328125 -7.6875 C 6.742188 -7.414062 6.328125 -7.09375 6.078125 -6.71875 C 5.828125 -6.34375 5.703125 -5.9375 5.703125 -5.5 C 5.703125 -4.632812 5.957031 -4.015625 6.46875 -3.640625 C 6.976562 -3.265625 7.644531 -3.078125 8.46875 -3.078125 C 9.488281 -3.078125 10.363281 -3.257812 11.09375 -3.625 C 11.832031 -3.988281 12.554688 -4.546875 13.265625 -5.296875 Z M 1.953125 -17.640625 C 4.316406 -19.804688 7.15625 -20.890625 10.46875 -20.890625 C 11.664062 -20.890625 12.738281 -20.691406 13.6875 -20.296875 C 14.632812 -19.898438 15.429688 -19.351562 16.078125 -18.65625 C 16.734375 -17.957031 17.234375 -17.117188 17.578125 -16.140625 C 17.921875 -15.171875 18.09375 -14.109375 18.09375 -12.953125 L 18.09375 0 L 15.84375 0 C 15.375 0 15.015625 -0.0664062 14.765625 -0.203125 C 14.515625 -0.347656 14.316406 -0.632812 14.171875 -1.0625 L 13.734375 -2.53125 C 13.210938 -2.070312 12.703125 -1.664062 12.203125 -1.3125 C 11.710938 -0.957031 11.203125 -0.660156 10.671875 -0.421875 C 10.140625 -0.179688 9.566406 0 8.953125 0.125 C 8.347656 0.25 7.679688 0.3125 6.953125 0.3125 C 6.085938 0.3125 5.285156 0.195312 4.546875 -0.03125 C 3.816406 -0.257812 3.1875 -0.609375 2.65625 -1.078125 C 2.125 -1.546875 1.710938 -2.125 1.421875 -2.8125 C 1.128906 -3.507812 0.984375 -4.316406 0.984375 -5.234375 C 0.984375 -5.753906 1.066406 -6.269531 1.234375 -6.78125 C 1.410156 -7.289062 1.691406 -7.78125 2.078125 -8.25 C 2.472656 -8.71875 2.984375 -9.15625 3.609375 -9.5625 C 4.242188 -9.976562 5.015625 -10.335938 5.921875 -10.640625 C 6.835938 -10.953125 7.898438 -11.203125 9.109375 -11.390625 C 10.328125 -11.585938 11.710938 -11.707031 13.265625 -11.75 L 13.265625 -12.953125 C 13.265625 -14.328125 12.972656 -15.34375 12.390625 -16 C 11.804688 -16.65625 10.960938 -16.984375 9.859375 -16.984375 C 9.054688 -16.984375 8.390625 -16.890625 7.859375 -16.703125 C 7.335938 -16.515625 6.875 -16.304688 6.46875 -16.078125 C 6.070312 -15.847656 5.707031 -15.640625 5.375 -15.453125 C 5.050781 -15.265625 4.691406 -15.171875 4.296875 -15.171875 C 3.953125 -15.171875 3.660156 -15.257812 3.421875 -15.4375 C 3.179688 -15.613281 2.988281 -15.820312 2.84375 -16.0625 Z M 1.953125 -17.640625 "/></g></g></g><g fill="#ffffff" fill-opacity="1"><g transform="translate(218.792021, 415.678504)"><g/></g></g><g fill="#ffffff" fill-opacity="1"><g transform="translate(228.505556, 415.678504)"><g><path d="M 15.640625 -12.609375 C 15.640625 -13.242188 15.550781 -13.84375 15.375 -14.40625 C 15.195312 -14.976562 14.925781 -15.476562 14.5625 -15.90625 C 14.207031 -16.332031 13.753906 -16.664062 13.203125 -16.90625 C 12.648438 -17.15625 12.003906 -17.28125 11.265625 -17.28125 C 9.847656 -17.28125 8.726562 -16.875 7.90625 -16.0625 C 7.082031 -15.25 6.554688 -14.097656 6.328125 -12.609375 Z M 6.234375 -9.625 C 6.316406 -8.570312 6.503906 -7.660156 6.796875 -6.890625 C 7.085938 -6.128906 7.472656 -5.5 7.953125 -5 C 8.429688 -4.5 9 -4.125 9.65625 -3.875 C 10.320312 -3.632812 11.050781 -3.515625 11.84375 -3.515625 C 12.644531 -3.515625 13.332031 -3.609375 13.90625 -3.796875 C 14.488281 -3.984375 15 -4.1875 15.4375 -4.40625 C 15.875 -4.632812 16.253906 -4.84375 16.578125 -5.03125 C 16.898438 -5.21875 17.21875 -5.3125 17.53125 -5.3125 C 17.9375 -5.3125 18.242188 -5.160156 18.453125 -4.859375 L 19.859375 -3.0625 C 19.316406 -2.414062 18.703125 -1.875 18.015625 -1.4375 C 17.335938 -1.007812 16.628906 -0.664062 15.890625 -0.40625 C 15.148438 -0.144531 14.394531 0.0351562 13.625 0.140625 C 12.863281 0.242188 12.125 0.296875 11.40625 0.296875 C 9.976562 0.296875 8.648438 0.0625 7.421875 -0.40625 C 6.203125 -0.882812 5.140625 -1.582031 4.234375 -2.5 C 3.328125 -3.425781 2.613281 -4.570312 2.09375 -5.9375 C 1.570312 -7.3125 1.3125 -8.894531 1.3125 -10.6875 C 1.3125 -12.09375 1.535156 -13.410156 1.984375 -14.640625 C 2.441406 -15.867188 3.09375 -16.9375 3.9375 -17.84375 C 4.789062 -18.757812 5.828125 -19.484375 7.046875 -20.015625 C 8.265625 -20.554688 9.640625 -20.828125 11.171875 -20.828125 C 12.460938 -20.828125 13.65625 -20.617188 14.75 -20.203125 C 15.84375 -19.785156 16.78125 -19.179688 17.5625 -18.390625 C 18.351562 -17.597656 18.96875 -16.625 19.40625 -15.46875 C 19.851562 -14.320312 20.078125 -13.007812 20.078125 -11.53125 C 20.078125 -10.78125 20 -10.273438 19.84375 -10.015625 C 19.6875 -9.753906 19.378906 -9.625 18.921875 -9.625 Z M 6.234375 -9.625 "/></g></g></g><g fill="#ffffff" fill-opacity="1"><g transform="translate(249.851354, 415.678504)"><g><path d="M 13.265625 -8.75 C 11.835938 -8.6875 10.640625 -8.5625 9.671875 -8.375 C 8.703125 -8.195312 7.921875 -7.96875 7.328125 -7.6875 C 6.742188 -7.414062 6.328125 -7.09375 6.078125 -6.71875 C 5.828125 -6.34375 5.703125 -5.9375 5.703125 -5.5 C 5.703125 -4.632812 5.957031 -4.015625 6.46875 -3.640625 C 6.976562 -3.265625 7.644531 -3.078125 8.46875 -3.078125 C 9.488281 -3.078125 10.363281 -3.257812 11.09375 -3.625 C 11.832031 -3.988281 12.554688 -4.546875 13.265625 -5.296875 Z M 1.953125 -17.640625 C 4.316406 -19.804688 7.15625 -20.890625 10.46875 -20.890625 C 11.664062 -20.890625 12.738281 -20.691406 13.6875 -20.296875 C 14.632812 -19.898438 15.429688 -19.351562 16.078125 -18.65625 C 16.734375 -17.957031 17.234375 -17.117188 17.578125 -16.140625 C 17.921875 -15.171875 18.09375 -14.109375 18.09375 -12.953125 L 18.09375 0 L 15.84375 0 C 15.375 0 15.015625 -0.0664062 14.765625 -0.203125 C 14.515625 -0.347656 14.316406 -0.632812 14.171875 -1.0625 L 13.734375 -2.53125 C 13.210938 -2.070312 12.703125 -1.664062 12.203125 -1.3125 C 11.710938 -0.957031 11.203125 -0.660156 10.671875 -0.421875 C 10.140625 -0.179688 9.566406 0 8.953125 0.125 C 8.347656 0.25 7.679688 0.3125 6.953125 0.3125 C 6.085938 0.3125 5.285156 0.195312 4.546875 -0.03125 C 3.816406 -0.257812 3.1875 -0.609375 2.65625 -1.078125 C 2.125 -1.546875 1.710938 -2.125 1.421875 -2.8125 C 1.128906 -3.507812 0.984375 -4.316406 0.984375 -5.234375 C 0.984375 -5.753906 1.066406 -6.269531 1.234375 -6.78125 C 1.410156 -7.289062 1.691406 -7.78125 2.078125 -8.25 C 2.472656 -8.71875 2.984375 -9.15625 3.609375 -9.5625 C 4.242188 -9.976562 5.015625 -10.335938 5.921875 -10.640625 C 6.835938 -10.953125 7.898438 -11.203125 9.109375 -11.390625 C 10.328125 -11.585938 11.710938 -11.707031 13.265625 -11.75 L 13.265625 -12.953125 C 13.265625 -14.328125 12.972656 -15.34375 12.390625 -16 C 11.804688 -16.65625 10.960938 -16.984375 9.859375 -16.984375 C 9.054688 -16.984375 8.390625 -16.890625 7.859375 -16.703125 C 7.335938 -16.515625 6.875 -16.304688 6.46875 -16.078125 C 6.070312 -15.847656 5.707031 -15.640625 5.375 -15.453125 C 5.050781 -15.265625 4.691406 -15.171875 4.296875 -15.171875 C 3.953125 -15.171875 3.660156 -15.257812 3.421875 -15.4375 C 3.179688 -15.613281 2.988281 -15.820312 2.84375 -16.0625 Z M 1.953125 -17.640625 "/></g></g></g><g fill="#ffffff" fill-opacity="1"><g transform="translate(270.137858, 415.678504)"><g><path d="M 14.953125 -16.5 C 14.816406 -16.289062 14.675781 -16.140625 14.53125 -16.046875 C 14.382812 -15.960938 14.195312 -15.921875 13.96875 -15.921875 C 13.726562 -15.921875 13.472656 -15.988281 13.203125 -16.125 C 12.929688 -16.257812 12.613281 -16.410156 12.25 -16.578125 C 11.882812 -16.742188 11.472656 -16.894531 11.015625 -17.03125 C 10.554688 -17.164062 10.015625 -17.234375 9.390625 -17.234375 C 8.421875 -17.234375 7.660156 -17.023438 7.109375 -16.609375 C 6.554688 -16.191406 6.28125 -15.648438 6.28125 -14.984375 C 6.28125 -14.546875 6.421875 -14.175781 6.703125 -13.875 C 6.992188 -13.570312 7.375 -13.304688 7.84375 -13.078125 C 8.3125 -12.859375 8.847656 -12.65625 9.453125 -12.46875 C 10.054688 -12.289062 10.664062 -12.097656 11.28125 -11.890625 C 11.894531 -11.679688 12.503906 -11.4375 13.109375 -11.15625 C 13.710938 -10.882812 14.25 -10.539062 14.71875 -10.125 C 15.1875 -9.707031 15.5625 -9.203125 15.84375 -8.609375 C 16.132812 -8.023438 16.28125 -7.320312 16.28125 -6.5 C 16.28125 -5.507812 16.101562 -4.597656 15.75 -3.765625 C 15.40625 -2.929688 14.882812 -2.210938 14.1875 -1.609375 C 13.5 -1.003906 12.644531 -0.53125 11.625 -0.1875 C 10.601562 0.144531 9.425781 0.3125 8.09375 0.3125 C 7.382812 0.3125 6.691406 0.25 6.015625 0.125 C 5.347656 0 4.703125 -0.171875 4.078125 -0.390625 C 3.460938 -0.617188 2.890625 -0.882812 2.359375 -1.1875 C 1.835938 -1.5 1.378906 -1.835938 0.984375 -2.203125 L 2.125 -4.078125 C 2.269531 -4.304688 2.441406 -4.476562 2.640625 -4.59375 C 2.835938 -4.71875 3.085938 -4.78125 3.390625 -4.78125 C 3.703125 -4.78125 3.992188 -4.691406 4.265625 -4.515625 C 4.535156 -4.335938 4.847656 -4.148438 5.203125 -3.953125 C 5.566406 -3.753906 5.992188 -3.566406 6.484375 -3.390625 C 6.972656 -3.222656 7.585938 -3.140625 8.328125 -3.140625 C 8.921875 -3.140625 9.425781 -3.207031 9.84375 -3.34375 C 10.257812 -3.488281 10.601562 -3.671875 10.875 -3.890625 C 11.15625 -4.117188 11.359375 -4.382812 11.484375 -4.6875 C 11.609375 -4.988281 11.671875 -5.296875 11.671875 -5.609375 C 11.671875 -6.085938 11.523438 -6.476562 11.234375 -6.78125 C 10.953125 -7.09375 10.570312 -7.363281 10.09375 -7.59375 C 9.625 -7.820312 9.085938 -8.023438 8.484375 -8.203125 C 7.878906 -8.378906 7.257812 -8.570312 6.625 -8.78125 C 5.988281 -9 5.367188 -9.25 4.765625 -9.53125 C 4.160156 -9.820312 3.617188 -10.1875 3.140625 -10.625 C 2.671875 -11.070312 2.289062 -11.613281 2 -12.25 C 1.71875 -12.882812 1.578125 -13.65625 1.578125 -14.5625 C 1.578125 -15.40625 1.742188 -16.207031 2.078125 -16.96875 C 2.410156 -17.726562 2.898438 -18.390625 3.546875 -18.953125 C 4.191406 -19.515625 5 -19.96875 5.96875 -20.3125 C 6.9375 -20.65625 8.050781 -20.828125 9.3125 -20.828125 C 10.726562 -20.828125 12.015625 -20.59375 13.171875 -20.125 C 14.328125 -19.65625 15.289062 -19.039062 16.0625 -18.28125 Z M 14.953125 -16.5 "/></g></g></g><g fill="#ffffff" fill-opacity="1"><g transform="translate(287.706166, 415.678504)"><g><path d="M 21.0625 -20.5 L 9.890625 5.640625 C 9.742188 5.984375 9.550781 6.242188 9.3125 6.421875 C 9.082031 6.597656 8.726562 6.6875 8.25 6.6875 L 4.578125 6.6875 L 8.40625 -1.53125 L 0.125 -20.5 L 4.453125 -20.5 C 4.835938 -20.5 5.140625 -20.40625 5.359375 -20.21875 C 5.585938 -20.03125 5.753906 -19.816406 5.859375 -19.578125 L 10.21875 -8.953125 C 10.363281 -8.585938 10.484375 -8.222656 10.578125 -7.859375 C 10.679688 -7.503906 10.78125 -7.144531 10.875 -6.78125 C 10.988281 -7.144531 11.101562 -7.507812 11.21875 -7.875 C 11.34375 -8.25 11.476562 -8.613281 11.625 -8.96875 L 15.75 -19.578125 C 15.851562 -19.847656 16.023438 -20.066406 16.265625 -20.234375 C 16.515625 -20.410156 16.796875 -20.5 17.109375 -20.5 Z M 21.0625 -20.5 "/></g></g></g><g fill="#ffffff" fill-opacity="1"><g transform="translate(308.792136, 415.678504)"><g><path d="M 7.953125 -28.890625 L 7.953125 -17.46875 C 7.953125 -16.25 7.890625 -15.054688 7.765625 -13.890625 C 7.648438 -12.734375 7.5 -11.5 7.3125 -10.1875 L 3.953125 -10.1875 C 3.765625 -11.5 3.609375 -12.734375 3.484375 -13.890625 C 3.367188 -15.054688 3.3125 -16.25 3.3125 -17.46875 L 3.3125 -28.890625 Z M 2.53125 -2.71875 C 2.53125 -3.132812 2.609375 -3.523438 2.765625 -3.890625 C 2.921875 -4.265625 3.132812 -4.582031 3.40625 -4.84375 C 3.675781 -5.113281 4 -5.328125 4.375 -5.484375 C 4.75 -5.648438 5.148438 -5.734375 5.578125 -5.734375 C 5.984375 -5.734375 6.375 -5.648438 6.75 -5.484375 C 7.125 -5.328125 7.445312 -5.113281 7.71875 -4.84375 C 8 -4.582031 8.21875 -4.265625 8.375 -3.890625 C 8.53125 -3.523438 8.609375 -3.132812 8.609375 -2.71875 C 8.609375 -2.289062 8.53125 -1.894531 8.375 -1.53125 C 8.21875 -1.164062 8 -0.847656 7.71875 -0.578125 C 7.445312 -0.316406 7.125 -0.109375 6.75 0.046875 C 6.375 0.203125 5.984375 0.28125 5.578125 0.28125 C 5.148438 0.28125 4.75 0.203125 4.375 0.046875 C 4 -0.109375 3.675781 -0.316406 3.40625 -0.578125 C 3.132812 -0.847656 2.921875 -1.164062 2.765625 -1.53125 C 2.609375 -1.894531 2.53125 -2.289062 2.53125 -2.71875 Z M 2.53125 -2.71875 "/></g></g></g></svg>