<svg width="24" height="21" viewBox="0 0 24 21" fill="none" xmlns="http://www.w3.org/2000/svg">
<path d="M17.7141 3.46406L23.4703 9.22031C23.8078 9.55781 24 10.0219 24 10.5C24 10.9781 23.8078 11.4422 23.4703 11.7797L17.7141 17.5359C17.4141 17.8359 17.0109 18 16.5891 18C15.7125 18 15 17.2875 15 16.4109V13.5H9C8.17031 13.5 7.5 12.8297 7.5 12V9C7.5 8.17031 8.17031 7.5 9 7.5H15V4.58906C15 3.7125 15.7125 3 16.5891 3C17.0109 3 17.4141 3.16875 17.7141 3.46406ZM7.5 3H4.5C3.67031 3 3 3.67031 3 4.5V16.5C3 17.3297 3.67031 18 4.5 18H7.5C8.32969 18 9 18.6703 9 19.5C9 20.3297 8.32969 21 7.5 21H4.5C2.01562 21 0 18.9844 0 16.5V4.5C0 2.01562 2.01562 0 4.5 0H7.5C8.32969 0 9 0.670312 9 1.5C9 2.32969 8.32969 3 7.5 3Z" fill="white"/>
</svg>
