<svg width="80" height="80" viewBox="0 0 80 80" fill="none" xmlns="http://www.w3.org/2000/svg">
<rect x="0.5" y="0.5" width="79" height="79" rx="11.5" stroke="white"/>
<g clip-path="url(#clip0_646_105221)">
<path d="M24.4052 28.9305H21.7578C21.3933 28.9305 21.0956 29.2292 21.0956 29.5938V30.9197C21.0956 31.2843 21.3933 31.583 21.7578 31.583H24.4052C24.7692 31.583 25.0669 31.2843 25.0669 30.9197V29.5938C25.0669 29.2292 24.7692 28.9305 24.4052 28.9305ZM21.7578 30.9197V29.5938H24.4052V30.9197H21.7578Z" fill="white"/>
<path d="M29.0386 28.9305H26.3911C26.0266 28.9305 25.729 29.2292 25.729 29.5938V30.9197C25.729 31.2843 26.0266 31.583 26.3911 31.583H29.0386C29.4026 31.583 29.7002 31.2843 29.7002 30.9197V29.5938C29.7002 29.2292 29.4026 28.9305 29.0386 28.9305ZM26.3911 30.9197V29.5938H29.0386V30.9197H26.3911Z" fill="white"/>
<path d="M33.672 28.9305H31.0245C30.66 28.9305 30.3624 29.2292 30.3624 29.5938V30.9197C30.3624 31.2843 30.66 31.583 31.0245 31.583H33.672C34.036 31.583 34.3341 31.2843 34.3341 30.9197V29.5938C34.3341 29.2292 34.036 28.9305 33.672 28.9305ZM31.0245 30.9197V29.5938H33.672V30.9197H31.0245Z" fill="white"/>
<path d="M38.3054 28.9305H35.6579C35.2939 28.9305 34.9958 29.2292 34.9958 29.5938V30.9197C34.9958 31.2843 35.2939 31.583 35.6579 31.583H38.3054C38.6694 31.583 38.9675 31.2843 38.9675 30.9197V29.5938C38.9675 29.2292 38.6694 28.9305 38.3054 28.9305ZM35.6579 30.9197V29.5938H38.3054V30.9197H35.6579Z" fill="white"/>
<path d="M24.0742 33.5717H22.0883C21.5423 33.5717 21.0956 34.0192 21.0956 34.5666V35.8926C21.0956 36.4395 21.5423 36.887 22.0883 36.887H24.0742C24.6201 36.887 25.0669 36.4395 25.0669 35.8926V34.5666C25.0669 34.0192 24.6201 33.5717 24.0742 33.5717ZM24.4052 35.8926C24.4052 36.0749 24.2562 36.2243 24.0742 36.2243H22.0883C21.9063 36.2243 21.7578 36.0749 21.7578 35.8926V34.5666C21.7578 34.3844 21.9063 34.235 22.0883 34.235H24.0742C24.2562 34.235 24.4052 34.3844 24.4052 34.5666V35.8926Z" fill="white"/>
<path d="M24.0742 37.5503H22.0883C21.5423 37.5503 21.0956 37.9978 21.0956 38.5446V39.8706C21.0956 40.418 21.5423 40.8655 22.0883 40.8655H24.0742C24.6201 40.8655 25.0669 40.418 25.0669 39.8706V38.5446C25.0669 37.9978 24.6201 37.5503 24.0742 37.5503ZM24.4052 39.8706C24.4052 40.0529 24.2562 40.2023 24.0742 40.2023H22.0883C21.9063 40.2023 21.7578 40.0529 21.7578 39.8706V38.5446C21.7578 38.3624 21.9063 38.213 22.0883 38.213H24.0742C24.2562 38.213 24.4052 38.3624 24.4052 38.5446V39.8706Z" fill="white"/>
<path d="M24.0742 41.5283H22.0883C21.5423 41.5283 21.0956 41.9758 21.0956 42.5232V43.8492C21.0956 44.396 21.5423 44.8435 22.0883 44.8435H24.0742C24.6201 44.8435 25.0669 44.396 25.0669 43.8492V42.5232C25.0669 41.9758 24.6201 41.5283 24.0742 41.5283ZM24.4052 43.8492C24.4052 44.0315 24.2562 44.1808 24.0742 44.1808H22.0883C21.9063 44.1808 21.7578 44.0315 21.7578 43.8492V42.5232C21.7578 42.3409 21.9063 42.1915 22.0883 42.1915H24.0742C24.2562 42.1915 24.4052 42.3409 24.4052 42.5232V43.8492Z" fill="white"/>
<path d="M24.0742 45.5068H22.0883C21.5423 45.5068 21.0956 45.9543 21.0956 46.5012V47.8272C21.0956 48.3746 21.5423 48.8221 22.0883 48.8221H24.0742C24.6201 48.8221 25.0669 48.3746 25.0669 47.8272V46.5012C25.0669 45.9543 24.6201 45.5068 24.0742 45.5068ZM24.4052 47.8272C24.4052 48.0095 24.2562 48.1588 24.0742 48.1588H22.0883C21.9063 48.1588 21.7578 48.0095 21.7578 47.8272V46.5012C21.7578 46.3189 21.9063 46.1695 22.0883 46.1695H24.0742C24.2562 46.1695 24.4052 46.3189 24.4052 46.5012V47.8272Z" fill="white"/>
<path d="M28.7076 33.5717H26.7217C26.1757 33.5717 25.729 34.0192 25.729 34.5666V35.8926C25.729 36.4395 26.1757 36.887 26.7217 36.887H28.7076C29.2535 36.887 29.7002 36.4395 29.7002 35.8926V34.5666C29.7002 34.0192 29.2535 33.5717 28.7076 33.5717ZM29.0386 35.8926C29.0386 36.0749 28.8896 36.2243 28.7076 36.2243H26.7217C26.5397 36.2243 26.3911 36.0749 26.3911 35.8926V34.5666C26.3911 34.3844 26.5397 34.235 26.7217 34.235H28.7076C28.8896 34.235 29.0386 34.3844 29.0386 34.5666V35.8926Z" fill="white"/>
<path d="M28.7076 37.5503H26.7217C26.1757 37.5503 25.729 37.9978 25.729 38.5446V39.8706C25.729 40.418 26.1757 40.8655 26.7217 40.8655H28.7076C29.2535 40.8655 29.7002 40.418 29.7002 39.8706V38.5446C29.7002 37.9978 29.2535 37.5503 28.7076 37.5503ZM29.0386 39.8706C29.0386 40.0529 28.8896 40.2023 28.7076 40.2023H26.7217C26.5397 40.2023 26.3911 40.0529 26.3911 39.8706V38.5446C26.3911 38.3624 26.5397 38.213 26.7217 38.213H28.7076C28.8896 38.213 29.0386 38.3624 29.0386 38.5446V39.8706Z" fill="white"/>
<path d="M28.7076 41.5283H26.7217C26.1757 41.5283 25.729 41.9758 25.729 42.5232V43.8492C25.729 44.396 26.1757 44.8435 26.7217 44.8435H28.7076C29.2535 44.8435 29.7002 44.396 29.7002 43.8492V42.5232C29.7002 41.9758 29.2535 41.5283 28.7076 41.5283ZM29.0386 43.8492C29.0386 44.0315 28.8896 44.1808 28.7076 44.1808H26.7217C26.5397 44.1808 26.3911 44.0315 26.3911 43.8492V42.5232C26.3911 42.3409 26.5397 42.1915 26.7217 42.1915H28.7076C28.8896 42.1915 29.0386 42.3409 29.0386 42.5232V43.8492Z" fill="white"/>
<path d="M28.7076 45.5068H26.7217C26.1757 45.5068 25.729 45.9543 25.729 46.5012V47.8272C25.729 48.3746 26.1757 48.8221 26.7217 48.8221H28.7076C29.2535 48.8221 29.7002 48.3746 29.7002 47.8272V46.5012C29.7002 45.9543 29.2535 45.5068 28.7076 45.5068ZM29.0386 47.8272C29.0386 48.0095 28.8896 48.1588 28.7076 48.1588H26.7217C26.5397 48.1588 26.3911 48.0095 26.3911 47.8272V46.5012C26.3911 46.3189 26.5397 46.1695 26.7217 46.1695H28.7076C28.8896 46.1695 29.0386 46.3189 29.0386 46.5012V47.8272Z" fill="white"/>
<path d="M33.3409 33.5717H31.355C30.8091 33.5717 30.3624 34.0192 30.3624 34.5666V35.8926C30.3624 36.4395 30.8091 36.887 31.355 36.887H33.3409C33.8869 36.887 34.3341 36.4395 34.3341 35.8926V34.5666C34.3341 34.0192 33.8869 33.5717 33.3409 33.5717ZM33.672 35.8926C33.672 36.0749 33.5229 36.2243 33.3409 36.2243H31.355C31.1731 36.2243 31.0245 36.0749 31.0245 35.8926V34.5666C31.0245 34.3844 31.1731 34.235 31.355 34.235H33.3409C33.5229 34.235 33.672 34.3844 33.672 34.5666V35.8926Z" fill="white"/>
<path d="M37.9743 33.5717H35.9884C35.4425 33.5717 34.9958 34.0192 34.9958 34.5666V35.8926C34.9958 36.4395 35.4425 36.887 35.9884 36.887H37.9743C38.5203 36.887 38.9675 36.4395 38.9675 35.8926V34.5666C38.9675 34.0192 38.5203 33.5717 37.9743 33.5717ZM38.3054 35.8926C38.3054 36.0749 38.1563 36.2243 37.9743 36.2243H35.9884C35.8065 36.2243 35.6579 36.0749 35.6579 35.8926V34.5666C35.6579 34.3844 35.8065 34.235 35.9884 34.235H37.9743C38.1563 34.235 38.3054 34.3844 38.3054 34.5666V35.8926Z" fill="white"/>
<path d="M37.9743 37.5503H35.9884C35.4425 37.5503 34.9958 37.9978 34.9958 38.5446V39.8706C34.9958 40.418 35.4425 40.8655 35.9884 40.8655H37.9743C38.5203 40.8655 38.9675 40.418 38.9675 39.8706V38.5446C38.9675 37.9978 38.5203 37.5503 37.9743 37.5503ZM38.3054 39.8706C38.3054 40.0529 38.1563 40.2023 37.9743 40.2023H35.9884C35.8065 40.2023 35.6579 40.0529 35.6579 39.8706V38.5446C35.6579 38.3624 35.8065 38.213 35.9884 38.213H37.9743C38.1563 38.213 38.3054 38.3624 38.3054 38.5446V39.8706Z" fill="white"/>
<path d="M37.9743 41.5283H35.9884C35.4425 41.5283 34.9958 41.9758 34.9958 42.5232V43.8492C34.9958 44.396 35.4425 44.8435 35.9884 44.8435H37.9743C38.5203 44.8435 38.9675 44.396 38.9675 43.8492V42.5232C38.9675 41.9758 38.5203 41.5283 37.9743 41.5283ZM38.3054 43.8492C38.3054 44.0315 38.1563 44.1808 37.9743 44.1808H35.9884C35.8065 44.1808 35.6579 44.0315 35.6579 43.8492V42.5232C35.6579 42.3409 35.8065 42.1915 35.9884 42.1915H37.9743C38.1563 42.1915 38.3054 42.3409 38.3054 42.5232V43.8492Z" fill="white"/>
<path d="M37.9743 45.5068H35.9884C35.4425 45.5068 34.9958 45.9543 34.9958 46.5012V47.8272C34.9958 48.3746 35.4425 48.8221 35.9884 48.8221H37.9743C38.5203 48.8221 38.9675 48.3746 38.9675 47.8272V46.5012C38.9675 45.9543 38.5203 45.5068 37.9743 45.5068ZM38.3054 47.8272C38.3054 48.0095 38.1563 48.1588 37.9743 48.1588H35.9884C35.8065 48.1588 35.6579 48.0095 35.6579 47.8272V46.5012C35.6579 46.3189 35.8065 46.1695 35.9884 46.1695H37.9743C38.1563 46.1695 38.3054 46.3189 38.3054 46.5012V47.8272Z" fill="white"/>
<path d="M33.3409 37.5503H31.355C30.8091 37.5503 30.3624 37.9978 30.3624 38.5446V39.8706C30.3624 40.418 30.8091 40.8655 31.355 40.8655H33.3409C33.8869 40.8655 34.3341 40.418 34.3341 39.8706V38.5446C34.3341 37.9978 33.8869 37.5503 33.3409 37.5503ZM33.672 39.8706C33.672 40.0529 33.5229 40.2023 33.3409 40.2023H31.355C31.1731 40.2023 31.0245 40.0529 31.0245 39.8706V38.5446C31.0245 38.3624 31.1731 38.213 31.355 38.213H33.3409C33.5229 38.213 33.672 38.3624 33.672 38.5446V39.8706Z" fill="white"/>
<path d="M33.3409 41.5283H31.355C30.8091 41.5283 30.3624 41.9758 30.3624 42.5232V43.8492C30.3624 44.396 30.8091 44.8435 31.355 44.8435H33.3409C33.8869 44.8435 34.3341 44.396 34.3341 43.8492V42.5232C34.3341 41.9758 33.8869 41.5283 33.3409 41.5283ZM33.672 43.8492C33.672 44.0315 33.5229 44.1808 33.3409 44.1808H31.355C31.1731 44.1808 31.0245 44.0315 31.0245 43.8492V42.5232C31.0245 42.3409 31.1731 42.1915 31.355 42.1915H33.3409C33.5229 42.1915 33.672 42.3409 33.672 42.5232V43.8492Z" fill="white"/>
<path d="M33.3409 45.5068H31.355C30.8091 45.5068 30.3624 45.9543 30.3624 46.5012V47.8272C30.3624 48.3746 30.8091 48.8221 31.355 48.8221H33.3409C33.8869 48.8221 34.3341 48.3746 34.3341 47.8272V46.5012C34.3341 45.9543 33.8869 45.5068 33.3409 45.5068ZM33.672 47.8272C33.672 48.0095 33.5229 48.1588 33.3409 48.1588H31.355C31.1731 48.1588 31.0245 48.0095 31.0245 47.8272V46.5012C31.0245 46.3189 31.1731 46.1695 31.355 46.1695H33.3409C33.5229 46.1695 33.672 46.3189 33.672 46.5012V47.8272Z" fill="white"/>
<mask id="mask0_646_105221" style="mask-type:luminance" maskUnits="userSpaceOnUse" x="19" y="11" width="24" height="40">
<path d="M19.1097 11.017H42.326V50.7906H19.1097V11.017Z" fill="white"/>
</mask>
<g mask="url(#mask0_646_105221)">
<path d="M41.9461 18.9852H40.9529V14.3854C40.9529 12.8436 39.9103 11.5011 38.4131 11.128C38.1483 11.0616 37.8751 11.0287 37.6019 11.0287H22.4607C22.1875 11.0287 21.9148 11.0616 21.65 11.128C20.1523 11.5011 19.1097 12.8436 19.1097 14.3854V47.0065C19.1097 48.4574 19.9124 49.7585 21.2113 50.4047C21.7328 50.6699 22.3201 50.8028 22.9075 50.8028H37.1551C37.743 50.8028 38.3303 50.6619 38.8513 50.4047C40.0345 49.8079 40.8043 48.6727 40.9285 47.3717L42.0867 46.7913C42.2023 46.7334 42.2687 46.617 42.2687 46.4931V19.3163C42.2766 19.134 42.1281 18.9852 41.9461 18.9852ZM36.9816 11.6914V12.9345C36.9816 13.7136 36.3529 14.3439 35.5751 14.3439H24.488C23.7102 14.3439 23.0815 13.7136 23.0815 12.9345V11.6914H36.9816ZM38.5616 49.8164C38.1319 50.0322 37.6432 50.148 37.1636 50.148H22.9075C22.4193 50.148 21.9397 50.0322 21.5094 49.8164C20.4335 49.2775 19.7718 48.2087 19.7718 47.0065V14.3854C19.7718 13.1502 20.6075 12.073 21.8071 11.7743C22.0055 11.7249 22.2124 11.6999 22.4193 11.6914V12.9345C22.4193 14.0787 23.3462 15.0066 24.488 15.0066H35.5751C36.7169 15.0066 37.6432 14.0787 37.6432 12.9345V11.6914C37.8502 11.6914 38.0571 11.7249 38.2555 11.7743C39.4556 12.073 40.2913 13.1502 40.2913 14.3854V47.0065C40.2913 48.2087 39.6291 49.2775 38.5616 49.8164ZM41.615 46.2939L40.9529 46.6255V19.6479H41.615V46.2939Z" fill="white"/>
</g>
<path d="M38.6365 16.3327H21.4267C21.2447 16.3327 21.0956 16.482 21.0956 16.6643V27.9361C21.0956 28.1184 21.2447 28.2678 21.4267 28.2678H38.6365C38.8184 28.2678 38.9675 28.1184 38.9675 27.9361V16.6643C38.9675 16.482 38.8184 16.3327 38.6365 16.3327ZM38.3054 27.6045H21.7578V16.996H38.3054V27.6045Z" fill="white"/>
<mask id="mask1_646_105221" style="mask-type:luminance" maskUnits="userSpaceOnUse" x="42" y="16" width="19" height="30">
<path d="M42.8693 16.3061H60.8521V45.5578H42.8693V16.3061Z" fill="white"/>
</mask>
<g mask="url(#mask1_646_105221)">
<path d="M58.9904 16.3326H44.7591C43.758 16.3326 42.9388 17.1532 42.9388 18.1561V43.6833C42.9388 44.6862 43.758 45.5068 44.7591 45.5068H58.9904C59.9915 45.5068 60.8107 44.6862 60.8107 43.6833V18.1561C60.8107 17.1532 59.9915 16.3326 58.9904 16.3326ZM60.1486 43.6833C60.1486 44.3216 59.6276 44.8435 58.9904 44.8435H44.7591C44.1219 44.8435 43.6009 44.3216 43.6009 43.6833V18.1561C43.6009 17.5178 44.1219 16.9959 44.7591 16.9959H58.9904C59.6276 16.9959 60.1486 17.5178 60.1486 18.1561V43.6833Z" fill="white"/>
</g>
<path d="M57.8321 42.1915H55.8462C55.6643 42.1915 55.5152 42.3409 55.5152 42.5232C55.5152 42.7055 55.6643 42.8543 55.8462 42.8543H57.8321C58.0141 42.8543 58.1627 42.7055 58.1627 42.5232C58.1627 42.3409 58.0141 42.1915 57.8321 42.1915Z" fill="white"/>
<path d="M57.8321 40.8655H55.8462C55.6643 40.8655 55.5152 41.0143 55.5152 41.1972C55.5152 41.3795 55.6643 41.5283 55.8462 41.5283H57.8321C58.0141 41.5283 58.1627 41.3795 58.1627 41.1972C58.1627 41.0143 58.0141 40.8655 57.8321 40.8655Z" fill="white"/>
<path d="M57.8321 39.5395H55.8462C55.6643 39.5395 55.5152 39.6884 55.5152 39.8706C55.5152 40.0529 55.6643 40.2023 55.8462 40.2023H57.8321C58.0141 40.2023 58.1627 40.0529 58.1627 39.8706C58.1627 39.6884 58.0141 39.5395 57.8321 39.5395Z" fill="white"/>
<path d="M57.8321 38.213H55.8462C55.6643 38.213 55.5152 38.3623 55.5152 38.5446C55.5152 38.7269 55.6643 38.8763 55.8462 38.8763H57.8321C58.0141 38.8763 58.1627 38.7269 58.1627 38.5446C58.1627 38.3623 58.0141 38.213 57.8321 38.213Z" fill="white"/>
<path d="M57.8321 35.561H55.8462C55.6643 35.561 55.5152 35.7104 55.5152 35.8926C55.5152 36.0749 55.6643 36.2243 55.8462 36.2243H57.8321C58.0141 36.2243 58.1627 36.0749 58.1627 35.8926C58.1627 35.7104 58.0141 35.561 57.8321 35.561Z" fill="white"/>
<path d="M57.8321 34.235H55.8462C55.6643 34.235 55.5152 34.3844 55.5152 34.5666C55.5152 34.7489 55.6643 34.8983 55.8462 34.8983H57.8321C58.0141 34.8983 58.1627 34.7489 58.1627 34.5666C58.1627 34.3844 58.0141 34.235 57.8321 34.235Z" fill="white"/>
<path d="M57.8321 32.909H55.8462C55.6643 32.909 55.5152 33.0578 55.5152 33.2406C55.5152 33.4229 55.6643 33.5717 55.8462 33.5717H57.8321C58.0141 33.5717 58.1627 33.4229 58.1627 33.2406C58.1627 33.0578 58.0141 32.909 57.8321 32.909Z" fill="white"/>
<path d="M57.8321 31.583H55.8462C55.6643 31.583 55.5152 31.7318 55.5152 31.9141C55.5152 32.0964 55.6643 32.2457 55.8462 32.2457H57.8321C58.0141 32.2457 58.1627 32.0964 58.1627 31.9141C58.1627 31.7318 58.0141 31.583 57.8321 31.583Z" fill="white"/>
<path d="M57.8321 30.2565H55.8462C55.6643 30.2565 55.5152 30.4058 55.5152 30.5881C55.5152 30.7704 55.6643 30.9198 55.8462 30.9198H57.8321C58.0141 30.9198 58.1627 30.7704 58.1627 30.5881C58.1627 30.4058 58.0141 30.2565 57.8321 30.2565Z" fill="white"/>
<path d="M57.8321 27.6045H55.8462C55.6643 27.6045 55.5152 27.7538 55.5152 27.9361C55.5152 28.1184 55.6643 28.2677 55.8462 28.2677H57.8321C58.0141 28.2677 58.1627 28.1184 58.1627 27.9361C58.1627 27.7538 58.0141 27.6045 57.8321 27.6045Z" fill="white"/>
<path d="M57.8321 26.2785H55.8462C55.6643 26.2785 55.5152 26.4278 55.5152 26.6101C55.5152 26.7924 55.6643 26.9418 55.8462 26.9418H57.8321C58.0141 26.9418 58.1627 26.7924 58.1627 26.6101C58.1627 26.4278 58.0141 26.2785 57.8321 26.2785Z" fill="white"/>
<path d="M57.8321 24.9525H55.8462C55.6643 24.9525 55.5152 25.1018 55.5152 25.2841C55.5152 25.4664 55.6643 25.6152 55.8462 25.6152H57.8321C58.0141 25.6152 58.1627 25.4664 58.1627 25.2841C58.1627 25.1018 58.0141 24.9525 57.8321 24.9525Z" fill="white"/>
<path d="M57.8321 23.6265H55.8462C55.6643 23.6265 55.5152 23.7753 55.5152 23.9576C55.5152 24.1404 55.6643 24.2892 55.8462 24.2892H57.8321C58.0141 24.2892 58.1627 24.1404 58.1627 23.9576C58.1627 23.7753 58.0141 23.6265 57.8321 23.6265Z" fill="white"/>
<path d="M47.2411 18.322C45.9672 18.322 44.9247 19.3663 44.9247 20.6429C44.9247 21.9189 45.9672 22.9632 47.2411 22.9632C48.5155 22.9632 49.558 21.9189 49.558 20.6429C49.558 19.3663 48.5155 18.322 47.2411 18.322ZM47.2411 22.3C46.3312 22.3 45.5863 21.5543 45.5863 20.6429C45.5863 19.7309 46.3312 18.9852 47.2411 18.9852C48.1515 18.9852 48.8959 19.7309 48.8959 20.6429C48.8959 21.5543 48.1515 22.3 47.2411 22.3Z" fill="white"/>
<path d="M46.5795 35.561H45.2557C45.0732 35.561 44.9247 35.7104 44.9247 35.8926V42.5232C44.9247 42.7055 45.0732 42.8543 45.2557 42.8543H46.5795C46.7615 42.8543 46.9105 42.7055 46.9105 42.5232V35.8926C46.9105 35.7104 46.7615 35.561 46.5795 35.561ZM46.2484 42.1915H45.5863V36.2243H46.2484V42.1915Z" fill="white"/>
<path d="M47.9032 35.561C47.7212 35.561 47.5721 35.7104 47.5721 35.8926V42.5232C47.5721 42.7055 47.7212 42.8543 47.9032 42.8543C48.0852 42.8543 48.2343 42.7055 48.2343 42.5232V35.8926C48.2343 35.7104 48.0852 35.561 47.9032 35.561Z" fill="white"/>
<path d="M52.4867 19.9546C52.5695 19.9546 52.6523 19.9217 52.7186 19.8552C53.281 19.2919 54.0259 18.9852 54.8286 18.9852C55.6308 18.9852 56.3672 19.2919 56.9381 19.8552C57.0708 19.9881 57.2777 19.9881 57.4098 19.8552C57.5424 19.7229 57.5424 19.5156 57.4098 19.3828C56.7232 18.695 55.8048 18.3135 54.8366 18.3135C53.8688 18.3135 52.9504 18.695 52.2634 19.3828C52.1312 19.5156 52.1312 19.7229 52.2634 19.8552C52.3212 19.9217 52.404 19.9546 52.4867 19.9546Z" fill="white"/>
<path d="M53.1903 20.3277C53.0576 20.46 53.0576 20.6673 53.1903 20.8002C53.3224 20.9325 53.5293 20.9325 53.6619 20.8002C53.976 20.485 54.3899 20.3112 54.8286 20.3112C55.2669 20.3112 55.6892 20.485 55.9953 20.8002C56.0611 20.8666 56.1439 20.8996 56.2267 20.8996C56.3094 20.8996 56.4007 20.8666 56.4585 20.8002C56.5906 20.6673 56.5906 20.46 56.4585 20.3277C56.0197 19.8882 55.4409 19.648 54.8202 19.648C54.2164 19.648 53.6285 19.8882 53.1903 20.3277Z" fill="white"/>
<path d="M55.5316 21.2641C55.3417 21.0733 55.0934 20.974 54.8286 20.974C54.5639 20.974 54.3156 21.0733 54.1251 21.2641C53.993 21.397 53.993 21.6043 54.1251 21.7366C54.2578 21.8695 54.4647 21.8695 54.5968 21.7366C54.7209 21.6122 54.9443 21.6122 55.0684 21.7366C55.1348 21.803 55.2175 21.836 55.3003 21.836C55.3831 21.836 55.4738 21.803 55.5316 21.7366C55.6643 21.6043 55.6643 21.397 55.5316 21.2641Z" fill="white"/>
<path d="M22.7504 26.9418H37.3127C37.4947 26.9418 37.6432 26.7924 37.6432 26.6101V17.9903C37.6432 17.808 37.4947 17.6587 37.3127 17.6587H22.7504C22.5684 17.6587 22.4193 17.808 22.4193 17.9903V26.6101C22.4193 26.7924 22.5684 26.9418 22.7504 26.9418ZM23.0815 18.322H36.9816V26.2785H23.0815V18.322Z" fill="white"/>
<path d="M53.8604 38.213H49.8891C49.7071 38.213 49.558 38.3623 49.558 38.5446V42.5232C49.558 42.7055 49.7071 42.8543 49.8891 42.8543H53.8604C54.0423 42.8543 54.1914 42.7055 54.1914 42.5232V38.5446C54.1914 38.3623 54.0423 38.213 53.8604 38.213ZM53.5293 39.5395H52.8677V38.8763H53.5293V39.5395ZM52.2055 41.5283V42.1915H51.5439V41.5283H52.2055ZM50.2197 40.8655V40.2023H53.5293V40.8655H50.2197ZM51.5439 39.5395V38.8763H52.2055V39.5395H51.5439ZM50.8818 38.8763V39.5395H50.2197V38.8763H50.8818ZM50.2197 41.5283H50.8818V42.1915H50.2197V41.5283ZM52.8677 42.1915V41.5283H53.5293V42.1915H52.8677Z" fill="white"/>
<path d="M19.7434 57.279C19.9031 57.279 20.0426 57.2593 20.1615 57.2194C20.2814 57.1801 20.3811 57.1227 20.4607 57.0472C20.5397 56.9723 20.5986 56.8809 20.6368 56.773C20.6761 56.6657 20.6963 56.545 20.6963 56.4116C20.6963 56.2857 20.6761 56.1714 20.6368 56.0693C20.5986 55.9673 20.5403 55.8801 20.4628 55.8079C20.3848 55.7356 20.2856 55.6814 20.1657 55.6442C20.0469 55.6059 19.9057 55.5868 19.7434 55.5868H19.0876V57.279H19.7434ZM19.7434 54.9065C20.0575 54.9065 20.3296 54.9442 20.5604 55.0192C20.7907 55.0931 20.9806 55.1967 21.1292 55.3296C21.2788 55.4614 21.3902 55.6203 21.4624 55.8057C21.5356 55.9902 21.5728 56.1921 21.5728 56.4116C21.5728 56.6401 21.5346 56.8495 21.4581 57.0409C21.3828 57.2311 21.2693 57.3948 21.1165 57.5319C20.9647 57.668 20.7748 57.7743 20.5456 57.8508C20.3164 57.9273 20.049 57.9656 19.7434 57.9656H19.0876V59.6259H18.2111V54.9065H19.7434Z" fill="white"/>
<path d="M26.7372 57.2662C26.7372 57.6122 26.6799 57.9327 26.5653 58.2271C26.4518 58.522 26.2905 58.7771 26.0814 58.9924C25.8735 59.2082 25.623 59.3766 25.3302 59.4983C25.0373 59.619 24.711 59.679 24.3518 59.679C23.9963 59.679 23.6716 59.619 23.3777 59.4983C23.0848 59.3766 22.8334 59.2082 22.6243 58.9924C22.4147 58.7771 22.2519 58.522 22.1362 58.2271C22.0216 57.9327 21.9643 57.6122 21.9643 57.2662C21.9643 56.9207 22.0216 56.6003 22.1362 56.3053C22.2519 56.0109 22.4147 55.7558 22.6243 55.54C22.8334 55.3248 23.0848 55.1568 23.3777 55.0362C23.6716 54.9161 23.9963 54.8555 24.3518 54.8555C24.5906 54.8555 24.8155 54.8831 25.0267 54.9384C25.2373 54.9937 25.4304 55.0723 25.6061 55.1744C25.7827 55.2753 25.9414 55.3976 26.0814 55.5421C26.2215 55.6867 26.3404 55.8483 26.438 56.0268C26.5356 56.2054 26.6099 56.3989 26.6608 56.6072C26.7117 56.8155 26.7372 57.0355 26.7372 57.2662ZM25.8416 57.2662C25.8416 57.0084 25.8066 56.7767 25.7376 56.571C25.6681 56.3643 25.5689 56.1895 25.4405 56.046C25.3116 55.903 25.1551 55.793 24.9715 55.7165C24.789 55.6399 24.5821 55.6017 24.3518 55.6017C24.1226 55.6017 23.9157 55.6399 23.7321 55.7165C23.548 55.793 23.391 55.903 23.261 56.046C23.1321 56.1895 23.0328 56.3643 22.9639 56.571C22.8944 56.7767 22.8599 57.0084 22.8599 57.2662C22.8599 57.5256 22.8944 57.7583 22.9639 57.9635C23.0328 58.1692 23.1321 58.3435 23.261 58.4864C23.391 58.6283 23.548 58.7373 23.7321 58.8138C23.9157 58.8903 24.1226 58.9286 24.3518 58.9286C24.5821 58.9286 24.789 58.8903 24.9715 58.8138C25.1551 58.7373 25.3116 58.6283 25.4405 58.4864C25.5689 58.3435 25.6681 58.1692 25.7376 57.9635C25.8066 57.7583 25.8416 57.5256 25.8416 57.2662Z" fill="white"/>
<path d="M30.0177 55.7653C29.9922 55.8111 29.9647 55.844 29.9349 55.8653C29.9052 55.8855 29.8692 55.895 29.8267 55.895C29.78 55.895 29.7296 55.8791 29.676 55.8461C29.6235 55.8121 29.5604 55.7749 29.4872 55.7335C29.4134 55.6925 29.3269 55.6548 29.2282 55.6208C29.129 55.5868 29.0123 55.5698 28.8781 55.5698C28.756 55.5698 28.6494 55.5847 28.5576 55.6144C28.4669 55.6431 28.3905 55.6835 28.3284 55.7356C28.2658 55.7882 28.2191 55.8514 28.1883 55.9248C28.1586 55.9971 28.1438 56.0768 28.1438 56.1629C28.1438 56.275 28.1745 56.368 28.2372 56.4414C28.2992 56.5152 28.3815 56.5785 28.4833 56.6306C28.5852 56.6832 28.7009 56.73 28.8314 56.7709C28.9614 56.8123 29.0951 56.8559 29.2325 56.9027C29.3694 56.9494 29.5031 57.0042 29.6336 57.0664C29.7636 57.1291 29.8798 57.2077 29.9816 57.3023C30.0835 57.3959 30.1652 57.5117 30.2278 57.6489C30.2899 57.7849 30.3212 57.9518 30.3212 58.1484C30.3212 58.361 30.2841 58.5608 30.2108 58.7479C30.1387 58.9339 30.0326 59.096 29.8925 59.2347C29.7524 59.3724 29.5811 59.4808 29.3789 59.56C29.1762 59.6392 28.9449 59.679 28.6849 59.679C28.5348 59.679 28.3868 59.6642 28.2414 59.6344C28.0971 59.6046 27.9575 59.5632 27.8233 59.509C27.6901 59.4537 27.5649 59.3889 27.4477 59.3134C27.3299 59.2369 27.2259 59.1518 27.1357 59.0583L27.3925 58.6374C27.4137 58.6065 27.4413 58.581 27.4753 58.5608C27.5103 58.5396 27.548 58.529 27.5877 58.529C27.6413 58.529 27.6992 58.5518 27.7618 58.597C27.8254 58.6411 27.9002 58.6905 27.9867 58.7458C28.0743 58.8 28.1761 58.8494 28.2923 58.8946C28.408 58.9387 28.5481 58.9605 28.7125 58.9605C28.9614 58.9605 29.154 58.902 29.2898 58.7841C29.4267 58.665 29.4956 58.4944 29.4956 58.2717C29.4956 58.1474 29.4643 58.0459 29.4023 57.9677C29.3413 57.8901 29.2601 57.8248 29.1582 57.7722C29.0563 57.7185 28.9401 57.6733 28.8102 57.6361C28.6796 57.5994 28.547 57.559 28.4112 57.5149C28.2764 57.4713 28.1443 57.4187 28.0143 57.3576C27.8838 57.297 27.7681 57.2173 27.6663 57.1195C27.5644 57.0217 27.4822 56.9 27.4201 56.7539C27.3575 56.6067 27.3267 56.4254 27.3267 56.2097C27.3267 56.0385 27.3607 55.8711 27.4286 55.708C27.4976 55.5437 27.5973 55.3986 27.7278 55.2722C27.8578 55.1462 28.0186 55.0457 28.2096 54.9703C28.4006 54.8937 28.6197 54.8555 28.8675 54.8555C29.146 54.8555 29.4023 54.8996 29.6357 54.9873C29.8702 55.0739 30.0708 55.1951 30.2363 55.3508L30.0177 55.7653Z" fill="white"/>
<path d="M33.2926 56.688C33.3589 56.6215 33.4295 56.5599 33.5048 56.503C33.5796 56.4451 33.6587 56.3962 33.7425 56.3563C33.8274 56.3154 33.917 56.2835 34.012 56.2607C34.1081 56.2383 34.212 56.2267 34.324 56.2267C34.5065 56.2267 34.6683 56.258 34.81 56.3202C34.9511 56.3813 35.0689 56.4679 35.1623 56.5795C35.2567 56.6917 35.3289 56.8256 35.3787 56.9813C35.4281 57.1376 35.453 57.3087 35.453 57.4958V59.6259H34.6466V57.4958C34.6466 57.2906 34.5999 57.1317 34.5065 57.0196C34.4131 56.908 34.2709 56.8517 34.0799 56.8517C33.9409 56.8517 33.8109 56.8835 33.6894 56.9473C33.5674 57.01 33.4523 57.0956 33.3435 57.2045V59.6259H32.5392V56.2777H33.0315C33.1361 56.2777 33.2045 56.3266 33.2374 56.4244L33.2926 56.688Z" fill="white"/>
<path d="M37.9798 58.1973C37.7475 58.2074 37.5522 58.2271 37.3941 58.2568C37.2355 58.2866 37.1081 58.3243 37.0121 58.3695C36.9171 58.4152 36.8487 58.4684 36.8062 58.529C36.7649 58.5901 36.7447 58.6565 36.7447 58.7288C36.7447 58.8707 36.7861 58.9722 36.8699 59.0328C36.9548 59.0939 37.0641 59.1242 37.1989 59.1242C37.3644 59.1242 37.5071 59.0944 37.6275 59.0349C37.7475 58.9743 37.8652 58.8829 37.9798 58.7607V58.1973ZM36.1356 56.7454C36.5203 56.3925 36.9829 56.216 37.5236 56.216C37.7188 56.216 37.8934 56.2479 38.0477 56.3117C38.2016 56.3755 38.3321 56.4648 38.4382 56.5795C38.5454 56.6943 38.6271 56.8315 38.6823 56.9898C38.7375 57.1487 38.7651 57.3225 38.7651 57.5107V59.6259H38.4C38.3247 59.6259 38.2663 59.6147 38.2239 59.5919C38.1825 59.5696 38.1501 59.5233 38.1263 59.4537L38.0562 59.2113C37.9713 59.2879 37.8886 59.3554 37.8079 59.4133C37.7273 59.4702 37.6429 59.5185 37.5554 59.5579C37.4689 59.5961 37.3761 59.6259 37.2774 59.6471C37.1798 59.6684 37.0705 59.679 36.9505 59.679C36.8089 59.679 36.6789 59.6599 36.5601 59.6216C36.4412 59.5834 36.3378 59.526 36.2502 59.4494C36.1637 59.3729 36.0963 59.2788 36.0486 59.1667C36.0003 59.0535 35.9764 58.9217 35.9764 58.7713C35.9764 58.6863 35.9902 58.6023 36.0189 58.5183C36.047 58.4349 36.0932 58.3546 36.1568 58.2781C36.2216 58.2016 36.3054 58.1304 36.4073 58.0634C36.5091 57.9954 36.6343 57.9369 36.7829 57.8869C36.9314 57.8375 37.1044 57.7971 37.3028 57.7658C37.5007 57.7334 37.7262 57.7137 37.9798 57.7062V57.5107C37.9798 57.2869 37.9316 57.1211 37.8355 57.0132C37.7406 56.9059 37.6031 56.8517 37.4238 56.8517C37.2933 56.8517 37.1851 56.8676 37.0991 56.8984C37.0126 56.9282 36.9368 56.9622 36.872 57.0005C36.8068 57.0387 36.7473 57.0738 36.6938 57.1046C36.6412 57.1344 36.5823 57.1493 36.5176 57.1493C36.4608 57.1493 36.4126 57.1344 36.3733 57.1046C36.3351 57.0749 36.3038 57.0409 36.2799 57.0026L36.1356 56.7454Z" fill="white"/>
<path d="M43.7401 55.7653C43.7146 55.8111 43.687 55.844 43.6573 55.8653C43.6276 55.8855 43.5915 55.895 43.5491 55.895C43.5024 55.895 43.452 55.8791 43.3984 55.8461C43.3459 55.8121 43.2828 55.7749 43.2095 55.7335C43.1358 55.6925 43.0493 55.6548 42.9506 55.6208C42.8514 55.5868 42.7347 55.5698 42.6005 55.5698C42.4784 55.5698 42.3718 55.5847 42.28 55.6144C42.1893 55.6431 42.1129 55.6835 42.0508 55.7356C41.9882 55.7882 41.9415 55.8514 41.9107 55.9248C41.881 55.9971 41.8662 56.0768 41.8662 56.1629C41.8662 56.275 41.8969 56.368 41.9595 56.4414C42.0216 56.5152 42.1038 56.5785 42.2057 56.6306C42.3076 56.6832 42.4232 56.73 42.5538 56.7709C42.6838 56.8123 42.8175 56.8559 42.9549 56.9027C43.0918 56.9494 43.2255 57.0042 43.356 57.0664C43.486 57.1291 43.6022 57.2077 43.704 57.3023C43.8059 57.3959 43.8876 57.5117 43.9502 57.6489C44.0123 57.7849 44.0436 57.9518 44.0436 58.1484C44.0436 58.361 44.0064 58.5608 43.9332 58.7479C43.8611 58.9339 43.755 59.096 43.6149 59.2347C43.4748 59.3724 43.3034 59.4808 43.1013 59.56C42.8986 59.6392 42.6673 59.679 42.4073 59.679C42.2572 59.679 42.1092 59.6642 41.9638 59.6344C41.8195 59.6046 41.6799 59.5632 41.5457 59.509C41.4125 59.4537 41.2873 59.3889 41.1701 59.3134C41.0523 59.2369 40.9483 59.1518 40.8581 59.0583L41.1149 58.6374C41.1361 58.6065 41.1637 58.581 41.1977 58.5608C41.2327 58.5396 41.2703 58.529 41.3101 58.529C41.3637 58.529 41.4215 58.5518 41.4842 58.597C41.5478 58.6411 41.6226 58.6905 41.7091 58.7458C41.7967 58.8 41.8985 58.8494 42.0147 58.8946C42.1304 58.9387 42.2704 58.9605 42.4349 58.9605C42.6838 58.9605 42.8763 58.902 43.0122 58.7841C43.1491 58.665 43.218 58.4944 43.218 58.2717C43.218 58.1474 43.1867 58.0459 43.1246 57.9677C43.0636 57.8901 42.9825 57.8248 42.8806 57.7722C42.7787 57.7185 42.6625 57.6733 42.5325 57.6361C42.402 57.5994 42.2694 57.559 42.1336 57.5149C41.9988 57.4713 41.8667 57.4187 41.7367 57.3576C41.6062 57.297 41.4905 57.2173 41.3887 57.1195C41.2868 57.0217 41.2045 56.9 41.1425 56.7539C41.0799 56.6067 41.0491 56.4254 41.0491 56.2097C41.0491 56.0385 41.0831 55.8711 41.151 55.708C41.2199 55.5437 41.3197 55.3986 41.4502 55.2722C41.5802 55.1462 41.7409 55.0457 41.9319 54.9703C42.1229 54.8937 42.3421 54.8555 42.5898 54.8555C42.8684 54.8555 43.1246 54.8996 43.3581 54.9873C43.5926 55.0739 43.7932 55.1951 43.9587 55.3508L43.7401 55.7653Z" fill="white"/>
<path d="M48.095 55.6293H46.6752V59.6259H45.7987V55.6293H44.379V54.9065H48.095V55.6293Z" fill="white"/>
<path d="M53.2079 57.2662C53.2079 57.6122 53.1506 57.9327 53.036 58.2271C52.9224 58.522 52.7611 58.7771 52.5521 58.9924C52.3441 59.2082 52.0937 59.3766 51.8008 59.4983C51.5079 59.619 51.1816 59.679 50.8225 59.679C50.467 59.679 50.1423 59.619 49.8483 59.4983C49.5555 59.3766 49.304 59.2082 49.095 58.9924C48.8854 58.7771 48.7225 58.522 48.6068 58.2271C48.4922 57.9327 48.4349 57.6122 48.4349 57.2662C48.4349 56.9207 48.4922 56.6003 48.6068 56.3053C48.7225 56.0109 48.8854 55.7558 49.095 55.54C49.304 55.3248 49.5555 55.1568 49.8483 55.0362C50.1423 54.9161 50.467 54.8555 50.8225 54.8555C51.0612 54.8555 51.2862 54.8831 51.4973 54.9384C51.708 54.9937 51.9011 55.0723 52.0767 55.1744C52.2534 55.2753 52.412 55.3976 52.5521 55.5421C52.6922 55.6867 52.811 55.8483 52.9086 56.0268C53.0062 56.2054 53.0805 56.3989 53.1315 56.6072C53.1824 56.8155 53.2079 57.0355 53.2079 57.2662ZM52.3123 57.2662C52.3123 57.0084 52.2773 56.7767 52.2083 56.571C52.1388 56.3643 52.0396 56.1895 51.9112 56.046C51.7822 55.903 51.6257 55.793 51.4422 55.7165C51.2596 55.6399 51.0527 55.6017 50.8225 55.6017C50.5933 55.6017 50.3863 55.6399 50.2028 55.7165C50.0187 55.793 49.8616 55.903 49.7316 56.046C49.6027 56.1895 49.5035 56.3643 49.4345 56.571C49.365 56.7767 49.3305 57.0084 49.3305 57.2662C49.3305 57.5256 49.365 57.7583 49.4345 57.9635C49.5035 58.1692 49.6027 58.3435 49.7316 58.4864C49.8616 58.6283 50.0187 58.7373 50.2028 58.8138C50.3863 58.8903 50.5933 58.9286 50.8225 58.9286C51.0527 58.9286 51.2596 58.8903 51.4422 58.8138C51.6257 58.7373 51.7822 58.6283 51.9112 58.4864C52.0396 58.3435 52.1388 58.1692 52.2083 57.9635C52.2773 57.7583 52.3123 57.5256 52.3123 57.2662Z" fill="white"/>
<path d="M57.2142 58.5141C57.2619 58.5141 57.3044 58.5327 57.3415 58.5693L57.6874 58.9435C57.4964 59.1805 57.2609 59.3623 56.9807 59.4898C56.7017 59.6163 56.3674 59.679 55.9769 59.679C55.6273 59.679 55.3127 59.6195 55.0325 59.5005C54.7534 59.3804 54.5152 59.2135 54.3173 59.0009C54.1205 58.7872 53.9693 58.5321 53.8632 58.2356C53.7581 57.9396 53.7061 57.6164 53.7061 57.2662C53.7061 56.9122 53.7624 56.5875 53.8759 56.2926C53.9889 55.9981 54.1481 55.7441 54.3534 55.5315C54.5582 55.3179 54.8033 55.152 55.0877 55.0341C55.3721 54.915 55.6867 54.8555 56.0321 54.8555C56.3759 54.8555 56.6804 54.9124 56.9468 55.0256C57.2126 55.1377 57.4391 55.2849 57.6259 55.4677L57.333 55.8759C57.3145 55.903 57.2916 55.9264 57.2651 55.946C57.2381 55.9646 57.2004 55.9737 57.1526 55.9737C57.1197 55.9737 57.0858 55.9646 57.0508 55.946C57.0168 55.928 56.9791 55.9051 56.9383 55.878C56.8969 55.8514 56.8492 55.8217 56.794 55.7887C56.7399 55.7563 56.6773 55.7266 56.6051 55.6994C56.534 55.6713 56.4512 55.6479 56.3568 55.6293C56.2618 55.6112 56.1531 55.6017 56.03 55.6017C55.8188 55.6017 55.6257 55.6394 55.4506 55.7143C55.2766 55.7898 55.1264 55.8987 55.0007 56.0417C54.8744 56.1836 54.7763 56.3574 54.7057 56.5625C54.6362 56.7682 54.6017 57.0026 54.6017 57.2662C54.6017 57.5314 54.6388 57.7674 54.7142 57.9741C54.789 58.1814 54.8903 58.3557 55.0177 58.4971C55.1461 58.639 55.2978 58.7474 55.4718 58.8223C55.6458 58.8978 55.8326 58.935 56.0321 58.935C56.152 58.935 56.2602 58.9286 56.3568 58.9159C56.4528 58.902 56.5414 58.8808 56.6221 58.8521C56.7038 58.8239 56.7812 58.7878 56.8534 58.7437C56.9266 58.6985 56.9998 58.6432 57.072 58.5778C57.0932 58.5582 57.1155 58.5428 57.1399 58.5311C57.1638 58.5199 57.1887 58.5141 57.2142 58.5141Z" fill="white"/>
<path d="M59.1666 56.8857H59.3724C59.4541 56.8857 59.5221 56.8745 59.5762 56.8517C59.6314 56.8277 59.678 56.7911 59.7162 56.7411L61.0172 55.0936C61.0708 55.0245 61.1275 54.9761 61.187 54.949C61.2474 54.9209 61.3233 54.9065 61.414 54.9065H62.1696L60.5842 56.8687C60.4909 56.9877 60.3938 57.0728 60.2935 57.1238C60.3657 57.1493 60.4298 57.1854 60.4866 57.2322C60.5445 57.279 60.5996 57.3406 60.6522 57.4171L62.2884 59.6259H61.5159C61.4109 59.6259 61.3334 59.6121 61.2825 59.5834C61.2315 59.5536 61.188 59.5106 61.153 59.4537L59.8224 57.7105C59.7799 57.6526 59.7316 57.6117 59.678 57.5872C59.6239 57.5633 59.5465 57.5511 59.4446 57.5511H59.1666V59.6259H58.2901V54.9065H59.1666V56.8857Z" fill="white"/>
<path d="M28.3563 66.983C28.4921 66.983 28.6056 66.9671 28.698 66.9341C28.7898 66.9017 28.8635 66.8587 28.9187 66.8045C28.9739 66.7508 29.0131 66.6875 29.0375 66.6153C29.063 66.5419 29.0757 66.4643 29.0757 66.3836C29.0757 66.2985 29.0614 66.222 29.0333 66.154C29.0062 66.0859 28.9638 66.028 28.9059 65.9796C28.8492 65.9318 28.7749 65.8946 28.6831 65.8691C28.5908 65.8436 28.4815 65.8308 28.3542 65.8308H27.6177V66.983H28.3563ZM27.6177 64.1897V65.3249H28.1992C28.4481 65.3249 28.6364 65.2797 28.7638 65.1888C28.8922 65.0985 28.9569 64.9544 28.9569 64.7573C28.9569 64.5521 28.8985 64.406 28.7829 64.3194C28.6667 64.2333 28.4857 64.1897 28.2396 64.1897H27.6177ZM28.2396 63.6242C28.4953 63.6242 28.7149 63.6492 28.8975 63.6986C29.081 63.747 29.2312 63.8166 29.3474 63.9069C29.4646 63.9978 29.55 64.1078 29.6042 64.2364C29.6593 64.364 29.6869 64.5086 29.6869 64.6701C29.6869 64.7626 29.6726 64.8508 29.6445 64.9358C29.6174 65.0198 29.5755 65.0985 29.5193 65.1718C29.4625 65.2457 29.3903 65.3121 29.3028 65.3716C29.2147 65.4312 29.1102 65.4822 28.9887 65.5247C29.5278 65.6454 29.7973 65.9366 29.7973 66.3984C29.7973 66.5658 29.7655 66.7205 29.7018 66.8619C29.6381 67.0038 29.5453 67.1255 29.4238 67.2275C29.3033 67.3296 29.1542 67.4098 28.976 67.4677C28.7988 67.5262 28.5966 67.5549 28.369 67.5549H26.8877V63.6242H28.2396Z" fill="white"/>
<path d="M31.0508 64.7658V67.5549H30.378V64.7658H31.0508ZM31.1442 63.9516C31.1442 64.01 31.132 64.0642 31.1081 64.1153C31.0853 64.1663 31.054 64.2109 31.0147 64.2492C30.9765 64.2875 30.9309 64.3183 30.8789 64.3406C30.8264 64.3635 30.7696 64.3746 30.7091 64.3746C30.6507 64.3746 30.5956 64.3635 30.5436 64.3406C30.4926 64.3183 30.4481 64.2875 30.4099 64.2492C30.3727 64.2109 30.343 64.1663 30.3207 64.1153C30.2979 64.0642 30.2868 64.01 30.2868 63.9516C30.2868 63.8921 30.2979 63.8363 30.3207 63.7836C30.343 63.7316 30.3727 63.6858 30.4099 63.6476C30.4481 63.6093 30.4926 63.579 30.5436 63.5562C30.5956 63.5338 30.6507 63.5222 30.7091 63.5222C30.7696 63.5222 30.8264 63.5338 30.8789 63.5562C30.9309 63.579 30.9765 63.6093 31.0147 63.6476C31.054 63.6858 31.0853 63.7316 31.1081 63.7836C31.132 63.8363 31.1442 63.8921 31.1442 63.9516Z" fill="white"/>
<path d="M33.7371 65.0421C33.7371 65.0889 33.7286 65.1351 33.7117 65.1803C33.6957 65.226 33.674 65.2632 33.6459 65.293L32.3258 67.0383H33.6947V67.5549H31.547V67.2743C31.547 67.2445 31.5539 67.2084 31.5682 67.1659C31.582 67.1223 31.6032 67.0819 31.6319 67.0447L32.9689 65.2781H31.6255V64.7658H33.7371V65.0421Z" fill="white"/>
<path d="M34.8567 65.108C34.9129 65.0517 34.9723 64.9991 35.035 64.9507C35.097 64.9029 35.1628 64.8625 35.2323 64.8296C35.3029 64.7955 35.3777 64.7695 35.4573 64.7509C35.5363 64.7312 35.6233 64.7211 35.7183 64.7211C35.8695 64.7211 36.0038 64.7477 36.1215 64.7998C36.2404 64.8508 36.3385 64.9231 36.4165 65.0166C36.4956 65.1102 36.555 65.2223 36.5948 65.3525C36.6357 65.4817 36.6563 65.6241 36.6563 65.7798V67.5549H35.9878V65.7798C35.9878 65.6097 35.9486 65.4779 35.8711 65.3844C35.7931 65.2909 35.6743 65.2441 35.5146 65.2441C35.3984 65.2441 35.2896 65.2707 35.1878 65.3228C35.0869 65.3754 34.9914 65.4471 34.9012 65.5375V67.5549H34.2306V64.7658H34.6402C34.7278 64.7658 34.7851 64.8062 34.8121 64.887L34.8567 65.108Z" fill="white"/>
<path d="M38.7635 66.3644C38.5693 66.3729 38.4069 66.3899 38.2754 66.4154C38.1438 66.4399 38.0377 66.4707 37.957 66.509C37.8774 66.5462 37.8212 66.5898 37.7872 66.6408C37.7533 66.6918 37.7363 66.7471 37.7363 66.8066C37.7363 66.9246 37.7708 67.0086 37.8403 67.0596C37.9093 67.1106 38 67.1361 38.112 67.1361C38.2504 67.1361 38.3693 67.1117 38.4685 67.0617C38.5688 67.0123 38.6669 66.9363 38.7635 66.8342V66.3644ZM37.227 65.1548C37.548 64.8604 37.9337 64.7126 38.3836 64.7126C38.5459 64.7126 38.6919 64.7397 38.8208 64.7934C38.9492 64.8476 39.0574 64.922 39.1455 65.0166C39.2346 65.1118 39.3025 65.226 39.3492 65.3589C39.3959 65.4907 39.4193 65.6353 39.4193 65.7926V67.5549H39.1136C39.05 67.5549 39.0012 67.5459 38.9672 67.5273C38.9333 67.5076 38.9062 67.4688 38.8866 67.4103L38.8271 67.2105C38.7561 67.2732 38.6871 67.3285 38.6192 67.3763C38.5523 67.4247 38.4833 67.4651 38.4112 67.4975C38.339 67.5305 38.261 67.5549 38.1777 67.5719C38.0955 67.5889 38.0048 67.5974 37.9061 67.5974C37.7883 67.5974 37.6795 67.5815 37.5793 67.5506C37.4801 67.5198 37.3946 67.472 37.3225 67.4082C37.2503 67.3444 37.1941 67.2658 37.1548 67.1722C37.115 67.0776 37.0954 66.9676 37.0954 66.8427C37.0954 66.7721 37.1065 66.7019 37.1294 66.6323C37.1532 66.5632 37.1914 66.4962 37.244 66.4325C37.2975 66.3687 37.367 66.3092 37.4519 66.2539C37.5379 66.1975 37.6429 66.1487 37.766 66.1072C37.8902 66.0647 38.0345 66.0307 38.199 66.0052C38.3645 65.9786 38.5523 65.9621 38.7635 65.9563V65.7926C38.7635 65.6055 38.7237 65.4673 38.6446 65.378C38.565 65.2887 38.4504 65.2441 38.3008 65.2441C38.1915 65.2441 38.1013 65.2569 38.0292 65.2824C37.9581 65.3079 37.8955 65.3366 37.8403 65.3674C37.7862 65.3988 37.7368 65.4269 37.6917 65.4524C37.6477 65.4779 37.5989 65.4907 37.5453 65.4907C37.4986 65.4907 37.4588 65.479 37.4265 65.4546C37.3936 65.4306 37.3676 65.4025 37.3479 65.3695L37.227 65.1548Z" fill="white"/>
<path d="M43.1608 65.8393C43.1608 65.7532 43.1486 65.6714 43.1247 65.5949C43.1003 65.5173 43.0637 65.4492 43.0143 65.3908C42.966 65.3329 42.9045 65.2877 42.8297 65.2547C42.7543 65.2207 42.6668 65.2037 42.5665 65.2037C42.3739 65.2037 42.2217 65.259 42.1102 65.3695C41.9983 65.4801 41.9267 65.6368 41.8959 65.8393H43.1608ZM41.8832 66.2454C41.8943 66.3889 41.9198 66.5127 41.9596 66.6174C41.9988 66.721 42.0514 66.8066 42.1166 66.8746C42.1813 66.9427 42.2588 66.9937 42.3479 67.0277C42.4381 67.0606 42.5373 67.0766 42.6451 67.0766C42.7538 67.0766 42.8472 67.0638 42.9252 67.0383C43.0042 67.0128 43.0737 66.9852 43.1332 66.9554C43.1926 66.9246 43.2441 66.8959 43.2881 66.8704C43.3316 66.8449 43.3751 66.8321 43.4175 66.8321C43.4727 66.8321 43.5141 66.8528 43.5428 66.8938L43.7338 67.1382C43.66 67.2265 43.5767 67.2998 43.4833 67.3593C43.391 67.4178 43.295 67.4645 43.1947 67.4996C43.0939 67.5352 42.9915 67.5597 42.887 67.574C42.7835 67.5878 42.6833 67.5953 42.5856 67.5953C42.3914 67.5953 42.2111 67.5634 42.0445 67.4996C41.8789 67.4348 41.7346 67.3397 41.6115 67.2148C41.4884 67.0888 41.3913 66.9331 41.3208 66.7471C41.2497 66.56 41.2147 66.3448 41.2147 66.1008C41.2147 65.9095 41.2449 65.7304 41.3059 65.563C41.368 65.3961 41.4566 65.2505 41.5712 65.1272C41.6869 65.0028 41.828 64.904 41.9935 64.8317C42.1591 64.7583 42.3458 64.7211 42.5538 64.7211C42.7289 64.7211 42.8912 64.7498 43.0398 64.8062C43.1883 64.863 43.3157 64.9454 43.4218 65.0528C43.529 65.1607 43.6128 65.293 43.6722 65.4503C43.7327 65.6066 43.7635 65.7851 43.7635 65.986C43.7635 66.0881 43.7529 66.1571 43.7316 66.1922C43.7104 66.2278 43.6685 66.2454 43.6064 66.2454H41.8832Z" fill="white"/>
<path d="M45.7374 66.3644C45.5433 66.3729 45.3809 66.3899 45.2493 66.4154C45.1178 66.4399 45.0116 66.4707 44.931 66.509C44.8514 66.5462 44.7952 66.5898 44.7612 66.6408C44.7273 66.6918 44.7103 66.7471 44.7103 66.8066C44.7103 66.9246 44.7448 67.0086 44.8143 67.0596C44.8832 67.1106 44.974 67.1361 45.0859 67.1361C45.2244 67.1361 45.3432 67.1117 45.4425 67.0617C45.5427 67.0123 45.6409 66.9363 45.7374 66.8342V66.3644ZM44.2009 65.1548C44.5219 64.8604 44.9077 64.7126 45.3576 64.7126C45.5199 64.7126 45.6658 64.7397 45.7947 64.7934C45.9231 64.8476 46.0314 64.922 46.1195 65.0166C46.2086 65.1118 46.2765 65.226 46.3232 65.3589C46.3699 65.4907 46.3932 65.6353 46.3932 65.7926V67.5549H46.0876C46.024 67.5549 45.9751 67.5459 45.9412 67.5273C45.9072 67.5076 45.8802 67.4688 45.8605 67.4103L45.8011 67.2105C45.73 67.2732 45.661 67.3285 45.5931 67.3763C45.5263 67.4247 45.4573 67.4651 45.3852 67.4975C45.313 67.5305 45.235 67.5549 45.1517 67.5719C45.0695 67.5889 44.9787 67.5974 44.8801 67.5974C44.7623 67.5974 44.6535 67.5815 44.5532 67.5506C44.454 67.5198 44.3686 67.472 44.2964 67.4082C44.2243 67.3444 44.1681 67.2658 44.1288 67.1722C44.089 67.0776 44.0694 66.9676 44.0694 66.8427C44.0694 66.7721 44.0805 66.7019 44.1033 66.6323C44.1272 66.5632 44.1654 66.4962 44.2179 66.4325C44.2715 66.3687 44.341 66.3092 44.4259 66.2539C44.5119 66.1975 44.6169 66.1487 44.74 66.1072C44.8641 66.0647 45.0085 66.0307 45.1729 66.0052C45.3385 65.9786 45.5263 65.9621 45.7374 65.9563V65.7926C45.7374 65.6055 45.6977 65.4673 45.6186 65.378C45.539 65.2887 45.4244 65.2441 45.2748 65.2441C45.1655 65.2441 45.0753 65.2569 45.0032 65.2824C44.9321 65.3079 44.8695 65.3366 44.8143 65.3674C44.7602 65.3988 44.7108 65.4269 44.6657 65.4524C44.6217 65.4779 44.5729 65.4907 44.5193 65.4907C44.4726 65.4907 44.4328 65.479 44.4004 65.4546C44.3675 65.4306 44.3415 65.4025 44.3219 65.3695L44.2009 65.1548Z" fill="white"/>
<path d="M48.7221 65.31C48.7035 65.3387 48.6844 65.3589 48.6648 65.3716C48.6446 65.3833 48.6191 65.3887 48.5884 65.3887C48.5555 65.3887 48.521 65.3796 48.4844 65.361C48.4472 65.3429 48.4042 65.3222 48.3549 65.2994C48.305 65.277 48.2493 65.2563 48.1872 65.2377C48.1246 65.2196 48.0514 65.2101 47.9665 65.2101C47.835 65.2101 47.7315 65.2388 47.6567 65.2951C47.5813 65.352 47.5442 65.4259 47.5442 65.5162C47.5442 65.5757 47.5633 65.6262 47.6015 65.6671C47.6408 65.7086 47.6928 65.7447 47.7564 65.7756C47.8201 65.8053 47.8928 65.833 47.975 65.8585C48.0567 65.8829 48.1395 65.909 48.2233 65.9371C48.3066 65.9658 48.3894 65.9988 48.4716 66.037C48.5533 66.0742 48.6266 66.121 48.6902 66.1773C48.7539 66.2342 48.8048 66.3028 48.843 66.3836C48.8823 66.4633 48.9024 66.5589 48.9024 66.6705C48.9024 66.8055 48.878 66.9294 48.8303 67.0426C48.7836 67.1563 48.7125 67.2541 48.6181 67.3359C48.5247 67.4183 48.4085 67.4826 48.27 67.5294C48.131 67.5746 47.9713 67.5974 47.7904 67.5974C47.6938 67.5974 47.5999 67.5889 47.5081 67.5719C47.4174 67.5549 47.3299 67.5315 47.245 67.5018C47.1611 67.4709 47.0837 67.4348 47.0115 67.3933C46.9404 67.3508 46.8784 67.3051 46.8248 67.2552L46.9797 67C46.9993 66.9692 47.0227 66.9458 47.0497 66.9299C47.0763 66.9129 47.1102 66.9044 47.1516 66.9044C47.194 66.9044 47.2333 66.9166 47.2704 66.9405C47.307 66.965 47.3495 66.9905 47.3978 67.0171C47.4471 67.0442 47.5049 67.0697 47.5718 67.0936C47.6381 67.1164 47.7214 67.1276 47.8222 67.1276C47.9029 67.1276 47.9713 67.1186 48.0281 67.1C48.0843 67.0803 48.131 67.0553 48.1681 67.0256C48.2063 66.9947 48.2339 66.9586 48.2509 66.9171C48.2679 66.8762 48.2764 66.8342 48.2764 66.7917C48.2764 66.7269 48.2562 66.6737 48.217 66.6323C48.1788 66.5898 48.1268 66.5531 48.062 66.5217C47.9984 66.4909 47.9252 66.4633 47.8434 66.4388C47.7612 66.4149 47.6768 66.3889 47.5909 66.3602C47.5044 66.3304 47.4201 66.2964 47.3384 66.2581C47.2561 66.2188 47.1824 66.1688 47.1176 66.1093C47.054 66.0487 47.002 65.9749 46.9627 65.8882C46.9245 65.8021 46.9054 65.6969 46.9054 65.5736C46.9054 65.4588 46.9277 65.3499 46.9733 65.2462C47.0184 65.1431 47.0847 65.0528 47.1728 64.9762C47.2604 64.8997 47.3702 64.8381 47.5018 64.7913C47.6333 64.7445 47.7846 64.7211 47.9559 64.7211C48.148 64.7211 48.3231 64.753 48.4801 64.8168C48.6372 64.8806 48.7677 64.9645 48.8727 65.0677L48.7221 65.31Z" fill="white"/>
<path d="M51.938 64.7658L50.4206 68.3223C50.4004 68.3691 50.3744 68.4042 50.3421 68.4286C50.3108 68.4525 50.2625 68.4648 50.1978 68.4648H49.699L50.219 67.3466L49.0942 64.7658H49.6821C49.7341 64.7658 49.7754 64.7785 49.8052 64.804C49.8359 64.8296 49.8587 64.8588 49.8731 64.8912L50.4652 66.3368C50.4848 66.3867 50.5013 66.4362 50.514 66.4856C50.5278 66.534 50.5416 66.5828 50.5543 66.6323C50.5697 66.5828 50.5851 66.5334 50.601 66.4835C50.618 66.4324 50.636 66.383 50.6562 66.3347L51.2164 64.8912C51.2302 64.8545 51.2536 64.8248 51.2865 64.8019C51.3204 64.778 51.3586 64.7658 51.4011 64.7658H51.938Z" fill="white"/>
<path d="M53.0214 63.6242V65.1782C53.0214 65.344 53.0129 65.5066 52.996 65.665C52.98 65.8223 52.9599 65.9903 52.9344 66.1688H52.4781C52.4527 65.9903 52.4314 65.8223 52.4145 65.665C52.3985 65.5066 52.3911 65.344 52.3911 65.1782V63.6242H53.0214ZM52.285 67.185C52.285 67.1287 52.2956 67.0755 52.3168 67.0256C52.3381 66.9745 52.3667 66.9315 52.4038 66.8959C52.4405 66.8592 52.4845 66.83 52.5354 66.8087C52.5864 66.7864 52.6405 66.7747 52.6988 66.7747C52.754 66.7747 52.8071 66.7864 52.858 66.8087C52.9089 66.83 52.9524 66.8592 52.9896 66.8959C53.0278 66.9315 53.0575 66.9745 53.0787 67.0256C53.0999 67.0755 53.1106 67.1287 53.1106 67.185C53.1106 67.2435 53.0999 67.2971 53.0787 67.3466C53.0575 67.3965 53.0278 67.4396 52.9896 67.4762C52.9524 67.5118 52.9089 67.54 52.858 67.5613C52.8071 67.5825 52.754 67.5932 52.6988 67.5932C52.6405 67.5932 52.5864 67.5825 52.5354 67.5613C52.4845 67.54 52.4405 67.5118 52.4038 67.4762C52.3667 67.4396 52.3381 67.3965 52.3168 67.3466C52.2956 67.2971 52.285 67.2435 52.285 67.185Z" fill="white"/>
</g>
<defs>
<clipPath id="clip0_646_105221">
<rect width="45" height="58" fill="white" transform="translate(18 11)"/>
</clipPath>
</defs>
</svg>
