<svg xmlns="http://www.w3.org/2000/svg" xmlns:xlink="http://www.w3.org/1999/xlink" width="589" zoomAndPan="magnify" viewBox="0 0 441.75 421.499983" height="562" preserveAspectRatio="xMidYMid meet" version="1.0"><defs><g/><clipPath id="6cfd6c4d0d"><path d="M 67.167969 0 L 225 0 L 225 291.40625 L 67.167969 291.40625 Z M 67.167969 0 " clip-rule="nonzero"/></clipPath></defs><g fill="#171154" fill-opacity="1"><g transform="translate(56.696727, 356.496368)"><g><path d="M 15.125 -17.234375 C 16.300781 -17.234375 17.328125 -17.378906 18.203125 -17.671875 C 19.085938 -17.972656 19.820312 -18.398438 20.40625 -18.953125 C 20.988281 -19.503906 21.421875 -20.171875 21.703125 -20.953125 C 21.992188 -21.742188 22.140625 -22.628906 22.140625 -23.609375 C 22.140625 -24.535156 21.992188 -25.375 21.703125 -26.125 C 21.421875 -26.875 20.992188 -27.507812 20.421875 -28.03125 C 19.847656 -28.5625 19.117188 -28.96875 18.234375 -29.25 C 17.359375 -29.53125 16.320312 -29.671875 15.125 -29.671875 L 10.3125 -29.671875 L 10.3125 -17.234375 Z M 15.125 -34.65625 C 17.4375 -34.65625 19.441406 -34.382812 21.140625 -33.84375 C 22.835938 -33.300781 24.234375 -32.539062 25.328125 -31.5625 C 26.429688 -30.59375 27.25 -29.425781 27.78125 -28.0625 C 28.320312 -26.707031 28.59375 -25.222656 28.59375 -23.609375 C 28.59375 -21.929688 28.3125 -20.390625 27.75 -18.984375 C 27.195312 -17.585938 26.359375 -16.382812 25.234375 -15.375 C 24.117188 -14.375 22.71875 -13.59375 21.03125 -13.03125 C 19.34375 -12.476562 17.375 -12.203125 15.125 -12.203125 L 10.3125 -12.203125 L 10.3125 0 L 3.859375 0 L 3.859375 -34.65625 Z M 15.125 -34.65625 "/></g></g></g><g fill="#171154" fill-opacity="1"><g transform="translate(86.373577, 356.496368)"><g><path d="M 36.90625 -17.328125 C 36.90625 -14.785156 36.484375 -12.429688 35.640625 -10.265625 C 34.804688 -8.097656 33.625 -6.222656 32.09375 -4.640625 C 30.5625 -3.066406 28.71875 -1.832031 26.5625 -0.9375 C 24.40625 -0.0507812 22.003906 0.390625 19.359375 0.390625 C 16.742188 0.390625 14.359375 -0.0507812 12.203125 -0.9375 C 10.046875 -1.832031 8.195312 -3.066406 6.65625 -4.640625 C 5.113281 -6.222656 3.914062 -8.097656 3.0625 -10.265625 C 2.21875 -12.429688 1.796875 -14.785156 1.796875 -17.328125 C 1.796875 -19.867188 2.21875 -22.222656 3.0625 -24.390625 C 3.914062 -26.554688 5.113281 -28.425781 6.65625 -30 C 8.195312 -31.582031 10.046875 -32.816406 12.203125 -33.703125 C 14.359375 -34.597656 16.742188 -35.046875 19.359375 -35.046875 C 21.117188 -35.046875 22.773438 -34.835938 24.328125 -34.421875 C 25.878906 -34.015625 27.300781 -33.441406 28.59375 -32.703125 C 29.882812 -31.960938 31.046875 -31.0625 32.078125 -30 C 33.109375 -28.9375 33.984375 -27.75 34.703125 -26.4375 C 35.421875 -25.125 35.96875 -23.703125 36.34375 -22.171875 C 36.71875 -20.640625 36.90625 -19.023438 36.90625 -17.328125 Z M 30.328125 -17.328125 C 30.328125 -19.234375 30.066406 -20.941406 29.546875 -22.453125 C 29.035156 -23.960938 28.304688 -25.242188 27.359375 -26.296875 C 26.421875 -27.347656 25.273438 -28.148438 23.921875 -28.703125 C 22.578125 -29.265625 21.054688 -29.546875 19.359375 -29.546875 C 17.671875 -29.546875 16.148438 -29.265625 14.796875 -28.703125 C 13.453125 -28.148438 12.300781 -27.347656 11.34375 -26.296875 C 10.394531 -25.242188 9.664062 -23.960938 9.15625 -22.453125 C 8.644531 -20.941406 8.390625 -19.234375 8.390625 -17.328125 C 8.390625 -15.429688 8.644531 -13.726562 9.15625 -12.21875 C 9.664062 -10.707031 10.394531 -9.425781 11.34375 -8.375 C 12.300781 -7.332031 13.453125 -6.53125 14.796875 -5.96875 C 16.148438 -5.40625 17.671875 -5.125 19.359375 -5.125 C 21.054688 -5.125 22.578125 -5.40625 23.921875 -5.96875 C 25.273438 -6.53125 26.421875 -7.332031 27.359375 -8.375 C 28.304688 -9.425781 29.035156 -10.707031 29.546875 -12.21875 C 30.066406 -13.726562 30.328125 -15.429688 30.328125 -17.328125 Z M 30.328125 -17.328125 "/></g></g></g><g fill="#171154" fill-opacity="1"><g transform="translate(125.111705, 356.496368)"><g><path d="M 22.3125 -28.359375 C 22.125 -28.023438 21.921875 -27.78125 21.703125 -27.625 C 21.484375 -27.46875 21.21875 -27.390625 20.90625 -27.390625 C 20.5625 -27.390625 20.191406 -27.515625 19.796875 -27.765625 C 19.410156 -28.015625 18.945312 -28.289062 18.40625 -28.59375 C 17.863281 -28.894531 17.226562 -29.171875 16.5 -29.421875 C 15.769531 -29.671875 14.910156 -29.796875 13.921875 -29.796875 C 13.023438 -29.796875 12.238281 -29.6875 11.5625 -29.46875 C 10.894531 -29.25 10.332031 -28.945312 9.875 -28.5625 C 9.425781 -28.1875 9.085938 -27.726562 8.859375 -27.1875 C 8.640625 -26.65625 8.53125 -26.070312 8.53125 -25.4375 C 8.53125 -24.613281 8.757812 -23.929688 9.21875 -23.390625 C 9.675781 -22.847656 10.28125 -22.382812 11.03125 -22 C 11.78125 -21.613281 12.632812 -21.269531 13.59375 -20.96875 C 14.550781 -20.664062 15.53125 -20.34375 16.53125 -20 C 17.539062 -19.65625 18.523438 -19.253906 19.484375 -18.796875 C 20.441406 -18.347656 21.296875 -17.773438 22.046875 -17.078125 C 22.796875 -16.378906 23.398438 -15.523438 23.859375 -14.515625 C 24.316406 -13.515625 24.546875 -12.296875 24.546875 -10.859375 C 24.546875 -9.296875 24.273438 -7.828125 23.734375 -6.453125 C 23.203125 -5.085938 22.421875 -3.894531 21.390625 -2.875 C 20.359375 -1.863281 19.097656 -1.066406 17.609375 -0.484375 C 16.128906 0.0976562 14.429688 0.390625 12.515625 0.390625 C 11.410156 0.390625 10.320312 0.28125 9.25 0.0625 C 8.175781 -0.15625 7.148438 -0.460938 6.171875 -0.859375 C 5.191406 -1.265625 4.269531 -1.742188 3.40625 -2.296875 C 2.539062 -2.859375 1.773438 -3.484375 1.109375 -4.171875 L 3 -7.265625 C 3.15625 -7.484375 3.359375 -7.664062 3.609375 -7.8125 C 3.867188 -7.96875 4.144531 -8.046875 4.4375 -8.046875 C 4.832031 -8.046875 5.257812 -7.882812 5.71875 -7.5625 C 6.1875 -7.238281 6.738281 -6.875 7.375 -6.46875 C 8.019531 -6.070312 8.769531 -5.707031 9.625 -5.375 C 10.476562 -5.050781 11.503906 -4.890625 12.703125 -4.890625 C 14.535156 -4.890625 15.957031 -5.320312 16.96875 -6.1875 C 17.976562 -7.0625 18.484375 -8.316406 18.484375 -9.953125 C 18.484375 -10.859375 18.253906 -11.597656 17.796875 -12.171875 C 17.335938 -12.742188 16.734375 -13.226562 15.984375 -13.625 C 15.234375 -14.019531 14.378906 -14.351562 13.421875 -14.625 C 12.460938 -14.894531 11.488281 -15.1875 10.5 -15.5 C 9.507812 -15.820312 8.535156 -16.207031 7.578125 -16.65625 C 6.617188 -17.101562 5.765625 -17.6875 5.015625 -18.40625 C 4.265625 -19.125 3.660156 -20.019531 3.203125 -21.09375 C 2.742188 -22.175781 2.515625 -23.507812 2.515625 -25.09375 C 2.515625 -26.351562 2.765625 -27.582031 3.265625 -28.78125 C 3.773438 -29.976562 4.507812 -31.039062 5.46875 -31.96875 C 6.425781 -32.894531 7.609375 -33.640625 9.015625 -34.203125 C 10.421875 -34.765625 12.035156 -35.046875 13.859375 -35.046875 C 15.898438 -35.046875 17.78125 -34.722656 19.5 -34.078125 C 21.226562 -33.441406 22.703125 -32.550781 23.921875 -31.40625 Z M 22.3125 -28.359375 "/></g></g></g><g fill="#171154" fill-opacity="1"><g transform="translate(151.408557, 356.496368)"><g/></g></g><g fill="#171154" fill-opacity="1"><g transform="translate(163.05876, 356.496368)"><g><path d="M 8.46875 -21.578125 C 8.957031 -22.066406 9.476562 -22.519531 10.03125 -22.9375 C 10.582031 -23.363281 11.164062 -23.722656 11.78125 -24.015625 C 12.394531 -24.316406 13.050781 -24.550781 13.75 -24.71875 C 14.457031 -24.882812 15.226562 -24.96875 16.0625 -24.96875 C 17.40625 -24.96875 18.59375 -24.738281 19.625 -24.28125 C 20.664062 -23.832031 21.535156 -23.195312 22.234375 -22.375 C 22.929688 -21.550781 23.457031 -20.566406 23.8125 -19.421875 C 24.175781 -18.285156 24.359375 -17.03125 24.359375 -15.65625 L 24.359375 0 L 18.4375 0 L 18.4375 -15.65625 C 18.4375 -17.15625 18.09375 -18.316406 17.40625 -19.140625 C 16.71875 -19.960938 15.671875 -20.375 14.265625 -20.375 C 13.242188 -20.375 12.285156 -20.140625 11.390625 -19.671875 C 10.492188 -19.210938 9.644531 -18.582031 8.84375 -17.78125 L 8.84375 0 L 2.921875 0 L 2.921875 -24.59375 L 6.546875 -24.59375 C 7.304688 -24.59375 7.804688 -24.234375 8.046875 -23.515625 Z M 8.46875 -21.578125 "/></g></g></g><g fill="#171154" fill-opacity="1"><g transform="translate(190.098734, 356.496368)"><g><path d="M 15.921875 -10.5 C 14.203125 -10.414062 12.757812 -10.265625 11.59375 -10.046875 C 10.425781 -9.835938 9.488281 -9.5625 8.78125 -9.21875 C 8.082031 -8.882812 7.582031 -8.492188 7.28125 -8.046875 C 6.976562 -7.597656 6.828125 -7.113281 6.828125 -6.59375 C 6.828125 -5.550781 7.132812 -4.804688 7.75 -4.359375 C 8.363281 -3.910156 9.164062 -3.6875 10.15625 -3.6875 C 11.375 -3.6875 12.425781 -3.90625 13.3125 -4.34375 C 14.195312 -4.789062 15.066406 -5.460938 15.921875 -6.359375 Z M 2.34375 -21.171875 C 5.175781 -23.753906 8.582031 -25.046875 12.5625 -25.046875 C 14 -25.046875 15.285156 -24.8125 16.421875 -24.34375 C 17.554688 -23.875 18.515625 -23.21875 19.296875 -22.375 C 20.078125 -21.53125 20.671875 -20.523438 21.078125 -19.359375 C 21.484375 -18.191406 21.6875 -16.914062 21.6875 -15.53125 L 21.6875 0 L 19 0 C 18.445312 0 18.015625 -0.0820312 17.703125 -0.25 C 17.398438 -0.414062 17.164062 -0.753906 17 -1.265625 L 16.46875 -3.046875 C 15.84375 -2.484375 15.234375 -1.988281 14.640625 -1.5625 C 14.054688 -1.144531 13.441406 -0.789062 12.796875 -0.5 C 12.160156 -0.21875 11.476562 0 10.75 0.15625 C 10.019531 0.3125 9.21875 0.390625 8.34375 0.390625 C 7.300781 0.390625 6.335938 0.25 5.453125 -0.03125 C 4.578125 -0.3125 3.820312 -0.734375 3.1875 -1.296875 C 2.550781 -1.859375 2.054688 -2.550781 1.703125 -3.375 C 1.347656 -4.207031 1.171875 -5.175781 1.171875 -6.28125 C 1.171875 -6.90625 1.273438 -7.523438 1.484375 -8.140625 C 1.691406 -8.753906 2.03125 -9.335938 2.5 -9.890625 C 2.976562 -10.453125 3.59375 -10.976562 4.34375 -11.46875 C 5.09375 -11.96875 6.015625 -12.398438 7.109375 -12.765625 C 8.203125 -13.140625 9.472656 -13.441406 10.921875 -13.671875 C 12.378906 -13.898438 14.046875 -14.039062 15.921875 -14.09375 L 15.921875 -15.53125 C 15.921875 -17.175781 15.566406 -18.394531 14.859375 -19.1875 C 14.160156 -19.976562 13.144531 -20.375 11.8125 -20.375 C 10.851562 -20.375 10.054688 -20.257812 9.421875 -20.03125 C 8.796875 -19.8125 8.242188 -19.5625 7.765625 -19.28125 C 7.285156 -19 6.847656 -18.742188 6.453125 -18.515625 C 6.066406 -18.296875 5.632812 -18.1875 5.15625 -18.1875 C 4.738281 -18.1875 4.382812 -18.296875 4.09375 -18.515625 C 3.8125 -18.734375 3.582031 -18.984375 3.40625 -19.265625 Z M 2.34375 -21.171875 "/></g></g></g><g fill="#171154" fill-opacity="1"><g transform="translate(214.429923, 356.496368)"><g/></g></g><g fill="#171154" fill-opacity="1"><g transform="translate(226.080127, 356.496368)"><g><path d="M 22.3125 -28.359375 C 22.125 -28.023438 21.921875 -27.78125 21.703125 -27.625 C 21.484375 -27.46875 21.21875 -27.390625 20.90625 -27.390625 C 20.5625 -27.390625 20.191406 -27.515625 19.796875 -27.765625 C 19.410156 -28.015625 18.945312 -28.289062 18.40625 -28.59375 C 17.863281 -28.894531 17.226562 -29.171875 16.5 -29.421875 C 15.769531 -29.671875 14.910156 -29.796875 13.921875 -29.796875 C 13.023438 -29.796875 12.238281 -29.6875 11.5625 -29.46875 C 10.894531 -29.25 10.332031 -28.945312 9.875 -28.5625 C 9.425781 -28.1875 9.085938 -27.726562 8.859375 -27.1875 C 8.640625 -26.65625 8.53125 -26.070312 8.53125 -25.4375 C 8.53125 -24.613281 8.757812 -23.929688 9.21875 -23.390625 C 9.675781 -22.847656 10.28125 -22.382812 11.03125 -22 C 11.78125 -21.613281 12.632812 -21.269531 13.59375 -20.96875 C 14.550781 -20.664062 15.53125 -20.34375 16.53125 -20 C 17.539062 -19.65625 18.523438 -19.253906 19.484375 -18.796875 C 20.441406 -18.347656 21.296875 -17.773438 22.046875 -17.078125 C 22.796875 -16.378906 23.398438 -15.523438 23.859375 -14.515625 C 24.316406 -13.515625 24.546875 -12.296875 24.546875 -10.859375 C 24.546875 -9.296875 24.273438 -7.828125 23.734375 -6.453125 C 23.203125 -5.085938 22.421875 -3.894531 21.390625 -2.875 C 20.359375 -1.863281 19.097656 -1.066406 17.609375 -0.484375 C 16.128906 0.0976562 14.429688 0.390625 12.515625 0.390625 C 11.410156 0.390625 10.320312 0.28125 9.25 0.0625 C 8.175781 -0.15625 7.148438 -0.460938 6.171875 -0.859375 C 5.191406 -1.265625 4.269531 -1.742188 3.40625 -2.296875 C 2.539062 -2.859375 1.773438 -3.484375 1.109375 -4.171875 L 3 -7.265625 C 3.15625 -7.484375 3.359375 -7.664062 3.609375 -7.8125 C 3.867188 -7.96875 4.144531 -8.046875 4.4375 -8.046875 C 4.832031 -8.046875 5.257812 -7.882812 5.71875 -7.5625 C 6.1875 -7.238281 6.738281 -6.875 7.375 -6.46875 C 8.019531 -6.070312 8.769531 -5.707031 9.625 -5.375 C 10.476562 -5.050781 11.503906 -4.890625 12.703125 -4.890625 C 14.535156 -4.890625 15.957031 -5.320312 16.96875 -6.1875 C 17.976562 -7.0625 18.484375 -8.316406 18.484375 -9.953125 C 18.484375 -10.859375 18.253906 -11.597656 17.796875 -12.171875 C 17.335938 -12.742188 16.734375 -13.226562 15.984375 -13.625 C 15.234375 -14.019531 14.378906 -14.351562 13.421875 -14.625 C 12.460938 -14.894531 11.488281 -15.1875 10.5 -15.5 C 9.507812 -15.820312 8.535156 -16.207031 7.578125 -16.65625 C 6.617188 -17.101562 5.765625 -17.6875 5.015625 -18.40625 C 4.265625 -19.125 3.660156 -20.019531 3.203125 -21.09375 C 2.742188 -22.175781 2.515625 -23.507812 2.515625 -25.09375 C 2.515625 -26.351562 2.765625 -27.582031 3.265625 -28.78125 C 3.773438 -29.976562 4.507812 -31.039062 5.46875 -31.96875 C 6.425781 -32.894531 7.609375 -33.640625 9.015625 -34.203125 C 10.421875 -34.765625 12.035156 -35.046875 13.859375 -35.046875 C 15.898438 -35.046875 17.78125 -34.722656 19.5 -34.078125 C 21.226562 -33.441406 22.703125 -32.550781 23.921875 -31.40625 Z M 22.3125 -28.359375 "/></g></g></g><g fill="#171154" fill-opacity="1"><g transform="translate(252.376979, 356.496368)"><g><path d="M 28.0625 -29.359375 L 17.609375 -29.359375 L 17.609375 0 L 11.171875 0 L 11.171875 -29.359375 L 0.71875 -29.359375 L 0.71875 -34.65625 L 28.0625 -34.65625 Z M 28.0625 -29.359375 "/></g></g></g><g fill="#171154" fill-opacity="1"><g transform="translate(281.142917, 356.496368)"><g><path d="M 36.90625 -17.328125 C 36.90625 -14.785156 36.484375 -12.429688 35.640625 -10.265625 C 34.804688 -8.097656 33.625 -6.222656 32.09375 -4.640625 C 30.5625 -3.066406 28.71875 -1.832031 26.5625 -0.9375 C 24.40625 -0.0507812 22.003906 0.390625 19.359375 0.390625 C 16.742188 0.390625 14.359375 -0.0507812 12.203125 -0.9375 C 10.046875 -1.832031 8.195312 -3.066406 6.65625 -4.640625 C 5.113281 -6.222656 3.914062 -8.097656 3.0625 -10.265625 C 2.21875 -12.429688 1.796875 -14.785156 1.796875 -17.328125 C 1.796875 -19.867188 2.21875 -22.222656 3.0625 -24.390625 C 3.914062 -26.554688 5.113281 -28.425781 6.65625 -30 C 8.195312 -31.582031 10.046875 -32.816406 12.203125 -33.703125 C 14.359375 -34.597656 16.742188 -35.046875 19.359375 -35.046875 C 21.117188 -35.046875 22.773438 -34.835938 24.328125 -34.421875 C 25.878906 -34.015625 27.300781 -33.441406 28.59375 -32.703125 C 29.882812 -31.960938 31.046875 -31.0625 32.078125 -30 C 33.109375 -28.9375 33.984375 -27.75 34.703125 -26.4375 C 35.421875 -25.125 35.96875 -23.703125 36.34375 -22.171875 C 36.71875 -20.640625 36.90625 -19.023438 36.90625 -17.328125 Z M 30.328125 -17.328125 C 30.328125 -19.234375 30.066406 -20.941406 29.546875 -22.453125 C 29.035156 -23.960938 28.304688 -25.242188 27.359375 -26.296875 C 26.421875 -27.347656 25.273438 -28.148438 23.921875 -28.703125 C 22.578125 -29.265625 21.054688 -29.546875 19.359375 -29.546875 C 17.671875 -29.546875 16.148438 -29.265625 14.796875 -28.703125 C 13.453125 -28.148438 12.300781 -27.347656 11.34375 -26.296875 C 10.394531 -25.242188 9.664062 -23.960938 9.15625 -22.453125 C 8.644531 -20.941406 8.390625 -19.234375 8.390625 -17.328125 C 8.390625 -15.429688 8.644531 -13.726562 9.15625 -12.21875 C 9.664062 -10.707031 10.394531 -9.425781 11.34375 -8.375 C 12.300781 -7.332031 13.453125 -6.53125 14.796875 -5.96875 C 16.148438 -5.40625 17.671875 -5.125 19.359375 -5.125 C 21.054688 -5.125 22.578125 -5.40625 23.921875 -5.96875 C 25.273438 -6.53125 26.421875 -7.332031 27.359375 -8.375 C 28.304688 -9.425781 29.035156 -10.707031 29.546875 -12.21875 C 30.066406 -13.726562 30.328125 -15.429688 30.328125 -17.328125 Z M 30.328125 -17.328125 "/></g></g></g><g fill="#171154" fill-opacity="1"><g transform="translate(319.881057, 356.496368)"><g><path d="M 27.65625 -8.171875 C 28.007812 -8.171875 28.320312 -8.035156 28.59375 -7.765625 L 31.140625 -5.015625 C 29.734375 -3.265625 28 -1.925781 25.9375 -1 C 23.882812 -0.0703125 21.421875 0.390625 18.546875 0.390625 C 15.972656 0.390625 13.660156 -0.046875 11.609375 -0.921875 C 9.554688 -1.804688 7.800781 -3.03125 6.34375 -4.59375 C 4.894531 -6.164062 3.78125 -8.035156 3 -10.203125 C 2.226562 -12.378906 1.84375 -14.753906 1.84375 -17.328125 C 1.84375 -19.929688 2.257812 -22.316406 3.09375 -24.484375 C 3.925781 -26.648438 5.097656 -28.515625 6.609375 -30.078125 C 8.117188 -31.640625 9.914062 -32.859375 12 -33.734375 C 14.09375 -34.609375 16.410156 -35.046875 18.953125 -35.046875 C 21.484375 -35.046875 23.726562 -34.628906 25.6875 -33.796875 C 27.644531 -32.960938 29.3125 -31.875 30.6875 -30.53125 L 28.515625 -27.546875 C 28.390625 -27.347656 28.226562 -27.175781 28.03125 -27.03125 C 27.832031 -26.894531 27.554688 -26.828125 27.203125 -26.828125 C 26.960938 -26.828125 26.710938 -26.894531 26.453125 -27.03125 C 26.203125 -27.164062 25.925781 -27.332031 25.625 -27.53125 C 25.320312 -27.726562 24.96875 -27.945312 24.5625 -28.1875 C 24.164062 -28.425781 23.703125 -28.644531 23.171875 -28.84375 C 22.648438 -29.039062 22.039062 -29.207031 21.34375 -29.34375 C 20.644531 -29.476562 19.84375 -29.546875 18.9375 -29.546875 C 17.382812 -29.546875 15.960938 -29.269531 14.671875 -28.71875 C 13.390625 -28.175781 12.285156 -27.378906 11.359375 -26.328125 C 10.429688 -25.285156 9.710938 -24.007812 9.203125 -22.5 C 8.691406 -20.988281 8.4375 -19.265625 8.4375 -17.328125 C 8.4375 -15.378906 8.710938 -13.644531 9.265625 -12.125 C 9.816406 -10.601562 10.5625 -9.320312 11.5 -8.28125 C 12.445312 -7.25 13.554688 -6.457031 14.828125 -5.90625 C 16.109375 -5.351562 17.484375 -5.078125 18.953125 -5.078125 C 19.835938 -5.078125 20.632812 -5.125 21.34375 -5.21875 C 22.050781 -5.320312 22.703125 -5.472656 23.296875 -5.671875 C 23.898438 -5.878906 24.46875 -6.144531 25 -6.46875 C 25.539062 -6.800781 26.078125 -7.207031 26.609375 -7.6875 C 26.765625 -7.832031 26.929688 -7.945312 27.109375 -8.03125 C 27.285156 -8.125 27.46875 -8.171875 27.65625 -8.171875 Z M 27.65625 -8.171875 "/></g></g></g><g fill="#171154" fill-opacity="1"><g transform="translate(351.595501, 356.496368)"><g><path d="M 10.3125 -20.140625 L 11.8125 -20.140625 C 12.425781 -20.140625 12.929688 -20.222656 13.328125 -20.390625 C 13.722656 -20.554688 14.066406 -20.820312 14.359375 -21.1875 L 23.921875 -33.296875 C 24.316406 -33.804688 24.734375 -34.160156 25.171875 -34.359375 C 25.617188 -34.554688 26.175781 -34.65625 26.84375 -34.65625 L 32.40625 -34.65625 L 20.734375 -20.25 C 20.046875 -19.375 19.332031 -18.753906 18.59375 -18.390625 C 19.125 -18.191406 19.597656 -17.921875 20.015625 -17.578125 C 20.441406 -17.234375 20.847656 -16.785156 21.234375 -16.234375 L 33.265625 0 L 27.59375 0 C 26.820312 0 26.25 -0.101562 25.875 -0.3125 C 25.5 -0.53125 25.179688 -0.847656 24.921875 -1.265625 L 15.125 -14.0625 C 14.820312 -14.5 14.46875 -14.804688 14.0625 -14.984375 C 13.664062 -15.160156 13.09375 -15.25 12.34375 -15.25 L 10.3125 -15.25 L 10.3125 0 L 3.859375 0 L 3.859375 -34.65625 L 10.3125 -34.65625 Z M 10.3125 -20.140625 "/></g></g></g><g fill="#171154" fill-opacity="1"><g transform="translate(151.002819, 403.052349)"><g><path d="M 9.8125 -2.9375 C 10.507812 -2.9375 11.097656 -3.019531 11.578125 -3.1875 C 12.054688 -3.351562 12.4375 -3.578125 12.71875 -3.859375 C 13 -4.140625 13.203125 -4.460938 13.328125 -4.828125 C 13.453125 -5.203125 13.515625 -5.601562 13.515625 -6.03125 C 13.515625 -6.46875 13.445312 -6.859375 13.3125 -7.203125 C 13.175781 -7.554688 12.957031 -7.851562 12.65625 -8.09375 C 12.351562 -8.34375 11.96875 -8.53125 11.5 -8.65625 C 11.03125 -8.789062 10.460938 -8.859375 9.796875 -8.859375 L 6.015625 -8.859375 L 6.015625 -2.9375 Z M 6.015625 -17.3125 L 6.015625 -11.46875 L 9 -11.46875 C 10.289062 -11.46875 11.265625 -11.695312 11.921875 -12.15625 C 12.578125 -12.625 12.90625 -13.367188 12.90625 -14.390625 C 12.90625 -15.441406 12.609375 -16.191406 12.015625 -16.640625 C 11.421875 -17.085938 10.488281 -17.3125 9.21875 -17.3125 Z M 9.21875 -20.21875 C 10.539062 -20.21875 11.671875 -20.09375 12.609375 -19.84375 C 13.554688 -19.59375 14.328125 -19.234375 14.921875 -18.765625 C 15.523438 -18.296875 15.96875 -17.726562 16.25 -17.0625 C 16.53125 -16.40625 16.671875 -15.664062 16.671875 -14.84375 C 16.671875 -14.363281 16.597656 -13.90625 16.453125 -13.46875 C 16.316406 -13.039062 16.101562 -12.632812 15.8125 -12.25 C 15.519531 -11.875 15.144531 -11.53125 14.6875 -11.21875 C 14.238281 -10.914062 13.703125 -10.660156 13.078125 -10.453125 C 15.859375 -9.828125 17.25 -8.320312 17.25 -5.9375 C 17.25 -5.082031 17.082031 -4.289062 16.75 -3.5625 C 16.425781 -2.832031 15.953125 -2.203125 15.328125 -1.671875 C 14.703125 -1.148438 13.929688 -0.738281 13.015625 -0.4375 C 12.109375 -0.144531 11.066406 0 9.890625 0 L 2.25 0 L 2.25 -20.21875 Z M 9.21875 -20.21875 "/></g></g></g><g fill="#171154" fill-opacity="1"><g transform="translate(169.416456, 403.052349)"><g><path d="M 5.28125 -14.34375 L 5.28125 0 L 1.8125 0 L 1.8125 -14.34375 Z M 5.765625 -18.53125 C 5.765625 -18.226562 5.703125 -17.945312 5.578125 -17.6875 C 5.453125 -17.425781 5.289062 -17.195312 5.09375 -17 C 4.894531 -16.8125 4.660156 -16.65625 4.390625 -16.53125 C 4.117188 -16.414062 3.832031 -16.359375 3.53125 -16.359375 C 3.226562 -16.359375 2.941406 -16.414062 2.671875 -16.53125 C 2.410156 -16.65625 2.179688 -16.8125 1.984375 -17 C 1.785156 -17.195312 1.628906 -17.425781 1.515625 -17.6875 C 1.398438 -17.945312 1.34375 -18.226562 1.34375 -18.53125 C 1.34375 -18.832031 1.398438 -19.117188 1.515625 -19.390625 C 1.628906 -19.660156 1.785156 -19.894531 1.984375 -20.09375 C 2.179688 -20.289062 2.410156 -20.445312 2.671875 -20.5625 C 2.941406 -20.675781 3.226562 -20.734375 3.53125 -20.734375 C 3.832031 -20.734375 4.117188 -20.675781 4.390625 -20.5625 C 4.660156 -20.445312 4.894531 -20.289062 5.09375 -20.09375 C 5.289062 -19.894531 5.453125 -19.660156 5.578125 -19.390625 C 5.703125 -19.117188 5.765625 -18.832031 5.765625 -18.53125 Z M 5.765625 -18.53125 "/></g></g></g><g fill="#171154" fill-opacity="1"><g transform="translate(176.519057, 403.052349)"><g><path d="M 12.015625 -12.921875 C 12.015625 -12.679688 11.972656 -12.441406 11.890625 -12.203125 C 11.804688 -11.972656 11.691406 -11.785156 11.546875 -11.640625 L 4.734375 -2.65625 L 11.796875 -2.65625 L 11.796875 0 L 0.734375 0 L 0.734375 -1.4375 C 0.734375 -1.59375 0.769531 -1.78125 0.84375 -2 C 0.914062 -2.21875 1.023438 -2.425781 1.171875 -2.625 L 8.0625 -11.703125 L 1.125 -11.703125 L 1.125 -14.34375 L 12.015625 -14.34375 Z M 12.015625 -12.921875 "/></g></g></g><g fill="#171154" fill-opacity="1"><g transform="translate(189.36806, 403.052349)"><g><path d="M 4.9375 -12.59375 C 5.226562 -12.875 5.53125 -13.140625 5.84375 -13.390625 C 6.164062 -13.640625 6.503906 -13.847656 6.859375 -14.015625 C 7.222656 -14.191406 7.609375 -14.328125 8.015625 -14.421875 C 8.429688 -14.523438 8.882812 -14.578125 9.375 -14.578125 C 10.15625 -14.578125 10.847656 -14.441406 11.453125 -14.171875 C 12.054688 -13.910156 12.5625 -13.535156 12.96875 -13.046875 C 13.375 -12.566406 13.679688 -11.992188 13.890625 -11.328125 C 14.097656 -10.660156 14.203125 -9.925781 14.203125 -9.125 L 14.203125 0 L 10.75 0 L 10.75 -9.125 C 10.75 -10.007812 10.546875 -10.691406 10.140625 -11.171875 C 9.742188 -11.648438 9.140625 -11.890625 8.328125 -11.890625 C 7.722656 -11.890625 7.160156 -11.753906 6.640625 -11.484375 C 6.117188 -11.210938 5.625 -10.84375 5.15625 -10.375 L 5.15625 0 L 1.703125 0 L 1.703125 -14.34375 L 3.8125 -14.34375 C 4.257812 -14.34375 4.554688 -14.132812 4.703125 -13.71875 Z M 4.9375 -12.59375 "/></g></g></g><g fill="#171154" fill-opacity="1"><g transform="translate(205.139199, 403.052349)"><g><path d="M 9.28125 -6.125 C 8.289062 -6.082031 7.453125 -5.992188 6.765625 -5.859375 C 6.085938 -5.734375 5.539062 -5.570312 5.125 -5.375 C 4.71875 -5.1875 4.425781 -4.960938 4.25 -4.703125 C 4.070312 -4.441406 3.984375 -4.15625 3.984375 -3.84375 C 3.984375 -3.238281 4.160156 -2.804688 4.515625 -2.546875 C 4.878906 -2.285156 5.347656 -2.15625 5.921875 -2.15625 C 6.640625 -2.15625 7.253906 -2.28125 7.765625 -2.53125 C 8.285156 -2.789062 8.789062 -3.179688 9.28125 -3.703125 Z M 1.375 -12.34375 C 3.019531 -13.851562 5.003906 -14.609375 7.328125 -14.609375 C 8.171875 -14.609375 8.921875 -14.46875 9.578125 -14.1875 C 10.242188 -13.914062 10.800781 -13.535156 11.25 -13.046875 C 11.707031 -12.554688 12.054688 -11.972656 12.296875 -11.296875 C 12.535156 -10.617188 12.65625 -9.875 12.65625 -9.0625 L 12.65625 0 L 11.09375 0 C 10.757812 0 10.503906 -0.046875 10.328125 -0.140625 C 10.148438 -0.242188 10.015625 -0.441406 9.921875 -0.734375 L 9.609375 -1.78125 C 9.242188 -1.445312 8.890625 -1.15625 8.546875 -0.90625 C 8.203125 -0.664062 7.84375 -0.460938 7.46875 -0.296875 C 7.09375 -0.128906 6.691406 -0.00390625 6.265625 0.078125 C 5.847656 0.171875 5.378906 0.21875 4.859375 0.21875 C 4.253906 0.21875 3.695312 0.140625 3.1875 -0.015625 C 2.675781 -0.179688 2.234375 -0.425781 1.859375 -0.75 C 1.484375 -1.082031 1.191406 -1.488281 0.984375 -1.96875 C 0.785156 -2.457031 0.6875 -3.019531 0.6875 -3.65625 C 0.6875 -4.019531 0.742188 -4.378906 0.859375 -4.734375 C 0.984375 -5.097656 1.179688 -5.441406 1.453125 -5.765625 C 1.734375 -6.097656 2.09375 -6.40625 2.53125 -6.6875 C 2.96875 -6.976562 3.503906 -7.234375 4.140625 -7.453125 C 4.785156 -7.671875 5.53125 -7.847656 6.375 -7.984375 C 7.226562 -8.117188 8.195312 -8.195312 9.28125 -8.21875 L 9.28125 -9.0625 C 9.28125 -10.019531 9.078125 -10.726562 8.671875 -11.1875 C 8.265625 -11.65625 7.671875 -11.890625 6.890625 -11.890625 C 6.335938 -11.890625 5.875 -11.820312 5.5 -11.6875 C 5.132812 -11.5625 4.8125 -11.414062 4.53125 -11.25 C 4.25 -11.082031 3.992188 -10.929688 3.765625 -10.796875 C 3.535156 -10.671875 3.28125 -10.609375 3 -10.609375 C 2.757812 -10.609375 2.554688 -10.671875 2.390625 -10.796875 C 2.222656 -10.921875 2.085938 -11.070312 1.984375 -11.25 Z M 1.375 -12.34375 "/></g></g></g><g fill="#171154" fill-opacity="1"><g transform="translate(219.330421, 403.052349)"><g/></g></g><g fill="#171154" fill-opacity="1"><g transform="translate(226.125438, 403.052349)"><g><path d="M 10.953125 -8.828125 C 10.953125 -9.273438 10.890625 -9.695312 10.765625 -10.09375 C 10.640625 -10.488281 10.445312 -10.832031 10.1875 -11.125 C 9.9375 -11.425781 9.617188 -11.660156 9.234375 -11.828125 C 8.847656 -12.003906 8.398438 -12.09375 7.890625 -12.09375 C 6.890625 -12.09375 6.101562 -11.804688 5.53125 -11.234375 C 4.957031 -10.671875 4.59375 -9.867188 4.4375 -8.828125 Z M 4.359375 -6.734375 C 4.421875 -6.003906 4.550781 -5.367188 4.75 -4.828125 C 4.957031 -4.296875 5.226562 -3.851562 5.5625 -3.5 C 5.894531 -3.15625 6.289062 -2.894531 6.75 -2.71875 C 7.21875 -2.550781 7.734375 -2.46875 8.296875 -2.46875 C 8.847656 -2.46875 9.328125 -2.53125 9.734375 -2.65625 C 10.140625 -2.789062 10.492188 -2.9375 10.796875 -3.09375 C 11.097656 -3.25 11.363281 -3.390625 11.59375 -3.515625 C 11.820312 -3.648438 12.046875 -3.71875 12.265625 -3.71875 C 12.554688 -3.71875 12.769531 -3.609375 12.90625 -3.390625 L 13.90625 -2.140625 C 13.519531 -1.691406 13.085938 -1.316406 12.609375 -1.015625 C 12.140625 -0.710938 11.644531 -0.46875 11.125 -0.28125 C 10.601562 -0.101562 10.070312 0.0195312 9.53125 0.09375 C 9 0.164062 8.484375 0.203125 7.984375 0.203125 C 6.984375 0.203125 6.054688 0.0390625 5.203125 -0.28125 C 4.347656 -0.613281 3.601562 -1.101562 2.96875 -1.75 C 2.332031 -2.40625 1.832031 -3.207031 1.46875 -4.15625 C 1.101562 -5.113281 0.921875 -6.222656 0.921875 -7.484375 C 0.921875 -8.460938 1.078125 -9.378906 1.390625 -10.234375 C 1.710938 -11.097656 2.171875 -11.847656 2.765625 -12.484375 C 3.359375 -13.128906 4.078125 -13.640625 4.921875 -14.015625 C 5.773438 -14.390625 6.738281 -14.578125 7.8125 -14.578125 C 8.71875 -14.578125 9.550781 -14.429688 10.3125 -14.140625 C 11.082031 -13.847656 11.742188 -13.425781 12.296875 -12.875 C 12.847656 -12.320312 13.273438 -11.640625 13.578125 -10.828125 C 13.890625 -10.023438 14.046875 -9.101562 14.046875 -8.0625 C 14.046875 -7.539062 13.988281 -7.1875 13.875 -7 C 13.769531 -6.820312 13.5625 -6.734375 13.25 -6.734375 Z M 4.359375 -6.734375 "/></g></g></g><g fill="#171154" fill-opacity="1"><g transform="translate(241.05769, 403.052349)"><g><path d="M 9.28125 -6.125 C 8.289062 -6.082031 7.453125 -5.992188 6.765625 -5.859375 C 6.085938 -5.734375 5.539062 -5.570312 5.125 -5.375 C 4.71875 -5.1875 4.425781 -4.960938 4.25 -4.703125 C 4.070312 -4.441406 3.984375 -4.15625 3.984375 -3.84375 C 3.984375 -3.238281 4.160156 -2.804688 4.515625 -2.546875 C 4.878906 -2.285156 5.347656 -2.15625 5.921875 -2.15625 C 6.640625 -2.15625 7.253906 -2.28125 7.765625 -2.53125 C 8.285156 -2.789062 8.789062 -3.179688 9.28125 -3.703125 Z M 1.375 -12.34375 C 3.019531 -13.851562 5.003906 -14.609375 7.328125 -14.609375 C 8.171875 -14.609375 8.921875 -14.46875 9.578125 -14.1875 C 10.242188 -13.914062 10.800781 -13.535156 11.25 -13.046875 C 11.707031 -12.554688 12.054688 -11.972656 12.296875 -11.296875 C 12.535156 -10.617188 12.65625 -9.875 12.65625 -9.0625 L 12.65625 0 L 11.09375 0 C 10.757812 0 10.503906 -0.046875 10.328125 -0.140625 C 10.148438 -0.242188 10.015625 -0.441406 9.921875 -0.734375 L 9.609375 -1.78125 C 9.242188 -1.445312 8.890625 -1.15625 8.546875 -0.90625 C 8.203125 -0.664062 7.84375 -0.460938 7.46875 -0.296875 C 7.09375 -0.128906 6.691406 -0.00390625 6.265625 0.078125 C 5.847656 0.171875 5.378906 0.21875 4.859375 0.21875 C 4.253906 0.21875 3.695312 0.140625 3.1875 -0.015625 C 2.675781 -0.179688 2.234375 -0.425781 1.859375 -0.75 C 1.484375 -1.082031 1.191406 -1.488281 0.984375 -1.96875 C 0.785156 -2.457031 0.6875 -3.019531 0.6875 -3.65625 C 0.6875 -4.019531 0.742188 -4.378906 0.859375 -4.734375 C 0.984375 -5.097656 1.179688 -5.441406 1.453125 -5.765625 C 1.734375 -6.097656 2.09375 -6.40625 2.53125 -6.6875 C 2.96875 -6.976562 3.503906 -7.234375 4.140625 -7.453125 C 4.785156 -7.671875 5.53125 -7.847656 6.375 -7.984375 C 7.226562 -8.117188 8.195312 -8.195312 9.28125 -8.21875 L 9.28125 -9.0625 C 9.28125 -10.019531 9.078125 -10.726562 8.671875 -11.1875 C 8.265625 -11.65625 7.671875 -11.890625 6.890625 -11.890625 C 6.335938 -11.890625 5.875 -11.820312 5.5 -11.6875 C 5.132812 -11.5625 4.8125 -11.414062 4.53125 -11.25 C 4.25 -11.082031 3.992188 -10.929688 3.765625 -10.796875 C 3.535156 -10.671875 3.28125 -10.609375 3 -10.609375 C 2.757812 -10.609375 2.554688 -10.671875 2.390625 -10.796875 C 2.222656 -10.921875 2.085938 -11.070312 1.984375 -11.25 Z M 1.375 -12.34375 "/></g></g></g><g fill="#171154" fill-opacity="1"><g transform="translate(255.248912, 403.052349)"><g><path d="M 10.453125 -11.546875 C 10.367188 -11.398438 10.273438 -11.296875 10.171875 -11.234375 C 10.066406 -11.171875 9.9375 -11.140625 9.78125 -11.140625 C 9.601562 -11.140625 9.421875 -11.1875 9.234375 -11.28125 C 9.046875 -11.375 8.820312 -11.476562 8.5625 -11.59375 C 8.3125 -11.71875 8.023438 -11.820312 7.703125 -11.90625 C 7.390625 -12 7.015625 -12.046875 6.578125 -12.046875 C 5.890625 -12.046875 5.351562 -11.898438 4.96875 -11.609375 C 4.582031 -11.328125 4.390625 -10.953125 4.390625 -10.484375 C 4.390625 -10.179688 4.488281 -9.921875 4.6875 -9.703125 C 4.894531 -9.492188 5.160156 -9.3125 5.484375 -9.15625 C 5.816406 -9 6.191406 -8.859375 6.609375 -8.734375 C 7.035156 -8.609375 7.460938 -8.46875 7.890625 -8.3125 C 8.328125 -8.164062 8.753906 -8 9.171875 -7.8125 C 9.585938 -7.625 9.960938 -7.378906 10.296875 -7.078125 C 10.628906 -6.785156 10.894531 -6.429688 11.09375 -6.015625 C 11.289062 -5.609375 11.390625 -5.117188 11.390625 -4.546875 C 11.390625 -3.859375 11.265625 -3.222656 11.015625 -2.640625 C 10.773438 -2.054688 10.410156 -1.550781 9.921875 -1.125 C 9.441406 -0.695312 8.84375 -0.363281 8.125 -0.125 C 7.414062 0.101562 6.59375 0.21875 5.65625 0.21875 C 5.164062 0.21875 4.6875 0.171875 4.21875 0.078125 C 3.75 -0.00390625 3.296875 -0.125 2.859375 -0.28125 C 2.421875 -0.4375 2.019531 -0.617188 1.65625 -0.828125 C 1.289062 -1.046875 0.96875 -1.28125 0.6875 -1.53125 L 1.484375 -2.859375 C 1.585938 -3.015625 1.707031 -3.132812 1.84375 -3.21875 C 1.988281 -3.300781 2.164062 -3.34375 2.375 -3.34375 C 2.59375 -3.34375 2.796875 -3.28125 2.984375 -3.15625 C 3.171875 -3.039062 3.390625 -2.910156 3.640625 -2.765625 C 3.898438 -2.628906 4.195312 -2.5 4.53125 -2.375 C 4.875 -2.257812 5.304688 -2.203125 5.828125 -2.203125 C 6.242188 -2.203125 6.597656 -2.25 6.890625 -2.34375 C 7.179688 -2.4375 7.421875 -2.5625 7.609375 -2.71875 C 7.804688 -2.882812 7.945312 -3.070312 8.03125 -3.28125 C 8.125 -3.488281 8.171875 -3.703125 8.171875 -3.921875 C 8.171875 -4.265625 8.066406 -4.539062 7.859375 -4.75 C 7.660156 -4.96875 7.394531 -5.15625 7.0625 -5.3125 C 6.738281 -5.46875 6.363281 -5.609375 5.9375 -5.734375 C 5.507812 -5.859375 5.070312 -5.992188 4.625 -6.140625 C 4.1875 -6.296875 3.753906 -6.472656 3.328125 -6.671875 C 2.910156 -6.878906 2.535156 -7.132812 2.203125 -7.4375 C 1.867188 -7.75 1.601562 -8.128906 1.40625 -8.578125 C 1.207031 -9.023438 1.109375 -9.5625 1.109375 -10.1875 C 1.109375 -10.78125 1.222656 -11.34375 1.453125 -11.875 C 1.679688 -12.40625 2.019531 -12.867188 2.46875 -13.265625 C 2.925781 -13.660156 3.492188 -13.976562 4.171875 -14.21875 C 4.847656 -14.457031 5.628906 -14.578125 6.515625 -14.578125 C 7.503906 -14.578125 8.40625 -14.410156 9.21875 -14.078125 C 10.03125 -13.753906 10.707031 -13.328125 11.25 -12.796875 Z M 10.453125 -11.546875 "/></g></g></g><g fill="#171154" fill-opacity="1"><g transform="translate(267.538654, 403.052349)"><g><path d="M 14.734375 -14.34375 L 6.921875 3.9375 C 6.816406 4.1875 6.679688 4.375 6.515625 4.5 C 6.359375 4.625 6.113281 4.6875 5.78125 4.6875 L 3.203125 4.6875 L 5.890625 -1.078125 L 0.078125 -14.34375 L 3.125 -14.34375 C 3.394531 -14.34375 3.601562 -14.273438 3.75 -14.140625 C 3.90625 -14.015625 4.019531 -13.867188 4.09375 -13.703125 L 7.140625 -6.265625 C 7.242188 -6.015625 7.332031 -5.757812 7.40625 -5.5 C 7.476562 -5.25 7.546875 -4.992188 7.609375 -4.734375 C 7.691406 -4.992188 7.773438 -5.253906 7.859375 -5.515625 C 7.941406 -5.773438 8.035156 -6.03125 8.140625 -6.28125 L 11.015625 -13.703125 C 11.085938 -13.890625 11.210938 -14.039062 11.390625 -14.15625 C 11.566406 -14.28125 11.757812 -14.34375 11.96875 -14.34375 Z M 14.734375 -14.34375 "/></g></g></g><g fill="#171154" fill-opacity="1"><g transform="translate(282.289138, 403.052349)"><g><path d="M 5.5625 -20.21875 L 5.5625 -12.21875 C 5.5625 -11.375 5.519531 -10.539062 5.4375 -9.71875 C 5.351562 -8.90625 5.25 -8.039062 5.125 -7.125 L 2.765625 -7.125 C 2.640625 -8.039062 2.535156 -8.90625 2.453125 -9.71875 C 2.367188 -10.539062 2.328125 -11.375 2.328125 -12.21875 L 2.328125 -20.21875 Z M 1.78125 -1.90625 C 1.78125 -2.1875 1.832031 -2.457031 1.9375 -2.71875 C 2.039062 -2.988281 2.1875 -3.210938 2.375 -3.390625 C 2.570312 -3.578125 2.800781 -3.726562 3.0625 -3.84375 C 3.320312 -3.957031 3.601562 -4.015625 3.90625 -4.015625 C 4.1875 -4.015625 4.457031 -3.957031 4.71875 -3.84375 C 4.988281 -3.726562 5.21875 -3.578125 5.40625 -3.390625 C 5.59375 -3.210938 5.742188 -2.988281 5.859375 -2.71875 C 5.972656 -2.457031 6.03125 -2.1875 6.03125 -1.90625 C 6.03125 -1.601562 5.972656 -1.320312 5.859375 -1.0625 C 5.742188 -0.8125 5.59375 -0.59375 5.40625 -0.40625 C 5.21875 -0.21875 4.988281 -0.0703125 4.71875 0.03125 C 4.457031 0.144531 4.1875 0.203125 3.90625 0.203125 C 3.601562 0.203125 3.320312 0.144531 3.0625 0.03125 C 2.800781 -0.0703125 2.570312 -0.21875 2.375 -0.40625 C 2.1875 -0.59375 2.039062 -0.8125 1.9375 -1.0625 C 1.832031 -1.320312 1.78125 -1.601562 1.78125 -1.90625 Z M 1.78125 -1.90625 "/></g></g></g><path fill="#171154" d="M 205.621094 199.5 L 190.65625 199.5 C 188.601562 199.5 186.917969 201.183594 186.917969 203.238281 L 186.917969 213.214844 C 186.917969 215.273438 188.601562 216.953125 190.65625 216.953125 L 205.621094 216.953125 C 207.675781 216.953125 209.359375 215.273438 209.359375 213.214844 L 209.359375 203.238281 C 209.359375 201.183594 207.675781 199.5 205.621094 199.5 Z M 205.621094 199.5 " fill-opacity="1" fill-rule="nonzero"/><path fill="#171154" d="M 205.621094 229.421875 L 190.65625 229.421875 C 188.601562 229.421875 186.917969 231.105469 186.917969 233.164062 L 186.917969 243.140625 C 186.917969 245.195312 188.601562 246.878906 190.65625 246.878906 L 205.621094 246.878906 C 207.675781 246.878906 209.359375 245.195312 209.359375 243.140625 L 209.359375 233.164062 C 209.359375 231.105469 207.675781 229.421875 205.621094 229.421875 Z M 205.621094 229.421875 " fill-opacity="1" fill-rule="nonzero"/><path fill="#171154" d="M 205.621094 259.347656 L 190.65625 259.347656 C 188.601562 259.347656 186.917969 261.03125 186.917969 263.089844 L 186.917969 273.0625 C 186.917969 275.121094 188.601562 276.804688 190.65625 276.804688 L 205.621094 276.804688 C 207.675781 276.804688 209.359375 275.121094 209.359375 273.0625 L 209.359375 263.089844 C 209.359375 261.03125 207.675781 259.347656 205.621094 259.347656 Z M 205.621094 259.347656 " fill-opacity="1" fill-rule="nonzero"/><path fill="#171154" d="M 226.816406 266.082031 L 234.296875 262.339844 L 234.296875 59.851562 L 226.816406 59.851562 Z M 226.816406 266.082031 " fill-opacity="1" fill-rule="nonzero"/><path fill="#171154" d="M 173.199219 134.660156 L 153.25 134.660156 C 152.566406 134.660156 152.003906 135.222656 152.003906 135.910156 L 152.003906 145.882812 C 152.003906 146.570312 152.566406 147.128906 153.25 147.128906 L 173.199219 147.128906 C 173.886719 147.128906 174.449219 146.570312 174.449219 145.882812 L 174.449219 135.910156 C 174.449219 135.222656 173.886719 134.660156 173.199219 134.660156 Z M 173.199219 134.660156 " fill-opacity="1" fill-rule="nonzero"/><path fill="#171154" d="M 170.707031 199.5 L 155.746094 199.5 C 153.6875 199.5 152.003906 201.183594 152.003906 203.238281 L 152.003906 213.214844 C 152.003906 215.273438 153.6875 216.953125 155.746094 216.953125 L 170.707031 216.953125 C 172.765625 216.953125 174.449219 215.273438 174.449219 213.214844 L 174.449219 203.238281 C 174.449219 201.183594 172.765625 199.5 170.707031 199.5 Z M 170.707031 199.5 " fill-opacity="1" fill-rule="nonzero"/><path fill="#171154" d="M 170.707031 229.421875 L 155.746094 229.421875 C 153.6875 229.421875 152.003906 231.105469 152.003906 233.164062 L 152.003906 243.140625 C 152.003906 245.195312 153.6875 246.878906 155.746094 246.878906 L 170.707031 246.878906 C 172.765625 246.878906 174.449219 245.195312 174.449219 243.140625 L 174.449219 233.164062 C 174.449219 231.105469 172.765625 229.421875 170.707031 229.421875 Z M 170.707031 229.421875 " fill-opacity="1" fill-rule="nonzero"/><g clip-path="url(#6cfd6c4d0d)"><path fill="#171154" d="M 208.050781 0.625 C 206.367188 0.1875 204.621094 0 202.8125 0 L 201.878906 0 L 201.878906 10.597656 C 201.878906 18.515625 195.457031 24.9375 187.539062 24.9375 L 104 24.9375 C 96.082031 24.9375 89.660156 18.515625 89.660156 10.597656 L 89.660156 0 L 88.726562 0 C 86.980469 0 85.234375 0.1875 83.488281 0.625 C 73.886719 3.054688 67.21875 11.597656 67.21875 21.507812 L 67.21875 266.890625 C 67.21875 276.367188 72.453125 284.910156 80.933594 289.148438 C 84.363281 290.894531 88.226562 291.765625 92.03125 291.765625 L 199.386719 291.765625 C 203.25 291.765625 207.054688 290.832031 210.480469 289.148438 C 218.960938 284.910156 224.199219 276.367188 224.199219 266.890625 L 224.199219 21.507812 C 224.324219 11.597656 217.652344 3.054688 208.050781 0.625 Z M 107.117188 273.0625 C 107.117188 276.492188 104.3125 279.296875 100.882812 279.296875 L 85.921875 279.296875 C 82.492188 279.296875 79.6875 276.492188 79.6875 273.0625 L 79.6875 263.089844 C 79.6875 259.660156 82.492188 256.855469 85.921875 256.855469 L 100.882812 256.855469 C 104.3125 256.855469 107.117188 259.660156 107.117188 263.089844 Z M 107.117188 243.140625 C 107.117188 246.566406 104.3125 249.375 100.882812 249.375 L 85.921875 249.375 C 82.492188 249.375 79.6875 246.566406 79.6875 243.140625 L 79.6875 233.164062 C 79.6875 229.734375 82.492188 226.929688 85.921875 226.929688 L 100.882812 226.929688 C 104.3125 226.929688 107.117188 229.734375 107.117188 233.164062 Z M 107.117188 213.214844 C 107.117188 216.644531 104.3125 219.449219 100.882812 219.449219 L 85.921875 219.449219 C 82.492188 219.449219 79.6875 216.644531 79.6875 213.214844 L 79.6875 203.238281 C 79.6875 199.8125 82.492188 197.003906 85.921875 197.003906 L 100.882812 197.003906 C 104.3125 197.003906 107.117188 199.8125 107.117188 203.238281 Z M 107.117188 183.289062 C 107.117188 186.71875 104.3125 189.523438 100.882812 189.523438 L 85.921875 189.523438 C 82.492188 189.523438 79.6875 186.71875 79.6875 183.289062 L 79.6875 173.316406 C 79.6875 169.886719 82.492188 167.082031 85.921875 167.082031 L 100.882812 167.082031 C 104.3125 167.082031 107.117188 169.886719 107.117188 173.316406 Z M 107.117188 145.882812 C 107.117188 147.941406 105.433594 149.625 103.375 149.625 L 83.425781 149.625 C 81.371094 149.625 79.6875 147.941406 79.6875 145.882812 L 79.6875 135.910156 C 79.6875 133.851562 81.371094 132.167969 83.425781 132.167969 L 103.375 132.167969 C 105.433594 132.167969 107.117188 133.851562 107.117188 135.910156 Z M 142.03125 273.0625 C 142.03125 276.492188 139.222656 279.296875 135.796875 279.296875 L 120.832031 279.296875 C 117.402344 279.296875 114.597656 276.492188 114.597656 273.0625 L 114.597656 263.089844 C 114.597656 259.660156 117.402344 256.855469 120.832031 256.855469 L 135.796875 256.855469 C 139.222656 256.855469 142.03125 259.660156 142.03125 263.089844 Z M 142.03125 243.140625 C 142.03125 246.566406 139.222656 249.375 135.796875 249.375 L 120.832031 249.375 C 117.402344 249.375 114.597656 246.566406 114.597656 243.140625 L 114.597656 233.164062 C 114.597656 229.734375 117.402344 226.929688 120.832031 226.929688 L 135.796875 226.929688 C 139.222656 226.929688 142.03125 229.734375 142.03125 233.164062 Z M 142.03125 213.214844 C 142.03125 216.644531 139.222656 219.449219 135.796875 219.449219 L 120.832031 219.449219 C 117.402344 219.449219 114.597656 216.644531 114.597656 213.214844 L 114.597656 203.238281 C 114.597656 199.8125 117.402344 197.003906 120.832031 197.003906 L 135.796875 197.003906 C 139.222656 197.003906 142.03125 199.8125 142.03125 203.238281 Z M 142.03125 183.289062 C 142.03125 186.71875 139.222656 189.523438 135.796875 189.523438 L 120.832031 189.523438 C 117.402344 189.523438 114.597656 186.71875 114.597656 183.289062 L 114.597656 173.316406 C 114.597656 169.886719 117.402344 167.082031 120.832031 167.082031 L 135.796875 167.082031 C 139.222656 167.082031 142.03125 169.886719 142.03125 173.316406 Z M 142.03125 145.882812 C 142.03125 147.941406 140.347656 149.625 138.289062 149.625 L 118.339844 149.625 C 116.28125 149.625 114.597656 147.941406 114.597656 145.882812 L 114.597656 135.910156 C 114.597656 133.851562 116.28125 132.167969 118.339844 132.167969 L 138.289062 132.167969 C 140.347656 132.167969 142.03125 133.851562 142.03125 135.910156 Z M 176.941406 273.0625 C 176.941406 276.492188 174.136719 279.296875 170.707031 279.296875 L 155.746094 279.296875 C 152.316406 279.296875 149.511719 276.492188 149.511719 273.0625 L 149.511719 263.089844 C 149.511719 259.660156 152.316406 256.855469 155.746094 256.855469 L 170.707031 256.855469 C 174.136719 256.855469 176.941406 259.660156 176.941406 263.089844 Z M 176.941406 243.140625 C 176.941406 246.566406 174.136719 249.375 170.707031 249.375 L 155.746094 249.375 C 152.316406 249.375 149.511719 246.566406 149.511719 243.140625 L 149.511719 233.164062 C 149.511719 229.734375 152.316406 226.929688 155.746094 226.929688 L 170.707031 226.929688 C 174.136719 226.929688 176.941406 229.734375 176.941406 233.164062 Z M 176.941406 213.214844 C 176.941406 216.644531 174.136719 219.449219 170.707031 219.449219 L 155.746094 219.449219 C 152.316406 219.449219 149.511719 216.644531 149.511719 213.214844 L 149.511719 203.238281 C 149.511719 199.8125 152.316406 197.003906 155.746094 197.003906 L 170.707031 197.003906 C 174.136719 197.003906 176.941406 199.8125 176.941406 203.238281 Z M 176.941406 183.289062 C 176.941406 186.71875 174.136719 189.523438 170.707031 189.523438 L 155.746094 189.523438 C 152.316406 189.523438 149.511719 186.71875 149.511719 183.289062 L 149.511719 173.316406 C 149.511719 169.886719 152.316406 167.082031 155.746094 167.082031 L 170.707031 167.082031 C 174.136719 167.082031 176.941406 169.886719 176.941406 173.316406 Z M 176.941406 145.882812 C 176.941406 147.941406 175.257812 149.625 173.199219 149.625 L 153.25 149.625 C 151.195312 149.625 149.511719 147.941406 149.511719 145.882812 L 149.511719 135.910156 C 149.511719 133.851562 151.195312 132.167969 153.25 132.167969 L 173.199219 132.167969 C 175.257812 132.167969 176.941406 133.851562 176.941406 135.910156 Z M 211.855469 273.0625 C 211.855469 276.492188 209.046875 279.296875 205.621094 279.296875 L 190.65625 279.296875 C 187.226562 279.296875 184.421875 276.492188 184.421875 273.0625 L 184.421875 263.089844 C 184.421875 259.660156 187.226562 256.855469 190.65625 256.855469 L 205.621094 256.855469 C 209.046875 256.855469 211.855469 259.660156 211.855469 263.089844 Z M 211.855469 243.140625 C 211.855469 246.566406 209.046875 249.375 205.621094 249.375 L 190.65625 249.375 C 187.226562 249.375 184.421875 246.566406 184.421875 243.140625 L 184.421875 233.164062 C 184.421875 229.734375 187.226562 226.929688 190.65625 226.929688 L 205.621094 226.929688 C 209.046875 226.929688 211.855469 229.734375 211.855469 233.164062 Z M 211.855469 213.214844 C 211.855469 216.644531 209.046875 219.449219 205.621094 219.449219 L 190.65625 219.449219 C 187.226562 219.449219 184.421875 216.644531 184.421875 213.214844 L 184.421875 203.238281 C 184.421875 199.8125 187.226562 197.003906 190.65625 197.003906 L 205.621094 197.003906 C 209.046875 197.003906 211.855469 199.8125 211.855469 203.238281 Z M 211.855469 183.289062 C 211.855469 186.71875 209.046875 189.523438 205.621094 189.523438 L 190.65625 189.523438 C 187.226562 189.523438 184.421875 186.71875 184.421875 183.289062 L 184.421875 173.316406 C 184.421875 169.886719 187.226562 167.082031 190.65625 167.082031 L 205.621094 167.082031 C 209.046875 167.082031 211.855469 169.886719 211.855469 173.316406 Z M 211.855469 145.882812 C 211.855469 147.941406 210.171875 149.625 208.113281 149.625 L 188.164062 149.625 C 186.105469 149.625 184.421875 147.941406 184.421875 145.882812 L 184.421875 135.910156 C 184.421875 133.851562 186.105469 132.167969 188.164062 132.167969 L 208.113281 132.167969 C 210.171875 132.167969 211.855469 133.851562 211.855469 135.910156 Z M 211.855469 123.441406 C 211.855469 124.125 211.292969 124.6875 210.605469 124.6875 L 80.933594 124.6875 C 80.246094 124.6875 79.6875 124.125 79.6875 123.441406 L 79.6875 38.652344 C 79.6875 37.96875 80.246094 37.40625 80.933594 37.40625 L 210.605469 37.40625 C 211.292969 37.40625 211.855469 37.96875 211.855469 38.652344 Z M 211.855469 123.441406 " fill-opacity="1" fill-rule="nonzero"/></g><path fill="#171154" d="M 82.179688 122.191406 L 209.359375 122.191406 L 209.359375 39.898438 L 82.179688 39.898438 Z M 89.660156 48.628906 C 89.660156 47.941406 90.222656 47.382812 90.90625 47.382812 L 200.632812 47.382812 C 201.316406 47.382812 201.878906 47.941406 201.878906 48.628906 L 201.878906 113.464844 C 201.878906 114.152344 201.316406 114.710938 200.632812 114.710938 L 90.90625 114.710938 C 90.222656 114.710938 89.660156 114.152344 89.660156 113.464844 Z M 89.660156 48.628906 " fill-opacity="1" fill-rule="nonzero"/><path fill="#171154" d="M 208.113281 134.660156 L 188.164062 134.660156 C 187.476562 134.660156 186.917969 135.222656 186.917969 135.910156 L 186.917969 145.882812 C 186.917969 146.570312 187.476562 147.128906 188.164062 147.128906 L 208.113281 147.128906 C 208.800781 147.128906 209.359375 146.570312 209.359375 145.882812 L 209.359375 135.910156 C 209.359375 135.222656 208.800781 134.660156 208.113281 134.660156 Z M 208.113281 134.660156 " fill-opacity="1" fill-rule="nonzero"/><path fill="#171154" d="M 205.621094 169.574219 L 190.65625 169.574219 C 188.601562 169.574219 186.917969 171.257812 186.917969 173.316406 L 186.917969 183.289062 C 186.917969 185.347656 188.601562 187.03125 190.65625 187.03125 L 205.621094 187.03125 C 207.675781 187.03125 209.359375 185.347656 209.359375 183.289062 L 209.359375 173.316406 C 209.359375 171.257812 207.675781 169.574219 205.621094 169.574219 Z M 205.621094 169.574219 " fill-opacity="1" fill-rule="nonzero"/><path fill="#171154" d="M 92.15625 49.875 L 199.386719 49.875 L 199.386719 112.21875 L 92.15625 112.21875 Z M 92.15625 49.875 " fill-opacity="1" fill-rule="nonzero"/><path fill="#171154" d="M 170.707031 169.574219 L 155.746094 169.574219 C 153.6875 169.574219 152.003906 171.257812 152.003906 173.316406 L 152.003906 183.289062 C 152.003906 185.347656 153.6875 187.03125 155.746094 187.03125 L 170.707031 187.03125 C 172.765625 187.03125 174.449219 185.347656 174.449219 183.289062 L 174.449219 173.316406 C 174.449219 171.257812 172.765625 169.574219 170.707031 169.574219 Z M 170.707031 169.574219 " fill-opacity="1" fill-rule="nonzero"/><path fill="#171154" d="M 100.882812 199.5 L 85.921875 199.5 C 83.863281 199.5 82.179688 201.183594 82.179688 203.238281 L 82.179688 213.214844 C 82.179688 215.273438 83.863281 216.953125 85.921875 216.953125 L 100.882812 216.953125 C 102.941406 216.953125 104.625 215.273438 104.625 213.214844 L 104.625 203.238281 C 104.625 201.183594 102.941406 199.5 100.882812 199.5 Z M 100.882812 199.5 " fill-opacity="1" fill-rule="nonzero"/><path fill="#171154" d="M 100.882812 229.421875 L 85.921875 229.421875 C 83.863281 229.421875 82.179688 231.105469 82.179688 233.164062 L 82.179688 243.140625 C 82.179688 245.195312 83.863281 246.878906 85.921875 246.878906 L 100.882812 246.878906 C 102.941406 246.878906 104.625 245.195312 104.625 243.140625 L 104.625 233.164062 C 104.625 231.105469 102.941406 229.421875 100.882812 229.421875 Z M 100.882812 229.421875 " fill-opacity="1" fill-rule="nonzero"/><path fill="#171154" d="M 170.707031 259.347656 L 155.746094 259.347656 C 153.6875 259.347656 152.003906 261.03125 152.003906 263.089844 L 152.003906 273.0625 C 152.003906 275.121094 153.6875 276.804688 155.746094 276.804688 L 170.707031 276.804688 C 172.765625 276.804688 174.449219 275.121094 174.449219 273.0625 L 174.449219 263.089844 C 174.449219 261.03125 172.765625 259.347656 170.707031 259.347656 Z M 170.707031 259.347656 " fill-opacity="1" fill-rule="nonzero"/><path fill="#171154" d="M 104 22.445312 L 187.539062 22.445312 C 194.085938 22.445312 199.386719 17.144531 199.386719 10.597656 L 199.386719 0 L 92.15625 0 L 92.15625 10.597656 C 92.15625 17.144531 97.453125 22.445312 104 22.445312 Z M 104 22.445312 " fill-opacity="1" fill-rule="nonzero"/><path fill="#171154" d="M 100.882812 259.347656 L 85.921875 259.347656 C 83.863281 259.347656 82.179688 261.03125 82.179688 263.089844 L 82.179688 273.0625 C 82.179688 275.121094 83.863281 276.804688 85.921875 276.804688 L 100.882812 276.804688 C 102.941406 276.804688 104.625 275.121094 104.625 273.0625 L 104.625 263.089844 C 104.625 261.03125 102.941406 259.347656 100.882812 259.347656 Z M 100.882812 259.347656 " fill-opacity="1" fill-rule="nonzero"/><path fill="#171154" d="M 103.375 134.660156 L 83.425781 134.660156 C 82.742188 134.660156 82.179688 135.222656 82.179688 135.910156 L 82.179688 145.882812 C 82.179688 146.570312 82.742188 147.128906 83.425781 147.128906 L 103.375 147.128906 C 104.0625 147.128906 104.625 146.570312 104.625 145.882812 L 104.625 135.910156 C 104.625 135.222656 104.0625 134.660156 103.375 134.660156 Z M 103.375 134.660156 " fill-opacity="1" fill-rule="nonzero"/><path fill="#171154" d="M 138.289062 134.660156 L 118.339844 134.660156 C 117.652344 134.660156 117.09375 135.222656 117.09375 135.910156 L 117.09375 145.882812 C 117.09375 146.570312 117.652344 147.128906 118.339844 147.128906 L 138.289062 147.128906 C 138.972656 147.128906 139.535156 146.570312 139.535156 145.882812 L 139.535156 135.910156 C 139.535156 135.222656 138.972656 134.660156 138.289062 134.660156 Z M 138.289062 134.660156 " fill-opacity="1" fill-rule="nonzero"/><path fill="#171154" d="M 135.796875 169.574219 L 120.832031 169.574219 C 118.773438 169.574219 117.09375 171.257812 117.09375 173.316406 L 117.09375 183.289062 C 117.09375 185.347656 118.773438 187.03125 120.832031 187.03125 L 135.796875 187.03125 C 137.851562 187.03125 139.535156 185.347656 139.535156 183.289062 L 139.535156 173.316406 C 139.535156 171.257812 137.851562 169.574219 135.796875 169.574219 Z M 135.796875 169.574219 " fill-opacity="1" fill-rule="nonzero"/><path fill="#171154" d="M 135.796875 199.5 L 120.832031 199.5 C 118.773438 199.5 117.09375 201.183594 117.09375 203.238281 L 117.09375 213.214844 C 117.09375 215.273438 118.773438 216.953125 120.832031 216.953125 L 135.796875 216.953125 C 137.851562 216.953125 139.535156 215.273438 139.535156 213.214844 L 139.535156 203.238281 C 139.535156 201.183594 137.851562 199.5 135.796875 199.5 Z M 135.796875 199.5 " fill-opacity="1" fill-rule="nonzero"/><path fill="#171154" d="M 135.796875 259.347656 L 120.832031 259.347656 C 118.773438 259.347656 117.09375 261.03125 117.09375 263.089844 L 117.09375 273.0625 C 117.09375 275.121094 118.773438 276.804688 120.832031 276.804688 L 135.796875 276.804688 C 137.851562 276.804688 139.535156 275.121094 139.535156 273.0625 L 139.535156 263.089844 C 139.535156 261.03125 137.851562 259.347656 135.796875 259.347656 Z M 135.796875 259.347656 " fill-opacity="1" fill-rule="nonzero"/><path fill="#171154" d="M 135.796875 229.421875 L 120.832031 229.421875 C 118.773438 229.421875 117.09375 231.105469 117.09375 233.164062 L 117.09375 243.140625 C 117.09375 245.195312 118.773438 246.878906 120.832031 246.878906 L 135.796875 246.878906 C 137.851562 246.878906 139.535156 245.195312 139.535156 243.140625 L 139.535156 233.164062 C 139.535156 231.105469 137.851562 229.421875 135.796875 229.421875 Z M 135.796875 229.421875 " fill-opacity="1" fill-rule="nonzero"/><path fill="#171154" d="M 100.882812 169.574219 L 85.921875 169.574219 C 83.863281 169.574219 82.179688 171.257812 82.179688 173.316406 L 82.179688 183.289062 C 82.179688 185.347656 83.863281 187.03125 85.921875 187.03125 L 100.882812 187.03125 C 102.941406 187.03125 104.625 185.347656 104.625 183.289062 L 104.625 173.316406 C 104.625 171.257812 102.941406 169.574219 100.882812 169.574219 Z M 100.882812 169.574219 " fill-opacity="1" fill-rule="nonzero"/><path fill="#171154" d="M 296.640625 224.4375 L 304.121094 224.4375 L 304.121094 231.917969 L 296.640625 231.917969 Z M 296.640625 224.4375 " fill-opacity="1" fill-rule="nonzero"/><path fill="#171154" d="M 289.160156 68.578125 C 289.160156 69.476562 289.070312 70.371094 288.894531 71.253906 C 288.71875 72.136719 288.460938 72.996094 288.117188 73.828125 C 287.769531 74.660156 287.347656 75.449219 286.847656 76.199219 C 286.347656 76.945312 285.78125 77.640625 285.140625 78.277344 C 284.503906 78.914062 283.8125 79.480469 283.0625 79.980469 C 282.316406 80.480469 281.523438 80.90625 280.691406 81.25 C 279.859375 81.59375 279.003906 81.855469 278.121094 82.03125 C 277.238281 82.207031 276.34375 82.292969 275.445312 82.292969 C 274.542969 82.292969 273.652344 82.207031 272.769531 82.03125 C 271.886719 81.855469 271.027344 81.59375 270.195312 81.25 C 269.363281 80.90625 268.574219 80.480469 267.824219 79.980469 C 267.074219 79.480469 266.382812 78.914062 265.746094 78.277344 C 265.109375 77.640625 264.539062 76.945312 264.039062 76.199219 C 263.539062 75.449219 263.117188 74.660156 262.773438 73.828125 C 262.429688 72.996094 262.167969 72.136719 261.992188 71.253906 C 261.816406 70.371094 261.730469 69.476562 261.730469 68.578125 C 261.730469 67.675781 261.816406 66.785156 261.992188 65.902344 C 262.167969 65.019531 262.429688 64.160156 262.773438 63.328125 C 263.117188 62.496094 263.539062 61.707031 264.039062 60.957031 C 264.539062 60.210938 265.109375 59.515625 265.746094 58.878906 C 266.382812 58.242188 267.074219 57.675781 267.824219 57.171875 C 268.574219 56.671875 269.363281 56.25 270.195312 55.90625 C 271.027344 55.5625 271.886719 55.300781 272.769531 55.125 C 273.652344 54.949219 274.542969 54.863281 275.445312 54.863281 C 276.34375 54.863281 277.238281 54.949219 278.121094 55.125 C 279.003906 55.300781 279.859375 55.5625 280.691406 55.90625 C 281.523438 56.25 282.316406 56.671875 283.0625 57.171875 C 283.8125 57.675781 284.503906 58.242188 285.140625 58.878906 C 285.78125 59.515625 286.347656 60.210938 286.847656 60.957031 C 287.347656 61.707031 287.769531 62.496094 288.117188 63.328125 C 288.460938 64.160156 288.71875 65.019531 288.894531 65.902344 C 289.070312 66.785156 289.160156 67.675781 289.160156 68.578125 Z M 289.160156 68.578125 " fill-opacity="1" fill-rule="nonzero"/><path fill="#171154" d="M 296.640625 204.488281 L 304.121094 204.488281 L 304.121094 211.96875 L 296.640625 211.96875 Z M 296.640625 204.488281 " fill-opacity="1" fill-rule="nonzero"/><path fill="#171154" d="M 316.589844 204.488281 L 324.070312 204.488281 L 324.070312 211.96875 L 316.589844 211.96875 Z M 316.589844 204.488281 " fill-opacity="1" fill-rule="nonzero"/><path fill="#171154" d="M 306.617188 204.488281 L 314.097656 204.488281 L 314.097656 211.96875 L 306.617188 211.96875 Z M 306.617188 204.488281 " fill-opacity="1" fill-rule="nonzero"/><path fill="#171154" d="M 316.589844 224.4375 L 324.070312 224.4375 L 324.070312 231.917969 L 316.589844 231.917969 Z M 316.589844 224.4375 " fill-opacity="1" fill-rule="nonzero"/><path fill="#171154" d="M 363.972656 39.898438 L 256.742188 39.898438 C 251.253906 39.898438 246.765625 44.386719 246.765625 49.875 L 246.765625 241.890625 C 246.765625 247.378906 251.253906 251.867188 256.742188 251.867188 L 363.972656 251.867188 C 369.457031 251.867188 373.945312 247.378906 373.945312 241.890625 L 373.945312 49.875 C 373.945312 44.386719 369.457031 39.898438 363.972656 39.898438 Z M 314.097656 60.035156 C 319.023438 55.113281 325.628906 52.367188 332.613281 52.367188 C 339.59375 52.367188 346.203125 55.113281 351.128906 60.035156 C 351.628906 60.535156 351.628906 61.285156 351.128906 61.78125 C 350.878906 62.03125 350.566406 62.15625 350.257812 62.15625 C 349.945312 62.15625 349.632812 62.03125 349.382812 61.78125 C 344.894531 57.292969 338.972656 54.863281 332.613281 54.863281 C 326.316406 54.863281 320.332031 57.355469 315.84375 61.78125 C 315.34375 62.28125 314.597656 62.28125 314.097656 61.78125 C 313.597656 61.347656 313.597656 60.535156 314.097656 60.035156 Z M 344.085938 68.828125 C 343.585938 69.324219 342.835938 69.324219 342.339844 68.828125 C 339.71875 66.207031 336.292969 64.835938 332.613281 64.835938 C 328.933594 64.835938 325.507812 66.269531 322.886719 68.828125 C 322.636719 69.078125 322.328125 69.203125 322.015625 69.203125 C 321.703125 69.203125 321.390625 69.078125 321.140625 68.828125 C 320.644531 68.328125 320.644531 67.582031 321.140625 67.082031 C 324.195312 64.027344 328.3125 62.34375 332.613281 62.34375 C 336.914062 62.34375 341.03125 64.027344 344.085938 67.082031 C 344.582031 67.582031 344.582031 68.390625 344.085938 68.828125 Z M 271.703125 233.164062 C 271.703125 233.851562 271.140625 234.410156 270.457031 234.410156 L 260.480469 234.410156 C 259.796875 234.410156 259.234375 233.851562 259.234375 233.164062 L 259.234375 183.289062 C 259.234375 182.605469 259.796875 182.042969 260.480469 182.042969 L 270.457031 182.042969 C 271.140625 182.042969 271.703125 182.605469 271.703125 183.289062 Z M 281.679688 233.164062 C 281.679688 233.851562 281.117188 234.410156 280.433594 234.410156 C 279.746094 234.410156 279.183594 233.851562 279.183594 233.164062 L 279.183594 183.289062 C 279.183594 182.605469 279.746094 182.042969 280.433594 182.042969 C 281.117188 182.042969 281.679688 182.605469 281.679688 183.289062 Z M 275.445312 84.785156 C 266.527344 84.785156 259.234375 77.492188 259.234375 68.578125 C 259.234375 59.664062 266.527344 52.367188 275.445312 52.367188 C 284.359375 52.367188 291.652344 59.664062 291.652344 68.578125 C 291.652344 77.492188 284.359375 84.785156 275.445312 84.785156 Z M 326.566406 233.164062 C 326.566406 233.851562 326.003906 234.410156 325.320312 234.410156 L 295.394531 234.410156 C 294.707031 234.410156 294.148438 233.851562 294.148438 233.164062 L 294.148438 203.238281 C 294.148438 202.554688 294.707031 201.992188 295.394531 201.992188 L 325.320312 201.992188 C 326.003906 201.992188 326.566406 202.554688 326.566406 203.238281 Z M 337.039062 75.871094 C 336.789062 76.121094 336.476562 76.246094 336.167969 76.246094 C 335.855469 76.246094 335.542969 76.121094 335.292969 75.871094 C 334.609375 75.1875 333.609375 74.75 332.613281 74.75 C 331.617188 74.75 330.679688 75.125 329.933594 75.871094 C 329.433594 76.371094 328.625 76.371094 328.1875 75.871094 C 327.6875 75.375 327.6875 74.5625 328.1875 74.125 C 329.371094 72.941406 330.929688 72.316406 332.613281 72.316406 C 334.296875 72.316406 335.855469 72.941406 337.039062 74.125 C 337.539062 74.625 337.539062 75.433594 337.039062 75.871094 Z M 355.242188 234.410156 L 340.28125 234.410156 C 339.59375 234.410156 339.035156 233.851562 339.035156 233.164062 C 339.035156 232.480469 339.59375 231.917969 340.28125 231.917969 L 355.242188 231.917969 C 355.929688 231.917969 356.492188 232.480469 356.492188 233.164062 C 356.492188 233.851562 355.929688 234.410156 355.242188 234.410156 Z M 355.242188 224.4375 L 340.28125 224.4375 C 339.59375 224.4375 339.035156 223.875 339.035156 223.1875 C 339.035156 222.503906 339.59375 221.941406 340.28125 221.941406 L 355.242188 221.941406 C 355.929688 221.941406 356.492188 222.503906 356.492188 223.1875 C 356.492188 223.875 355.929688 224.4375 355.242188 224.4375 Z M 355.242188 214.460938 L 340.28125 214.460938 C 339.59375 214.460938 339.035156 213.898438 339.035156 213.214844 C 339.035156 212.527344 339.59375 211.96875 340.28125 211.96875 L 355.242188 211.96875 C 355.929688 211.96875 356.492188 212.527344 356.492188 213.214844 C 356.492188 213.898438 355.929688 214.460938 355.242188 214.460938 Z M 355.242188 204.488281 L 340.28125 204.488281 C 339.59375 204.488281 339.035156 203.925781 339.035156 203.238281 C 339.035156 202.554688 339.59375 201.992188 340.28125 201.992188 L 355.242188 201.992188 C 355.929688 201.992188 356.492188 202.554688 356.492188 203.238281 C 356.492188 203.925781 355.929688 204.488281 355.242188 204.488281 Z M 355.242188 184.535156 L 340.28125 184.535156 C 339.59375 184.535156 339.035156 183.976562 339.035156 183.289062 C 339.035156 182.605469 339.59375 182.042969 340.28125 182.042969 L 355.242188 182.042969 C 355.929688 182.042969 356.492188 182.605469 356.492188 183.289062 C 356.492188 183.976562 355.929688 184.535156 355.242188 184.535156 Z M 355.242188 174.5625 L 340.28125 174.5625 C 339.59375 174.5625 339.035156 174 339.035156 173.316406 C 339.035156 172.628906 339.59375 172.066406 340.28125 172.066406 L 355.242188 172.066406 C 355.929688 172.066406 356.492188 172.628906 356.492188 173.316406 C 356.492188 174 355.929688 174.5625 355.242188 174.5625 Z M 355.242188 164.585938 L 340.28125 164.585938 C 339.59375 164.585938 339.035156 164.027344 339.035156 163.339844 C 339.035156 162.652344 339.59375 162.09375 340.28125 162.09375 L 355.242188 162.09375 C 355.929688 162.09375 356.492188 162.652344 356.492188 163.339844 C 356.492188 164.027344 355.929688 164.585938 355.242188 164.585938 Z M 355.242188 154.613281 L 340.28125 154.613281 C 339.59375 154.613281 339.035156 154.050781 339.035156 153.363281 C 339.035156 152.679688 339.59375 152.117188 340.28125 152.117188 L 355.242188 152.117188 C 355.929688 152.117188 356.492188 152.679688 356.492188 153.363281 C 356.492188 154.050781 355.929688 154.613281 355.242188 154.613281 Z M 355.242188 144.636719 L 340.28125 144.636719 C 339.59375 144.636719 339.035156 144.074219 339.035156 143.390625 C 339.035156 142.703125 339.59375 142.144531 340.28125 142.144531 L 355.242188 142.144531 C 355.929688 142.144531 356.492188 142.703125 356.492188 143.390625 C 356.492188 144.074219 355.929688 144.636719 355.242188 144.636719 Z M 355.242188 124.6875 L 340.28125 124.6875 C 339.59375 124.6875 339.035156 124.125 339.035156 123.441406 C 339.035156 122.753906 339.59375 122.191406 340.28125 122.191406 L 355.242188 122.191406 C 355.929688 122.191406 356.492188 122.753906 356.492188 123.441406 C 356.492188 124.125 355.929688 124.6875 355.242188 124.6875 Z M 355.242188 114.710938 L 340.28125 114.710938 C 339.59375 114.710938 339.035156 114.152344 339.035156 113.464844 C 339.035156 112.777344 339.59375 112.21875 340.28125 112.21875 L 355.242188 112.21875 C 355.929688 112.21875 356.492188 112.777344 356.492188 113.464844 C 356.492188 114.152344 355.929688 114.710938 355.242188 114.710938 Z M 355.242188 104.738281 L 340.28125 104.738281 C 339.59375 104.738281 339.035156 104.175781 339.035156 103.488281 C 339.035156 102.804688 339.59375 102.242188 340.28125 102.242188 L 355.242188 102.242188 C 355.929688 102.242188 356.492188 102.804688 356.492188 103.488281 C 356.492188 104.175781 355.929688 104.738281 355.242188 104.738281 Z M 355.242188 94.761719 L 340.28125 94.761719 C 339.59375 94.761719 339.035156 94.199219 339.035156 93.515625 C 339.035156 92.828125 339.59375 92.269531 340.28125 92.269531 L 355.242188 92.269531 C 355.929688 92.269531 356.492188 92.828125 356.492188 93.515625 C 356.492188 94.199219 355.929688 94.761719 355.242188 94.761719 Z M 355.242188 94.761719 " fill-opacity="1" fill-rule="nonzero"/><path fill="#171154" d="M 261.730469 184.535156 L 269.210938 184.535156 L 269.210938 231.917969 L 261.730469 231.917969 Z M 261.730469 184.535156 " fill-opacity="1" fill-rule="nonzero"/><path fill="#171154" d="M 296.640625 214.460938 L 324.070312 214.460938 L 324.070312 221.941406 L 296.640625 221.941406 Z M 296.640625 214.460938 " fill-opacity="1" fill-rule="nonzero"/><path fill="#171154" d="M 306.617188 224.4375 L 314.097656 224.4375 L 314.097656 231.917969 L 306.617188 231.917969 Z M 306.617188 224.4375 " fill-opacity="1" fill-rule="nonzero"/></svg>