<svg width="24" height="24" viewBox="0 0 24 24" fill="none" xmlns="http://www.w3.org/2000/svg">
<path d="M23.9335 7.8109C24.0926 8.21879 23.9583 8.67357 23.6152 8.96425L21.4617 10.8115C21.5164 11.2006 21.5463 12.0023 21.5463 12.0023C21.5463 12.0023 21.5164 12.8041 21.4617 13.1932L23.6152 15.0404C23.9583 15.3311 24.0926 15.7859 23.9335 16.1938C23.7146 16.7517 23.4511 17.2862 23.1477 17.8019L22.9139 18.1817C22.5857 18.6974 22.2177 19.185 21.8148 19.6445C21.5214 19.982 21.034 20.0945 20.5964 19.9633L17.8262 19.1334C17.1598 19.6163 16.4238 20.0195 15.638 20.3243L15.0163 23.0014C14.9168 23.428 14.5687 23.7656 14.1112 23.8359C13.4249 23.9437 12.7186 24 11.9975 24C11.2764 24 10.5702 23.9437 9.88385 23.8359C9.42631 23.7656 9.07818 23.428 8.97871 23.0014L8.35705 20.3243C7.57126 20.0195 6.83521 19.6163 6.16879 19.1334L3.40362 19.968C2.96597 20.0992 2.47859 19.982 2.18516 19.6492C1.78232 19.1897 1.4143 18.7021 1.08606 18.1864L0.852315 17.8066C0.548942 17.2909 0.285357 16.7564 0.0665309 16.1985C-0.0926152 15.7906 0.0416643 15.3358 0.384823 15.0451L2.53827 13.1979C2.48356 12.8041 2.45372 12.4055 2.45372 12.0023C2.45372 11.5991 2.48356 11.2006 2.53827 10.8115L0.384823 8.96425C0.0416643 8.67357 -0.0926152 8.21879 0.0665309 7.8109C0.285357 7.25298 0.548942 6.7185 0.852315 6.20277L1.08606 5.82301C1.4143 5.30729 1.78232 4.81969 2.18516 4.36023C2.47859 4.02266 2.96597 3.91014 3.40362 4.04141L6.17376 4.87126C6.84019 4.38836 7.57624 3.98515 8.36202 3.68041L8.98368 1.00332C9.08315 0.576675 9.43128 0.239109 9.88883 0.168783C10.5751 0.056261 11.2814 0 12.0025 0C12.7236 0 13.4298 0.056261 14.1161 0.164095C14.5737 0.234421 14.9218 0.571987 15.0213 0.998633L15.643 3.67572C16.4287 3.98046 17.1648 4.38367 17.8312 4.86658L20.6013 4.03673C21.039 3.90545 21.5264 4.02266 21.8198 4.35554C22.2226 4.815 22.5907 5.3026 22.9189 5.81832L23.1527 6.19809C23.456 6.71381 23.7196 7.24829 23.9384 7.80621L23.9335 7.8109ZM12.0025 15.7531C13.0577 15.7531 14.0697 15.3579 14.8158 14.6545C15.562 13.9511 15.9811 12.9971 15.9811 12.0023C15.9811 11.0076 15.562 10.0536 14.8158 9.35018C14.0697 8.64678 13.0577 8.25161 12.0025 8.25161C10.9473 8.25161 9.9353 8.64678 9.18915 9.35018C8.44301 10.0536 8.02383 11.0076 8.02383 12.0023C8.02383 12.9971 8.44301 13.9511 9.18915 14.6545C9.9353 15.3579 10.9473 15.7531 12.0025 15.7531Z" fill="white"/>
</svg>
